<?xml version="1.0" encoding="UTF-8"?>
<!--Generator: Apple Native CoreSVG 123-->
<!DOCTYPE svg
PUBLIC "-//W3C//DTD SVG 1.1//EN"
       "http://www.w3.org/Graphics/SVG/1.1/DTD/svg11.dtd">
<svg version="1.1" xmlns="http://www.w3.org/2000/svg" xmlns:xlink="http://www.w3.org/1999/xlink" width="3300" height="2200">
 <!--glyph: "uni100029.medium", point size: 100.000000, font version: "Version 15.0d4e20", template writer version: "2"-->
 <g id="Notes">
  <rect height="2200" id="artboard" style="fill:white;opacity:1" width="3300" x="0" y="0"/>
  <line id="" style="fill:none;stroke:black;opacity:1;stroke-width:0.5;" x1="263" x2="3036" y1="292" y2="292"/>
  <text style="stroke:none;fill:black;font-family:-apple-system,&quot;SF Pro Display&quot;,&quot;SF Pro Text&quot;,Helvetica,sans-serif;font-weight:bold;" transform="matrix(1 0 0 1 263 322)">Weight/Scale Variations</text>
  <text style="stroke:none;fill:black;font-family:-apple-system,&quot;SF Pro Display&quot;,&quot;SF Pro Text&quot;,Helvetica,sans-serif;text-anchor:middle;" transform="matrix(1 0 0 1 559.711 322)">Ultralight</text>
  <text style="stroke:none;fill:black;font-family:-apple-system,&quot;SF Pro Display&quot;,&quot;SF Pro Text&quot;,Helvetica,sans-serif;text-anchor:middle;" transform="matrix(1 0 0 1 856.422 322)">Thin</text>
  <text style="stroke:none;fill:black;font-family:-apple-system,&quot;SF Pro Display&quot;,&quot;SF Pro Text&quot;,Helvetica,sans-serif;text-anchor:middle;" transform="matrix(1 0 0 1 1153.13 322)">Light</text>
  <text style="stroke:none;fill:black;font-family:-apple-system,&quot;SF Pro Display&quot;,&quot;SF Pro Text&quot;,Helvetica,sans-serif;text-anchor:middle;" transform="matrix(1 0 0 1 1449.84 322)">Regular</text>
  <text style="stroke:none;fill:black;font-family:-apple-system,&quot;SF Pro Display&quot;,&quot;SF Pro Text&quot;,Helvetica,sans-serif;text-anchor:middle;" transform="matrix(1 0 0 1 1746.56 322)">Medium</text>
  <text style="stroke:none;fill:black;font-family:-apple-system,&quot;SF Pro Display&quot;,&quot;SF Pro Text&quot;,Helvetica,sans-serif;text-anchor:middle;" transform="matrix(1 0 0 1 2043.27 322)">Semibold</text>
  <text style="stroke:none;fill:black;font-family:-apple-system,&quot;SF Pro Display&quot;,&quot;SF Pro Text&quot;,Helvetica,sans-serif;text-anchor:middle;" transform="matrix(1 0 0 1 2339.98 322)">Bold</text>
  <text style="stroke:none;fill:black;font-family:-apple-system,&quot;SF Pro Display&quot;,&quot;SF Pro Text&quot;,Helvetica,sans-serif;text-anchor:middle;" transform="matrix(1 0 0 1 2636.69 322)">Heavy</text>
  <text style="stroke:none;fill:black;font-family:-apple-system,&quot;SF Pro Display&quot;,&quot;SF Pro Text&quot;,Helvetica,sans-serif;text-anchor:middle;" transform="matrix(1 0 0 1 2933.4 322)">Black</text>
  <line id="" style="fill:none;stroke:black;opacity:1;stroke-width:0.5;" x1="263" x2="3036" y1="1903" y2="1903"/>
  <g id="" transform="matrix(1 0 0 1 263 1933)">
   <path d="M 9.24805 0.830078 C 13.5547 0.830078 17.1387 -2.74414 17.1387 -7.05078 C 17.1387 -11.3574 13.5449 -14.9316 9.23828 -14.9316 C 4.94141 -14.9316 1.36719 -11.3574 1.36719 -7.05078 C 1.36719 -2.74414 4.95117 0.830078 9.24805 0.830078 Z M 9.24805 -0.654297 C 5.70312 -0.654297 2.87109 -3.49609 2.87109 -7.05078 C 2.87109 -10.6055 5.69336 -13.4473 9.23828 -13.4473 C 12.793 -13.4473 15.6348 -10.6055 15.6445 -7.05078 C 15.6543 -3.49609 12.8027 -0.654297 9.24805 -0.654297 Z M 9.22852 -3.42773 C 9.69727 -3.42773 9.9707 -3.74023 9.9707 -4.25781 L 9.9707 -6.31836 L 12.1973 -6.31836 C 12.6953 -6.31836 13.0371 -6.57227 13.0371 -7.04102 C 13.0371 -7.51953 12.7148 -7.7832 12.1973 -7.7832 L 9.9707 -7.7832 L 9.9707 -10.0098 C 9.9707 -10.5273 9.69727 -10.8496 9.22852 -10.8496 C 8.75977 -10.8496 8.50586 -10.5078 8.50586 -10.0098 L 8.50586 -7.7832 L 6.29883 -7.7832 C 5.78125 -7.7832 5.44922 -7.51953 5.44922 -7.04102 C 5.44922 -6.57227 5.80078 -6.31836 6.29883 -6.31836 L 8.50586 -6.31836 L 8.50586 -4.25781 C 8.50586 -3.75977 8.75977 -3.42773 9.22852 -3.42773 Z"/>
  </g>
  <g id="" transform="matrix(1 0 0 1 281.506 1933)">
   <path d="M 11.709 2.91016 C 17.1484 2.91016 21.6699 -1.60156 21.6699 -7.05078 C 21.6699 -12.4902 17.1387 -17.0117 11.6992 -17.0117 C 6.25 -17.0117 1.74805 -12.4902 1.74805 -7.05078 C 1.74805 -1.60156 6.25977 2.91016 11.709 2.91016 Z M 11.709 1.25 C 7.09961 1.25 3.41797 -2.44141 3.41797 -7.05078 C 3.41797 -11.6504 7.08984 -15.3516 11.6992 -15.3516 C 16.2988 -15.3516 20 -11.6504 20.0098 -7.05078 C 20.0195 -2.44141 16.3086 1.25 11.709 1.25 Z M 11.6797 -2.41211 C 12.207 -2.41211 12.5195 -2.77344 12.5195 -3.33984 L 12.5195 -6.23047 L 15.5762 -6.23047 C 16.123 -6.23047 16.5039 -6.51367 16.5039 -7.03125 C 16.5039 -7.55859 16.1426 -7.86133 15.5762 -7.86133 L 12.5195 -7.86133 L 12.5195 -10.9277 C 12.5195 -11.5039 12.207 -11.8555 11.6797 -11.8555 C 11.1621 -11.8555 10.8789 -11.4844 10.8789 -10.9277 L 10.8789 -7.86133 L 7.83203 -7.86133 C 7.25586 -7.86133 6.89453 -7.55859 6.89453 -7.03125 C 6.89453 -6.51367 7.28516 -6.23047 7.83203 -6.23047 L 10.8789 -6.23047 L 10.8789 -3.33984 C 10.8789 -2.79297 11.1621 -2.41211 11.6797 -2.41211 Z"/>
  </g>
  <g id="" transform="matrix(1 0 0 1 304.914 1933)">
   <path d="M 14.9707 5.67383 C 21.9336 5.67383 27.6855 -0.078125 27.6855 -7.04102 C 27.6855 -14.0039 21.9238 -19.7559 14.9609 -19.7559 C 7.99805 -19.7559 2.25586 -14.0039 2.25586 -7.04102 C 2.25586 -0.078125 8.00781 5.67383 14.9707 5.67383 Z M 14.9707 3.85742 C 8.92578 3.85742 4.08203 -1.00586 4.08203 -7.04102 C 4.08203 -13.0762 8.91602 -17.9395 14.9609 -17.9395 C 20.9961 -17.9395 25.8594 -13.0762 25.8691 -7.04102 C 25.8789 -1.00586 21.0059 3.85742 14.9707 3.85742 Z M 14.9414 -1.06445 C 15.5176 -1.06445 15.8594 -1.45508 15.8594 -2.06055 L 15.8594 -6.13281 L 20.0977 -6.13281 C 20.6934 -6.13281 21.1133 -6.46484 21.1133 -7.02148 C 21.1133 -7.59766 20.7227 -7.93945 20.0977 -7.93945 L 15.8594 -7.93945 L 15.8594 -12.1875 C 15.8594 -12.8027 15.5176 -13.1934 14.9414 -13.1934 C 14.3848 -13.1934 14.0625 -12.7832 14.0625 -12.1875 L 14.0625 -7.93945 L 9.82422 -7.93945 C 9.20898 -7.93945 8.80859 -7.59766 8.80859 -7.02148 C 8.80859 -6.46484 9.23828 -6.13281 9.82422 -6.13281 L 14.0625 -6.13281 L 14.0625 -2.06055 C 14.0625 -1.47461 14.3848 -1.06445 14.9414 -1.06445 Z"/>
  </g>
  <text style="stroke:none;fill:black;font-family:-apple-system,&quot;SF Pro Display&quot;,&quot;SF Pro Text&quot;,Helvetica,sans-serif;font-weight:bold;" transform="matrix(1 0 0 1 263 1953)">Design Variations</text>
  <text style="stroke:none;fill:black;font-family:-apple-system,&quot;SF Pro Display&quot;,&quot;SF Pro Text&quot;,Helvetica,sans-serif;" transform="matrix(1 0 0 1 263 1971)">Symbols are supported in up to nine weights and three scales.</text>
  <text style="stroke:none;fill:black;font-family:-apple-system,&quot;SF Pro Display&quot;,&quot;SF Pro Text&quot;,Helvetica,sans-serif;" transform="matrix(1 0 0 1 263 1989)">For optimal layout with text and other symbols, vertically align</text>
  <text style="stroke:none;fill:black;font-family:-apple-system,&quot;SF Pro Display&quot;,&quot;SF Pro Text&quot;,Helvetica,sans-serif;" transform="matrix(1 0 0 1 263 2007)">symbols with the adjacent text.</text>
  <rect height="14" id="" style="fill:#00AEEF;stroke:none;opacity:0.4;" width="3" x="776" y="1919"/>
  <g id="" transform="matrix(1 0 0 1 779 1933)">
   <path d="M 10.5273 0 L 12.373 0 L 7.17773 -14.0918 L 5.43945 -14.0918 L 0.244141 0 L 2.08984 0 L 3.50586 -4.0332 L 9.11133 -4.0332 Z M 6.2793 -11.9531 L 6.33789 -11.9531 L 8.59375 -5.52734 L 4.02344 -5.52734 Z"/>
  </g>
  <rect height="14" id="" style="fill:#00AEEF;stroke:none;opacity:0.4;" width="3" x="791.617" y="1919"/>
  <text style="stroke:none;fill:black;font-family:-apple-system,&quot;SF Pro Display&quot;,&quot;SF Pro Text&quot;,Helvetica,sans-serif;font-weight:bold;" transform="matrix(1 0 0 1 776 1953)">Side Bearings</text>
  <text style="stroke:none;fill:black;font-family:-apple-system,&quot;SF Pro Display&quot;,&quot;SF Pro Text&quot;,Helvetica,sans-serif;" transform="matrix(1 0 0 1 776 1971)">Horizontal padding on the left and right side of each symbol</text>
  <text style="stroke:none;fill:black;font-family:-apple-system,&quot;SF Pro Display&quot;,&quot;SF Pro Text&quot;,Helvetica,sans-serif;" transform="matrix(1 0 0 1 776 1989)">can be adjusted by modifying the width of the blue rectangles.</text>
  <text style="stroke:none;fill:black;font-family:-apple-system,&quot;SF Pro Display&quot;,&quot;SF Pro Text&quot;,Helvetica,sans-serif;" transform="matrix(1 0 0 1 776 2007)">Modifications are automatically applied proportionally to all</text>
  <text style="stroke:none;fill:black;font-family:-apple-system,&quot;SF Pro Display&quot;,&quot;SF Pro Text&quot;,Helvetica,sans-serif;" transform="matrix(1 0 0 1 776 2025)">scales and weights.</text>
  <g id="" transform="matrix(1 0 0 1 1289 1933)">
   <path d="M 2.96875 2.35352 L 3.80859 3.19336 C 4.84375 4.22852 6.12305 4.15039 7.19727 2.97852 L 16.1621 -6.82617 C 16.5527 -6.74805 16.9629 -6.8457 17.4902 -7.02148 C 18.1738 -7.25586 18.2715 -7.25586 18.3887 -7.13867 C 18.5352 -7.01172 18.4863 -6.89453 18.2422 -6.25 C 17.8809 -5.33203 17.8125 -4.79492 18.5547 -4.02344 L 19.4238 -3.13477 C 20.2734 -2.24609 21.3281 -2.26562 22.2168 -3.14453 L 25.0586 -5.97656 C 25.9473 -6.86523 25.957 -7.92969 25.0781 -8.7793 L 24.1797 -9.64844 C 23.4082 -10.4004 22.8711 -10.3516 21.9629 -9.98047 C 21.3184 -9.72656 21.2012 -9.6875 21.0645 -9.81445 C 20.9375 -9.93164 20.9473 -10.0391 21.1816 -10.7129 C 21.5332 -11.6895 21.5723 -12.2852 20.752 -13.0957 L 19.3359 -14.5117 C 15.1953 -18.6133 11.2305 -18.7402 7.65625 -15.4395 C 7.08008 -14.9023 6.99219 -14.1504 7.53906 -13.6133 L 7.79297 -13.3594 C 8.22266 -12.9297 8.86719 -12.8418 9.41406 -13.1152 C 11.0645 -13.9453 12.2559 -14.0234 13.457 -12.9785 L 13.0273 -11.416 C 12.8516 -10.8008 12.793 -10.3418 12.9199 -9.93164 L 3.18359 -1.04492 C 2.02148 0.0292969 1.93359 1.32812 2.96875 2.35352 Z M 8.96484 -14.4922 C 8.89648 -14.5703 8.86719 -14.6582 8.99414 -14.7559 C 11.709 -17.2852 15.0391 -16.8457 18.3496 -13.5254 L 19.6973 -12.168 C 20.0879 -11.7773 20.0977 -11.582 19.8828 -10.8691 C 19.6582 -10.127 19.502 -9.53125 20.1465 -8.88672 C 20.8105 -8.22266 21.2891 -8.41797 22.207 -8.63281 C 22.9004 -8.79883 23.0664 -8.79883 23.4473 -8.41797 L 24.0918 -7.77344 C 24.4043 -7.48047 24.4141 -7.32422 24.0723 -6.97266 L 21.2207 -4.13086 C 20.8887 -3.79883 20.7227 -3.79883 20.4297 -4.10156 L 19.7852 -4.75586 C 19.4141 -5.13672 19.4141 -5.30273 19.5801 -6.01562 C 19.7852 -6.88477 19.9805 -7.38281 19.3262 -8.04688 C 18.6719 -8.7207 18.0762 -8.57422 17.3438 -8.33008 C 16.5625 -8.06641 16.3281 -8.06641 15.8984 -8.49609 L 14.6094 -9.78516 C 14.1699 -10.2246 14.1309 -10.4395 14.2676 -10.9082 L 15.0293 -13.3984 C 13.3887 -15.2832 11.4941 -15.5566 9.20898 -14.4434 C 9.11133 -14.3945 9.04297 -14.4141 8.96484 -14.4922 Z M 3.96484 1.36719 C 3.52539 0.927734 3.54492 0.537109 4.14062 -0.00976562 L 13.7402 -8.81836 L 15 -7.55859 L 6.17188 2.02148 C 5.625 2.60742 5.24414 2.64648 4.79492 2.19727 Z"/>
  </g>
  <text style="stroke:none;fill:black;font-family:-apple-system,&quot;SF Pro Display&quot;,&quot;SF Pro Text&quot;,Helvetica,sans-serif;font-weight:bold;" transform="matrix(1 0 0 1 1289 1953)">Exporting</text>
  <text style="stroke:none;fill:black;font-family:-apple-system,&quot;SF Pro Display&quot;,&quot;SF Pro Text&quot;,Helvetica,sans-serif;" transform="matrix(1 0 0 1 1289 1971)">Symbols should be outlined when exporting to ensure the</text>
  <text style="stroke:none;fill:black;font-family:-apple-system,&quot;SF Pro Display&quot;,&quot;SF Pro Text&quot;,Helvetica,sans-serif;" transform="matrix(1 0 0 1 1289 1989)">design is preserved when submitting to Xcode.</text>
  <text id="template-version" style="stroke:none;fill:black;font-family:-apple-system,&quot;SF Pro Display&quot;,&quot;SF Pro Text&quot;,Helvetica,sans-serif;text-anchor:end;" transform="matrix(1 0 0 1 3036 1933)">Template v.0.1</text>
  <text style="stroke:none;fill:black;font-family:-apple-system,&quot;SF Pro Display&quot;,&quot;SF Pro Text&quot;,Helvetica,sans-serif;text-anchor:end;" transform="matrix(1 0 0 1 3036 1951)">Generated from s.circle.fill</text>
  <text style="stroke:none;fill:black;font-family:-apple-system,&quot;SF Pro Display&quot;,&quot;SF Pro Text&quot;,Helvetica,sans-serif;text-anchor:end;" transform="matrix(1 0 0 1 3036 1969)">Typeset at 100 points</text>
  <text style="stroke:none;fill:black;font-family:-apple-system,&quot;SF Pro Display&quot;,&quot;SF Pro Text&quot;,Helvetica,sans-serif;" transform="matrix(1 0 0 1 263 726)">Small</text>
  <text style="stroke:none;fill:black;font-family:-apple-system,&quot;SF Pro Display&quot;,&quot;SF Pro Text&quot;,Helvetica,sans-serif;" transform="matrix(1 0 0 1 263 1156)">Medium</text>
  <text style="stroke:none;fill:black;font-family:-apple-system,&quot;SF Pro Display&quot;,&quot;SF Pro Text&quot;,Helvetica,sans-serif;" transform="matrix(1 0 0 1 263 1586)">Large</text>
 </g>
 <g id="Guides">
  <g id="H-reference" style="fill:#27AAE1;stroke:none;" transform="matrix(1 0 0 1 339 696)">
   <path d="M 54.9316 0 L 57.666 0 L 30.5664 -70.459 L 28.0762 -70.459 L 0.976562 0 L 3.66211 0 L 12.9395 -24.4629 L 45.7031 -24.4629 Z M 29.1992 -67.0898 L 29.4434 -67.0898 L 44.8242 -26.709 L 13.8184 -26.709 Z"/>
  </g>
  <line id="Baseline-S" style="fill:none;stroke:#27AAE1;opacity:1;stroke-width:0.577;" x1="263" x2="3036" y1="696" y2="696"/>
  <line id="Capline-S" style="fill:none;stroke:#27AAE1;opacity:1;stroke-width:0.577;" x1="263" x2="3036" y1="625.541" y2="625.541"/>
  <g id="H-reference" style="fill:#27AAE1;stroke:none;" transform="matrix(1 0 0 1 339 1126)">
   <path d="M 54.9316 0 L 57.666 0 L 30.5664 -70.459 L 28.0762 -70.459 L 0.976562 0 L 3.66211 0 L 12.9395 -24.4629 L 45.7031 -24.4629 Z M 29.1992 -67.0898 L 29.4434 -67.0898 L 44.8242 -26.709 L 13.8184 -26.709 Z"/>
  </g>
  <line id="Baseline-M" style="fill:none;stroke:#27AAE1;opacity:1;stroke-width:0.577;" x1="263" x2="3036" y1="1126" y2="1126"/>
  <line id="Capline-M" style="fill:none;stroke:#27AAE1;opacity:1;stroke-width:0.577;" x1="263" x2="3036" y1="1055.54" y2="1055.54"/>
  <g id="H-reference" style="fill:#27AAE1;stroke:none;" transform="matrix(1 0 0 1 339 1556)">
   <path d="M 54.9316 0 L 57.666 0 L 30.5664 -70.459 L 28.0762 -70.459 L 0.976562 0 L 3.66211 0 L 12.9395 -24.4629 L 45.7031 -24.4629 Z M 29.1992 -67.0898 L 29.4434 -67.0898 L 44.8242 -26.709 L 13.8184 -26.709 Z"/>
  </g>
  <line id="Baseline-L" style="fill:none;stroke:#27AAE1;opacity:1;stroke-width:0.577;" x1="263" x2="3036" y1="1556" y2="1556"/>
  <line id="Capline-L" style="fill:none;stroke:#27AAE1;opacity:1;stroke-width:0.577;" x1="263" x2="3036" y1="1485.54" y2="1485.54"/>
  <rect height="119.336" id="left-margin" style="fill:#00AEEF;stroke:none;opacity:0.4;" width="8.74023" x="1391.32" y="1030.79"/>
  <rect height="119.336" id="right-margin" style="fill:#00AEEF;stroke:none;opacity:0.4;" width="8.69141" x="1499.67" y="1030.79"/>
 </g>
 <g id="Symbols">
  <g id="Ultralight-S" transform="matrix(1 0 0 1 515.644 696)">
   <path d="M 44.043 2.05078 C 64.502 2.05078 81.2988 -14.6973 81.2988 -35.1562 C 81.2988 -55.6152 64.502 -72.3633 44.043 -72.3633 C 23.584 -72.3633 6.83594 -55.6152 6.83594 -35.1562 C 6.83594 -14.6973 23.584 2.05078 44.043 2.05078 Z M 43.8477 -16.8945 C 37.5 -16.8945 32.4219 -20.2148 31.3965 -24.9023 C 31.2988 -25.4395 31.2012 -25.8301 31.2012 -26.1719 C 31.2012 -26.9531 31.6406 -27.3926 32.4219 -27.3926 C 33.0566 -27.3926 33.4961 -27.0508 33.6426 -26.2207 C 34.3262 -22.0703 38.7695 -19.1406 44.1895 -19.1406 C 49.7559 -19.1406 54.4922 -22.7539 54.4922 -26.8555 C 54.4922 -30.3223 52.2461 -32.1777 46.2402 -33.7402 L 40.6738 -35.2051 C 34.7656 -36.7188 32.2266 -39.2578 32.2266 -43.75 C 32.2266 -49.5117 37.1582 -53.5645 44.3359 -53.5645 C 50.4883 -53.5645 55.1758 -50.5371 56.1523 -45.9473 C 56.2988 -45.459 56.3477 -45.0684 56.3477 -44.6777 C 56.3477 -43.7988 55.9082 -43.4082 55.127 -43.4082 C 54.4434 -43.4082 54.1016 -43.7988 53.9062 -44.6289 C 53.1738 -48.6328 49.3652 -51.3184 44.2871 -51.3184 C 39.0625 -51.3184 34.668 -47.7539 34.668 -43.5547 C 34.668 -40.5273 36.6699 -38.7207 41.748 -37.4023 L 47.2168 -35.9375 C 54.248 -34.0332 56.9336 -31.543 56.9336 -27.0508 C 56.9336 -20.9473 51.7578 -16.8945 43.8477 -16.8945 Z"/>
  </g>
  <g id="Thin-S" transform="matrix(1 0 0 1 811.867 696)">
   <path d="M 44.5801 2.53906 C 65.2832 2.53906 82.2754 -14.4531 82.2754 -35.2051 C 82.2754 -55.9082 65.2344 -72.9004 44.5312 -72.9004 C 23.8281 -72.9004 6.83594 -55.9082 6.83594 -35.2051 C 6.83594 -14.4531 23.877 2.53906 44.5801 2.53906 Z M 44.2871 -16.5527 C 37.5977 -16.5527 32.5195 -19.9707 31.3477 -24.4629 C 31.2012 -25.0488 31.1035 -25.4883 31.1035 -25.9277 C 31.1035 -27.0508 31.7383 -27.6855 32.8125 -27.6855 C 33.6914 -27.6855 34.2285 -27.1973 34.5703 -26.1719 C 35.4492 -22.2656 39.502 -19.6777 44.6289 -19.6777 C 49.9512 -19.6777 54.3457 -22.8516 54.3457 -26.8555 C 54.3457 -30.1758 52.2461 -31.8359 46.5332 -33.3496 L 40.8203 -34.8633 C 34.7656 -36.4746 31.9824 -39.1602 31.9824 -43.8477 C 31.9824 -49.8535 37.207 -54.1016 44.7754 -54.1016 C 51.1719 -54.1016 55.957 -51.0254 57.0801 -46.4844 C 57.2266 -45.9473 57.3242 -45.459 57.3242 -45.0195 C 57.3242 -43.8477 56.6406 -43.3105 55.6641 -43.3105 C 54.6875 -43.3105 54.1992 -43.75 53.8574 -44.7754 C 52.9785 -48.6328 49.4629 -50.9766 44.6289 -50.9766 C 39.6484 -50.9766 35.6934 -47.8516 35.6934 -43.8477 C 35.6934 -40.918 37.5977 -39.209 42.334 -37.9395 L 47.8516 -36.4746 C 54.9805 -34.5703 58.0566 -31.9336 58.0566 -27.1484 C 58.0566 -20.752 52.5879 -16.5527 44.2871 -16.5527 Z"/>
  </g>
  <g id="Light-S" transform="matrix(1 0 0 1 1107.6 696)">
   <path d="M 45.5078 3.4668 C 66.6992 3.4668 84.2285 -14.0625 84.2285 -35.2051 C 84.2285 -56.3965 66.6504 -73.9258 45.5078 -73.9258 C 24.3164 -73.9258 6.83594 -56.3965 6.83594 -35.2051 C 6.83594 -14.0625 24.3652 3.4668 45.5078 3.4668 Z M 45.1172 -15.8691 C 37.7441 -15.8691 32.666 -19.4824 31.25 -23.584 C 31.0059 -24.3164 30.8594 -24.9512 30.8594 -25.5371 C 30.8594 -27.1973 31.9336 -28.1738 33.5449 -28.1738 C 34.9121 -28.1738 35.6934 -27.5391 36.377 -26.1719 C 37.6465 -22.6562 40.9668 -20.7031 45.5078 -20.7031 C 50.293 -20.7031 54.0527 -23.0469 54.0527 -26.8066 C 54.0527 -29.834 52.1973 -31.2012 47.0703 -32.6172 L 41.1133 -34.2773 C 34.7656 -36.0352 31.4941 -38.9648 31.4941 -44.043 C 31.4941 -50.5371 37.3047 -55.1758 45.5566 -55.1758 C 52.4902 -55.1758 57.4219 -52.002 58.8867 -47.5098 C 59.1309 -46.8262 59.2773 -46.1914 59.2773 -45.6543 C 59.2773 -43.9453 58.1543 -43.0664 56.5918 -43.0664 C 55.1758 -43.0664 54.3945 -43.75 53.8574 -45.0195 C 52.5391 -48.584 49.6582 -50.4395 45.3613 -50.4395 C 40.7715 -50.4395 37.6465 -47.998 37.6465 -44.3359 C 37.6465 -41.748 39.4043 -40.1367 43.5059 -39.0137 L 49.1211 -37.5488 C 56.4453 -35.5957 60.1562 -32.666 60.1562 -27.2949 C 60.1562 -20.3125 54.1992 -15.8691 45.1172 -15.8691 Z"/>
  </g>
  <g id="Regular-S" transform="matrix(1 0 0 1 1403.58 696)">
   <path d="M 46.2402 4.15039 C 67.7734 4.15039 85.6934 -13.7207 85.6934 -35.2539 C 85.6934 -56.7871 67.7246 -74.6582 46.1914 -74.6582 C 24.707 -74.6582 6.83594 -56.7871 6.83594 -35.2539 C 6.83594 -13.7207 24.7559 4.15039 46.2402 4.15039 Z M 45.8008 -15.332 C 37.8906 -15.332 32.8125 -19.1406 31.2012 -22.9004 C 30.8594 -23.7305 30.7129 -24.5117 30.7129 -25.1953 C 30.7129 -27.2949 32.0801 -28.5645 34.1309 -28.5645 C 35.8398 -28.5645 36.8164 -27.7832 37.6953 -26.123 C 39.3066 -22.9492 42.041 -21.4844 46.1914 -21.4844 C 50.5371 -21.4844 53.8086 -23.1934 53.8086 -26.8066 C 53.8086 -29.5898 52.1973 -30.7129 47.5098 -32.0801 L 41.3086 -33.8379 C 34.7656 -35.6934 31.1035 -38.8184 31.1035 -44.1895 C 31.1035 -51.0742 37.3535 -56.0059 46.1914 -56.0059 C 53.4668 -56.0059 58.5938 -52.6855 60.2539 -48.291 C 60.5469 -47.5098 60.7422 -46.7285 60.7422 -46.1426 C 60.7422 -43.9941 59.2773 -42.9199 57.3242 -42.9199 C 55.5664 -42.9199 54.541 -43.7012 53.8086 -45.2148 C 52.2461 -48.584 49.8047 -50 45.8984 -50 C 41.6504 -50 39.1602 -48.0957 39.1602 -44.7266 C 39.1602 -42.334 40.7227 -40.8203 44.4336 -39.8438 L 50.0977 -38.3789 C 57.5195 -36.377 61.7676 -33.2031 61.7676 -27.4414 C 61.7676 -20.0195 55.4688 -15.332 45.8008 -15.332 Z"/>
  </g>
  <g id="Medium-S" transform="matrix(1 0 0 1 1699.7 696)">
   <path d="M 46.8262 4.78516 C 68.75 4.78516 86.8652 -13.3301 86.8652 -35.2539 C 86.8652 -57.1289 68.7012 -75.2441 46.8262 -75.2441 C 24.9023 -75.2441 6.83594 -57.1289 6.83594 -35.2539 C 6.83594 -13.3301 24.9512 4.78516 46.8262 4.78516 Z M 46.2891 -15.6738 C 38.6719 -15.6738 33.5938 -19.0918 31.8848 -22.7051 C 31.4941 -23.5352 31.2988 -24.3652 31.2988 -25.1465 C 31.2988 -27.3438 32.8125 -28.7598 35.1074 -28.7598 C 36.7676 -28.7598 37.8418 -28.0762 38.8672 -26.6113 C 40.7227 -23.8281 43.1152 -22.6074 46.7773 -22.6074 C 50.6348 -22.6074 53.4668 -24.0723 53.4668 -27.0996 C 53.4668 -29.541 52.002 -30.4688 47.3633 -31.6895 L 41.8945 -33.1055 C 35.2051 -34.7656 31.4453 -37.9883 31.4453 -43.5059 C 31.4453 -50.4883 37.6953 -55.4199 46.7285 -55.4199 C 53.6621 -55.4199 58.8379 -52.3926 60.6445 -48.2422 C 60.9863 -47.4121 61.2305 -46.582 61.2305 -45.8496 C 61.2305 -43.6035 59.668 -42.4316 57.5195 -42.4316 C 55.7129 -42.4316 54.6875 -43.1641 53.6133 -44.6289 C 51.9531 -47.5098 49.8535 -48.6328 46.4844 -48.6328 C 42.7734 -48.6328 40.625 -47.0215 40.625 -44.1895 C 40.625 -42.0898 42.0898 -40.8203 45.8496 -39.9414 L 51.123 -38.7207 C 58.3984 -36.9629 62.5 -33.6914 62.5 -27.8809 C 62.5 -20.4102 56.1035 -15.6738 46.2891 -15.6738 Z"/>
  </g>
  <g id="Semibold-S" transform="matrix(1 0 0 1 1995.98 696)">
   <path d="M 47.3145 5.22461 C 69.4824 5.22461 87.7441 -13.0371 87.7441 -35.2539 C 87.7441 -57.4219 69.4336 -75.6836 47.2656 -75.6836 C 25.0977 -75.6836 6.83594 -57.4219 6.83594 -35.2539 C 6.83594 -13.0371 25.0977 5.22461 47.3145 5.22461 Z M 46.6797 -15.9668 C 39.2578 -15.9668 34.1797 -18.9941 32.4219 -22.5098 C 31.9824 -23.3398 31.7383 -24.2188 31.7383 -25.0977 C 31.7383 -27.4414 33.3984 -28.9551 35.8398 -28.9551 C 37.5 -28.9551 38.623 -28.3203 39.7949 -26.9531 C 41.8457 -24.5117 43.9941 -23.4375 47.2656 -23.4375 C 50.7324 -23.4375 53.1738 -24.7559 53.1738 -27.3438 C 53.1738 -29.4922 51.9043 -30.3223 47.3145 -31.3477 L 42.334 -32.5684 C 35.498 -34.082 31.7383 -37.4023 31.7383 -43.0176 C 31.7383 -50.0977 37.9395 -54.9316 47.1191 -54.9316 C 53.8086 -54.9316 59.0332 -52.1484 60.8887 -48.2422 C 61.3281 -47.3633 61.5723 -46.4844 61.5723 -45.6543 C 61.5723 -43.3594 59.9609 -42.0898 57.666 -42.0898 C 55.8105 -42.0898 54.7852 -42.7246 53.4668 -44.1895 C 51.7578 -46.6309 49.9023 -47.6562 46.9238 -47.6562 C 43.7012 -47.6562 41.748 -46.2402 41.748 -43.7988 C 41.748 -41.8945 43.1152 -40.8203 46.9238 -40.0391 L 51.9043 -38.9648 C 59.082 -37.4512 63.0859 -34.082 63.0859 -28.2227 C 63.0859 -20.752 56.6406 -15.9668 46.6797 -15.9668 Z"/>
  </g>
  <g id="Bold-S" transform="matrix(1 0 0 1 2292.1 696)">
   <path d="M 47.9004 5.81055 C 70.4102 5.81055 88.916 -12.6465 88.916 -35.2051 C 88.916 -57.7637 70.4102 -76.2695 47.8516 -76.2695 C 25.293 -76.2695 6.83594 -57.7637 6.83594 -35.2051 C 6.83594 -12.6465 25.3418 5.81055 47.9004 5.81055 Z M 47.168 -16.3574 C 40.0879 -16.3574 34.9609 -18.9453 33.1055 -22.3145 C 32.6172 -23.1445 32.373 -24.0723 32.373 -25 C 32.373 -27.4902 34.1797 -29.1504 36.8164 -29.1504 C 38.4277 -29.1504 39.6484 -28.6133 41.0156 -27.4414 C 43.2617 -25.3906 45.0684 -24.5605 47.8516 -24.5605 C 50.8301 -24.5605 52.832 -25.6348 52.832 -27.6367 C 52.832 -29.4434 51.709 -30.0781 47.2168 -30.957 L 42.9199 -31.8359 C 35.9375 -33.1055 32.0801 -36.6211 32.0801 -42.334 C 32.0801 -49.5117 38.2812 -54.3457 47.6562 -54.3457 C 54.0039 -54.3457 59.3262 -51.8066 61.2793 -48.1934 C 61.7676 -47.2656 62.0605 -46.2891 62.0605 -45.3613 C 62.0605 -42.9688 60.3516 -41.6016 57.8613 -41.6016 C 55.957 -41.6016 54.8828 -42.1387 53.2715 -43.5547 C 51.4648 -45.5078 49.9512 -46.2891 47.5586 -46.2891 C 44.8242 -46.2891 43.2129 -45.166 43.2129 -43.2617 C 43.2129 -41.6504 44.4824 -40.8203 48.3887 -40.1367 L 52.9785 -39.3066 C 60.0098 -38.0371 63.8184 -34.5703 63.8184 -28.6621 C 63.8184 -21.1426 57.3242 -16.3574 47.168 -16.3574 Z"/>
  </g>
  <g id="Heavy-S" transform="matrix(1 0 0 1 2587.96 696)">
   <path d="M 48.7305 6.68945 C 71.8262 6.68945 90.625 -12.1094 90.625 -35.2051 C 90.625 -58.3008 71.8262 -77.0996 48.7305 -77.0996 C 25.6348 -77.0996 6.83594 -58.3008 6.83594 -35.2051 C 6.83594 -12.1094 25.6348 6.68945 48.7305 6.68945 Z M 47.9004 -16.8945 C 41.2109 -16.8945 36.084 -18.7988 34.1309 -21.9727 C 33.5449 -22.8516 33.252 -23.877 33.252 -24.9023 C 33.252 -27.6367 35.3027 -29.4922 38.2324 -29.4922 C 39.7949 -29.4922 41.1621 -29.0527 42.7246 -28.125 C 45.3613 -26.6602 46.6797 -26.1719 48.7305 -26.1719 C 50.9766 -26.1719 52.3438 -26.9043 52.3438 -28.0762 C 52.3438 -29.3457 51.416 -29.7852 47.0703 -30.3223 L 43.75 -30.8105 C 36.5723 -31.7383 32.6172 -35.4492 32.6172 -41.3086 C 32.6172 -48.6816 38.7695 -53.4668 48.3887 -53.4668 C 54.2969 -53.4668 59.7168 -51.3184 61.8164 -48.0957 C 62.4512 -47.168 62.793 -46.0938 62.793 -44.9219 C 62.793 -42.4805 60.9375 -40.918 58.1055 -40.918 C 56.1523 -40.918 55.0781 -41.3086 52.9297 -42.6758 C 51.0742 -43.8965 50 -44.3359 48.3887 -44.3359 C 46.5332 -44.3359 45.4102 -43.6523 45.4102 -42.5293 C 45.4102 -41.2598 46.4844 -40.7715 50.4395 -40.2832 L 54.4922 -39.7949 C 61.2793 -38.916 64.8926 -35.3516 64.8926 -29.3457 C 64.8926 -21.7285 58.3008 -16.8945 47.9004 -16.8945 Z"/>
  </g>
  <g id="Black-S" transform="matrix(1 0 0 1 2883.89 696)">
   <path d="M 49.5117 7.4707 C 73.0957 7.4707 92.1875 -11.6211 92.1875 -35.2051 C 92.1875 -58.7891 73.0957 -77.8809 49.5117 -77.8809 C 25.9277 -77.8809 6.83594 -58.7891 6.83594 -35.2051 C 6.83594 -11.6211 25.9277 7.4707 49.5117 7.4707 Z M 48.584 -17.334 C 42.2363 -17.334 37.1094 -18.7012 35.0098 -21.6797 C 34.375 -22.5586 34.0332 -23.6816 34.0332 -24.8535 C 34.0332 -27.7344 36.3281 -29.7852 39.5508 -29.7852 C 41.0645 -29.7852 42.4805 -29.4434 44.2871 -28.7598 C 47.2168 -27.7832 48.0957 -27.6367 49.5117 -27.6367 C 51.0742 -27.6367 51.9043 -28.0273 51.9043 -28.5156 C 51.9043 -29.2969 51.2207 -29.4922 46.9238 -29.7852 L 44.4824 -29.8828 C 37.1582 -30.5176 33.0566 -34.4238 33.0566 -40.4297 C 33.0566 -47.9492 39.209 -52.6367 49.1211 -52.6367 C 54.541 -52.6367 60.0586 -50.8789 62.3047 -48.0469 C 63.0371 -47.0703 63.4277 -45.8984 63.4277 -44.5801 C 63.4277 -41.9922 61.4746 -40.332 58.3496 -40.332 C 56.3477 -40.332 55.2246 -40.5762 52.6855 -41.8945 C 50.6836 -42.4805 50.0488 -42.627 49.1699 -42.627 C 48.0469 -42.627 47.3145 -42.2852 47.3145 -41.8457 C 47.3145 -40.918 48.291 -40.7715 52.2949 -40.4297 L 55.8594 -40.2344 C 62.4512 -39.6973 65.8691 -35.9863 65.8691 -29.9316 C 65.8691 -22.2656 59.1797 -17.334 48.584 -17.334 Z"/>
  </g>
  <g id="Ultralight-M" transform="matrix(1 0 0 1 503.656 1126)">
   <path d="M 56.0547 12.207 C 82.0801 12.207 103.369 -9.08203 103.369 -35.1562 C 103.369 -61.1816 82.0801 -82.4707 56.0547 -82.4707 C 30.0293 -82.4707 8.74023 -61.1816 8.74023 -35.1562 C 8.74023 -9.08203 30.0293 12.207 56.0547 12.207 Z M 55.8105 -11.9629 C 47.8516 -11.9629 41.3574 -16.1621 40.0879 -22.2168 C 39.9414 -22.9004 39.8926 -23.3398 39.8926 -23.7305 C 39.8926 -24.6582 40.3809 -25.1465 41.2109 -25.1465 C 41.9434 -25.1465 42.4316 -24.707 42.627 -23.7305 C 43.4082 -18.3594 49.1699 -14.502 56.25 -14.502 C 63.4277 -14.502 69.6289 -19.2383 69.6289 -24.5605 C 69.6289 -29.0527 66.6992 -31.4941 58.9355 -33.4961 L 51.8555 -35.3027 C 44.3848 -37.207 41.2109 -40.4297 41.2109 -46.0449 C 41.2109 -53.3203 47.4121 -58.3984 56.4453 -58.3984 C 64.209 -58.3984 70.1172 -54.5898 71.3379 -48.6816 C 71.4355 -48.0957 71.5332 -47.6074 71.5332 -47.1191 C 71.5332 -46.1426 71.0449 -45.752 70.2148 -45.752 C 69.3848 -45.752 68.9941 -46.1914 68.7988 -47.168 C 67.9688 -52.3438 62.9395 -55.8594 56.3477 -55.8594 C 49.6094 -55.8594 43.8477 -51.2207 43.8477 -45.752 C 43.8477 -41.8457 46.4844 -39.502 53.0273 -37.7441 L 60.0098 -35.8887 C 68.9453 -33.4473 72.2656 -30.3711 72.2656 -24.8047 C 72.2656 -17.0898 65.7227 -11.9629 55.8105 -11.9629 Z"/>
  </g>
  <g id="Thin-M" transform="matrix(1 0 0 1 799.806 1126)">
   <path d="M 56.5918 12.7441 C 82.9102 12.7441 104.492 -8.83789 104.492 -35.1562 C 104.492 -61.4746 82.9102 -83.0566 56.5918 -83.0566 C 30.3223 -83.0566 8.74023 -61.4746 8.74023 -35.1562 C 8.74023 -8.83789 30.3223 12.7441 56.5918 12.7441 Z M 56.2988 -11.5723 C 47.9492 -11.5723 41.4551 -15.8691 40.0391 -21.7285 C 39.8438 -22.4609 39.7461 -22.998 39.7461 -23.4863 C 39.7461 -24.7559 40.4785 -25.4395 41.6504 -25.4395 C 42.6758 -25.4395 43.3105 -24.9023 43.6523 -23.7305 C 44.6777 -18.5547 50 -15.1367 56.7383 -15.1367 C 63.623 -15.1367 69.4336 -19.3359 69.4336 -24.5117 C 69.4336 -28.8574 66.6992 -31.1035 59.2285 -33.0566 L 52.002 -34.9609 C 44.3848 -36.9629 40.918 -40.332 40.918 -46.1426 C 40.918 -53.7109 47.4609 -59.0332 56.8848 -59.0332 C 64.9414 -59.0332 70.9961 -55.127 72.3633 -49.2676 C 72.5586 -48.6328 72.6562 -48.0469 72.6562 -47.5098 C 72.6562 -46.1914 71.9238 -45.6055 70.752 -45.6055 C 69.6777 -45.6055 69.0918 -46.1426 68.7988 -47.3145 C 67.7246 -52.3438 63.0371 -55.5176 56.7871 -55.5176 C 50.293 -55.5176 44.9707 -51.2695 44.9707 -46.0449 C 44.9707 -42.2852 47.5098 -40.0391 53.7109 -38.3789 L 60.7422 -36.5234 C 69.7754 -34.082 73.4863 -30.8105 73.4863 -24.8535 C 73.4863 -16.8457 66.6992 -11.5723 56.2988 -11.5723 Z"/>
  </g>
  <g id="Light-M" transform="matrix(1 0 0 1 1095.42 1126)">
   <path d="M 57.7148 13.7695 C 84.5215 13.7695 106.689 -8.39844 106.689 -35.2051 C 106.689 -62.0117 84.4727 -84.1797 57.666 -84.1797 C 30.8594 -84.1797 8.74023 -62.0117 8.74023 -35.2051 C 8.74023 -8.39844 30.8594 13.7695 57.7148 13.7695 Z M 57.2754 -10.791 C 48.1445 -10.791 41.6504 -15.332 39.9414 -20.7031 C 39.6484 -21.582 39.502 -22.3145 39.502 -22.998 C 39.502 -24.9023 40.6738 -26.0254 42.5293 -26.0254 C 44.043 -26.0254 44.9707 -25.293 45.6543 -23.6816 C 47.168 -18.9941 51.6602 -16.2598 57.7148 -16.2598 C 64.0137 -16.2598 69.0918 -19.5801 69.0918 -24.5117 C 69.0918 -28.4668 66.6504 -30.3711 59.8633 -32.2266 L 52.3438 -34.2773 C 44.3848 -36.4746 40.3809 -40.0879 40.3809 -46.3867 C 40.3809 -54.4922 47.5586 -60.2539 57.8125 -60.2539 C 66.4551 -60.2539 72.7051 -56.2012 74.4141 -50.4395 C 74.6582 -49.6582 74.8535 -48.877 74.8535 -48.2422 C 74.8535 -46.2891 73.584 -45.3613 71.875 -45.3613 C 70.2148 -45.3613 69.3359 -46.0938 68.75 -47.6074 C 67.2363 -52.2949 63.2812 -54.8828 57.6172 -54.8828 C 51.5625 -54.8828 47.2168 -51.4648 47.2168 -46.6309 C 47.2168 -43.1641 49.5117 -41.1133 55.0781 -39.5996 L 62.1582 -37.7441 C 71.3867 -35.2539 75.9277 -31.6406 75.9277 -25.0488 C 75.9277 -16.4062 68.5059 -10.791 57.2754 -10.791 Z"/>
  </g>
  <g id="Regular-M" transform="matrix(1 0 0 1 1391.32 1126)">
   <path d="M 58.5449 14.5508 C 85.7422 14.5508 108.35 -8.00781 108.35 -35.2539 C 108.35 -62.4512 85.6934 -85.0586 58.4961 -85.0586 C 31.25 -85.0586 8.74023 -62.4512 8.74023 -35.2539 C 8.74023 -8.00781 31.2988 14.5508 58.5449 14.5508 Z M 58.0078 -10.2051 C 48.2422 -10.2051 41.7969 -14.9414 39.8926 -19.9707 C 39.502 -20.9473 39.3066 -21.8262 39.3066 -22.6562 C 39.3066 -25 40.8203 -26.416 43.1641 -26.416 C 45.0684 -26.416 46.1914 -25.5371 47.168 -23.6328 C 49.0234 -19.3359 52.8809 -17.1387 58.4961 -17.1387 C 64.3066 -17.1387 68.8477 -19.7754 68.8477 -24.5117 C 68.8477 -28.2227 66.6504 -29.7852 60.3027 -31.5918 L 52.5879 -33.7402 C 44.3848 -36.084 39.9902 -39.8926 39.9902 -46.582 C 39.9902 -55.0781 47.6074 -61.1816 58.4961 -61.1816 C 67.5781 -61.1816 73.9746 -57.0312 75.9766 -51.3672 C 76.2695 -50.3906 76.5137 -49.5117 76.5137 -48.8281 C 76.5137 -46.3867 74.8535 -45.166 72.6562 -45.166 C 70.6543 -45.166 69.5312 -46.0938 68.7012 -47.8516 C 66.8945 -52.2949 63.4766 -54.3457 58.2031 -54.3457 C 52.5391 -54.3457 48.9258 -51.5625 48.9258 -47.0703 C 48.9258 -43.8477 51.0254 -41.8945 56.0547 -40.5273 L 63.2324 -38.6719 C 72.6562 -36.1328 77.7344 -32.2754 77.7344 -25.1953 C 77.7344 -16.0156 69.9219 -10.2051 58.0078 -10.2051 Z"/>
  </g>
  <g id="Medium-M" transform="matrix(1 0 0 1 1687.33 1126)">
   <path d="M 59.2285 15.2832 C 86.8652 15.2832 109.717 -7.56836 109.717 -35.2051 C 109.717 -62.8906 86.8164 -85.7422 59.1797 -85.7422 C 31.543 -85.7422 8.74023 -62.8906 8.74023 -35.2051 C 8.74023 -7.56836 31.5918 15.2832 59.2285 15.2832 Z M 58.5938 -10.498 C 49.0723 -10.498 42.5781 -14.8438 40.5762 -19.6777 C 40.1367 -20.6543 39.8926 -21.6309 39.8926 -22.5586 C 39.8926 -25.0977 41.6504 -26.709 44.2383 -26.709 C 46.1426 -26.709 47.4121 -25.8789 48.584 -24.1211 C 50.6836 -20.2637 54.1504 -18.4082 59.1797 -18.4082 C 64.4531 -18.4082 68.457 -20.7031 68.457 -24.8047 C 68.457 -28.125 66.4551 -29.4922 60.3027 -31.1035 L 53.1738 -32.959 C 44.8242 -35.0586 40.2832 -39.0625 40.2832 -45.8984 C 40.2832 -54.5898 47.998 -60.6934 59.1309 -60.6934 C 67.9199 -60.6934 74.4141 -56.7871 76.5137 -51.416 C 76.9531 -50.4395 77.1973 -49.4141 77.1973 -48.584 C 77.1973 -45.9961 75.4395 -44.6289 72.9492 -44.6289 C 70.8496 -44.6289 69.6777 -45.5078 68.5059 -47.2656 C 66.6016 -51.1719 63.5254 -52.9297 58.8867 -52.9297 C 53.8574 -52.9297 50.6348 -50.4883 50.6348 -46.582 C 50.6348 -43.7012 52.6367 -41.9922 57.666 -40.7715 L 64.4531 -39.1113 C 73.7305 -36.8652 78.7109 -32.8613 78.7109 -25.6836 C 78.7109 -16.4062 70.752 -10.498 58.5938 -10.498 Z"/>
  </g>
  <g id="Semibold-M" transform="matrix(1 0 0 1 1983.5 1126)">
   <path d="M 59.7656 15.8203 C 87.7441 15.8203 110.791 -7.22656 110.791 -35.2051 C 110.791 -63.1836 87.6953 -86.2793 59.7168 -86.2793 C 31.7383 -86.2793 8.74023 -63.1836 8.74023 -35.2051 C 8.74023 -7.22656 31.7871 15.8203 59.7656 15.8203 Z M 59.0332 -10.7422 C 49.707 -10.7422 43.2129 -14.7461 41.1133 -19.4336 C 40.625 -20.459 40.332 -21.4355 40.332 -22.4609 C 40.332 -25.1953 42.2363 -26.9531 45.0684 -26.9531 C 46.9727 -26.9531 48.3398 -26.1719 49.6582 -24.4629 C 52.002 -20.9961 55.127 -19.3359 59.7168 -19.3359 C 64.5508 -19.3359 68.1641 -21.3867 68.1641 -25.0488 C 68.1641 -28.0273 66.3086 -29.2969 60.2539 -30.7129 L 53.6621 -32.373 C 45.166 -34.3262 40.5273 -38.4277 40.5273 -45.4102 C 40.5273 -54.1992 48.2422 -60.3027 59.6191 -60.3027 C 68.1641 -60.3027 74.707 -56.5918 76.9531 -51.4648 C 77.4414 -50.4395 77.7344 -49.3652 77.7344 -48.4375 C 77.7344 -45.752 75.8301 -44.2383 73.1934 -44.2383 C 70.9961 -44.2383 69.7754 -45.0684 68.3105 -46.8262 C 66.3086 -50.293 63.5742 -51.8555 59.4238 -51.8555 C 54.834 -51.8555 51.9531 -49.707 51.9531 -46.2402 C 51.9531 -43.5547 53.8086 -42.041 58.8379 -40.918 L 65.3809 -39.4531 C 74.5117 -37.4023 79.4434 -33.3008 79.4434 -26.0254 C 79.4434 -16.6992 71.4355 -10.7422 59.0332 -10.7422 Z"/>
  </g>
  <g id="Bold-M" transform="matrix(1 0 0 1 2279.5 1126)">
   <path d="M 60.4492 16.5039 C 88.8672 16.5039 112.207 -6.78711 112.207 -35.2051 C 112.207 -63.623 88.8672 -86.9629 60.4492 -86.9629 C 32.0312 -86.9629 8.74023 -63.623 8.74023 -35.2051 C 8.74023 -6.78711 32.0801 16.5039 60.4492 16.5039 Z M 59.668 -11.0352 C 50.5371 -11.0352 44.043 -14.5996 41.7969 -19.0918 C 41.2598 -20.166 40.9668 -21.2402 40.9668 -22.3633 C 40.9668 -25.293 43.0664 -27.1973 46.1426 -27.1973 C 48.0957 -27.1973 49.5605 -26.5137 51.0742 -24.9512 C 53.6621 -21.9238 56.3965 -20.5566 60.4492 -20.5566 C 64.6973 -20.5566 67.7734 -22.3145 67.7734 -25.3418 C 67.7734 -27.9785 66.1133 -29.0039 60.2051 -30.2246 L 54.2969 -31.543 C 45.6055 -33.3008 40.8203 -37.5977 40.8203 -44.7266 C 40.8203 -53.6621 48.6328 -59.7656 60.2539 -59.7656 C 68.457 -59.7656 75.1465 -56.3965 77.5391 -51.5137 C 78.0762 -50.4395 78.418 -49.3164 78.418 -48.1934 C 78.418 -45.3613 76.416 -43.75 73.4863 -43.75 C 71.1914 -43.75 69.9219 -44.4824 68.1152 -46.2402 C 66.0156 -49.1699 63.6719 -50.4395 60.1074 -50.4395 C 56.1523 -50.4395 53.6621 -48.6328 53.6621 -45.752 C 53.6621 -43.3594 55.4199 -42.1387 60.4492 -41.1621 L 66.5527 -39.9414 C 75.5859 -38.1348 80.4199 -33.8867 80.4199 -26.5137 C 80.4199 -17.0898 72.2656 -11.0352 59.668 -11.0352 Z"/>
  </g>
  <g id="Heavy-M" transform="matrix(1 0 0 1 2575.19 1126)">
   <path d="M 61.4746 17.5781 C 90.5273 17.5781 114.258 -6.15234 114.258 -35.2051 C 114.258 -64.2578 90.5273 -87.9883 61.4746 -87.9883 C 32.4219 -87.9883 8.74023 -64.2578 8.74023 -35.2051 C 8.74023 -6.15234 32.4707 17.5781 61.4746 17.5781 Z M 60.5469 -11.4746 C 51.7578 -11.4746 45.2148 -14.4043 42.8223 -18.6523 C 42.1387 -19.7266 41.7969 -20.9473 41.7969 -22.168 C 41.7969 -25.4395 44.2383 -27.6367 47.7051 -27.6367 C 49.707 -27.6367 51.2695 -27.002 53.125 -25.6836 C 56.1523 -23.291 58.252 -22.3633 61.4746 -22.3633 C 64.8926 -22.3633 67.1875 -23.6328 67.1875 -25.7812 C 67.1875 -27.832 65.8691 -28.5645 60.1074 -29.4922 L 55.1758 -30.4199 C 46.2402 -31.8359 41.2598 -36.377 41.2598 -43.7012 C 41.2598 -52.9297 49.1211 -59.0332 61.1328 -59.0332 C 68.9453 -59.0332 75.7812 -56.0059 78.3203 -51.6113 C 79.0527 -50.4395 79.4434 -49.1699 79.4434 -47.8516 C 79.4434 -44.8242 77.2461 -43.0176 73.877 -43.0176 C 71.4844 -43.0176 70.1172 -43.6035 67.8223 -45.3613 C 65.5273 -47.5098 63.7207 -48.3398 61.084 -48.3398 C 58.0566 -48.3398 56.1523 -47.0703 56.1523 -45.0195 C 56.1523 -43.1152 57.7148 -42.2363 62.7441 -41.4551 L 68.3105 -40.5762 C 77.1484 -39.209 81.8359 -34.7656 81.8359 -27.1973 C 81.8359 -17.627 73.5352 -11.4746 60.5469 -11.4746 Z"/>
  </g>
  <g id="Black-M" transform="matrix(1 0 0 1 2871 1126)">
   <path d="M 62.4023 18.457 C 91.9922 18.457 116.064 -5.61523 116.064 -35.2051 C 116.064 -64.7949 91.9922 -88.8672 62.4023 -88.8672 C 32.8125 -88.8672 8.74023 -64.7949 8.74023 -35.2051 C 8.74023 -5.61523 32.8125 18.457 62.4023 18.457 Z M 61.3281 -11.8652 C 52.832 -11.8652 46.2891 -14.2578 43.7012 -18.2129 C 42.9688 -19.3359 42.5781 -20.6543 42.5781 -22.0215 C 42.5781 -25.5371 45.3125 -27.9785 49.1211 -27.9785 C 51.123 -27.9785 52.8809 -27.4414 54.9316 -26.2695 C 58.3496 -24.5117 59.9121 -24.0234 62.4023 -24.0234 C 65.0879 -24.0234 66.6992 -24.8535 66.6992 -26.2207 C 66.6992 -27.7344 65.625 -28.1738 60.0586 -28.8574 L 55.957 -29.3457 C 46.7773 -30.5176 41.6992 -35.3027 41.6992 -42.8223 C 41.6992 -52.2461 49.6094 -58.3496 61.9629 -58.3496 C 69.3848 -58.3496 76.3184 -55.7129 79.0527 -51.709 C 79.8828 -50.4395 80.3223 -49.0723 80.3223 -47.5586 C 80.3223 -44.3848 77.9297 -42.3828 74.2676 -42.3828 C 71.7773 -42.3828 70.3125 -42.8711 67.5293 -44.5801 C 65.0879 -45.9961 63.8184 -46.4844 61.9629 -46.4844 C 59.7168 -46.4844 58.3984 -45.7031 58.3984 -44.4336 C 58.3984 -42.8711 59.7656 -42.3828 64.7949 -41.748 L 69.873 -41.1621 C 78.5156 -40.1367 83.1055 -35.498 83.1055 -27.832 C 83.1055 -18.1152 74.6094 -11.8652 61.3281 -11.8652 Z"/>
  </g>
  <g id="Ultralight-L" transform="matrix(1 0 0 1 487.641 1556)">
   <path d="M 72.0703 25.7324 C 105.566 25.7324 132.91 -1.61133 132.91 -35.1074 C 132.91 -68.5547 105.566 -95.8984 72.0703 -95.8984 C 38.623 -95.8984 11.2793 -68.5547 11.2793 -35.1074 C 11.2793 -1.61133 38.623 25.7324 72.0703 25.7324 Z M 71.7773 -5.41992 C 61.7188 -5.41992 53.3691 -10.7422 51.7578 -18.6523 C 51.6113 -19.4824 51.5625 -20.0195 51.5625 -20.5078 C 51.5625 -21.5332 52.0508 -22.0703 52.9785 -22.0703 C 53.8086 -22.0703 54.3945 -21.582 54.541 -20.4102 C 55.4688 -13.3789 63.0859 -8.25195 72.3633 -8.25195 C 81.7383 -8.25195 89.9414 -14.5508 89.9414 -21.4355 C 89.9414 -27.3438 86.0352 -30.5664 75.9277 -33.1543 L 66.7969 -35.4492 C 57.2754 -37.8906 53.3203 -41.9922 53.3203 -49.1211 C 53.3203 -58.3496 61.1816 -64.8438 72.6074 -64.8438 C 82.5195 -64.8438 90.0879 -59.9609 91.6016 -52.2949 C 91.748 -51.6602 91.7969 -51.0254 91.7969 -50.4395 C 91.7969 -49.3164 91.3086 -48.877 90.332 -48.877 C 89.4531 -48.877 88.9648 -49.3652 88.8184 -50.5371 C 87.793 -57.3242 81.1523 -62.0117 72.5586 -62.0117 C 63.7207 -62.0117 56.1035 -55.8105 56.1035 -48.6816 C 56.1035 -43.5547 59.5215 -40.5273 68.1641 -38.2324 L 77.1484 -35.8398 C 88.5742 -32.7148 92.7246 -28.7598 92.7246 -21.7285 C 92.7246 -11.9141 84.4238 -5.41992 71.7773 -5.41992 Z"/>
  </g>
  <g id="Thin-L" transform="matrix(1 0 0 1 783.717 1556)">
   <path d="M 72.7051 26.3184 C 106.494 26.3184 134.131 -1.36719 134.131 -35.1074 C 134.131 -68.8965 106.445 -96.582 72.7051 -96.582 C 38.916 -96.582 11.2793 -68.8965 11.2793 -35.1074 C 11.2793 -1.36719 38.916 26.3184 72.7051 26.3184 Z M 72.3633 -4.98047 C 61.8164 -4.98047 53.4668 -10.4492 51.6602 -18.0664 C 51.5137 -18.9941 51.3672 -19.6289 51.3672 -20.2637 C 51.3672 -21.6309 52.1484 -22.4121 53.4668 -22.4121 C 54.5898 -22.4121 55.3223 -21.7773 55.6641 -20.3613 C 56.8848 -13.623 64.0137 -8.93555 72.9004 -8.93555 C 81.9824 -8.93555 89.7461 -14.6973 89.7461 -21.4355 C 89.7461 -27.0996 86.0352 -30.127 76.2695 -32.7148 L 66.9922 -35.0586 C 57.2754 -37.5977 52.9785 -41.8945 52.9785 -49.2676 C 52.9785 -58.8379 61.2305 -65.5273 73.1445 -65.5273 C 83.3496 -65.5273 91.0645 -60.5957 92.7734 -52.9785 C 92.9688 -52.1973 93.0664 -51.5137 93.0664 -50.8301 C 93.0664 -49.3652 92.2363 -48.6816 90.9668 -48.6816 C 89.7461 -48.6816 89.1113 -49.3164 88.7695 -50.7324 C 87.5 -57.2754 81.2988 -61.6211 72.998 -61.6211 C 64.4531 -61.6211 57.373 -55.9082 57.373 -49.0234 C 57.373 -44.043 60.6934 -41.1133 68.8965 -38.916 L 77.9297 -36.5234 C 89.502 -33.3496 94.0918 -29.248 94.0918 -21.8262 C 94.0918 -11.6699 85.4492 -4.98047 72.3633 -4.98047 Z"/>
  </g>
  <g id="Light-L" transform="matrix(1 0 0 1 1079.21 1556)">
   <path d="M 73.9258 27.4902 C 108.301 27.4902 136.572 -0.830078 136.572 -35.1562 C 136.572 -69.5312 108.252 -97.8516 73.877 -97.8516 C 39.5508 -97.8516 11.2793 -69.5312 11.2793 -35.1562 C 11.2793 -0.830078 39.5508 27.4902 73.9258 27.4902 Z M 73.4375 -4.10156 C 62.0117 -4.10156 53.6621 -9.81445 51.5625 -16.9922 C 51.2695 -18.0664 51.0742 -18.8965 51.0742 -19.7266 C 51.0742 -21.8262 52.3926 -23.0469 54.4434 -23.0469 C 56.1523 -23.0469 57.1777 -22.2168 57.9102 -20.3125 C 59.6191 -14.1113 65.8691 -10.2051 74.0234 -10.2051 C 82.4219 -10.2051 89.3555 -14.9414 89.3555 -21.3867 C 89.3555 -26.709 86.0352 -29.2969 76.9531 -31.7383 L 67.3828 -34.3262 C 57.2754 -37.0605 52.3926 -41.6016 52.3926 -49.5117 C 52.3926 -59.7168 61.3281 -66.8945 74.1699 -66.8945 C 85.0098 -66.8945 92.9688 -61.8164 95.0195 -54.2969 C 95.3125 -53.3203 95.5078 -52.4414 95.5078 -51.6602 C 95.5078 -49.4629 94.1406 -48.3887 92.1875 -48.3887 C 90.3809 -48.3887 89.3555 -49.2676 88.7207 -51.0742 C 87.0117 -57.2754 81.543 -60.8887 73.9258 -60.8887 C 65.918 -60.8887 59.8633 -56.0547 59.8633 -49.6582 C 59.8633 -45.0684 62.9395 -42.2852 70.4102 -40.2832 L 79.541 -37.8906 C 91.3574 -34.668 96.7773 -30.1758 96.7773 -22.0215 C 96.7773 -11.1328 87.5 -4.10156 73.4375 -4.10156 Z"/>
  </g>
  <g id="Regular-L" transform="matrix(1 0 0 1 1374.99 1556)">
   <path d="M 74.8535 28.3691 C 109.668 28.3691 138.428 -0.390625 138.428 -35.2051 C 138.428 -70.0195 109.619 -98.7793 74.8047 -98.7793 C 39.9902 -98.7793 11.2793 -70.0195 11.2793 -35.2051 C 11.2793 -0.390625 40.0391 28.3691 74.8535 28.3691 Z M 74.2188 -3.41797 C 62.1582 -3.41797 53.8086 -9.375 51.5137 -16.1621 C 51.123 -17.334 50.8789 -18.3594 50.8789 -19.2871 C 50.8789 -21.9238 52.5391 -23.5352 55.1758 -23.5352 C 57.3242 -23.5352 58.5938 -22.5098 59.6191 -20.3125 C 61.7188 -14.4531 67.2363 -11.1816 74.8535 -11.1816 C 82.7637 -11.1816 89.0625 -15.1367 89.0625 -21.3867 C 89.0625 -26.3672 85.9863 -28.6621 77.4414 -31.0547 L 67.627 -33.7402 C 57.2754 -36.6211 51.9043 -41.4062 51.9043 -49.707 C 51.9043 -60.3516 61.377 -67.9688 74.9512 -67.9688 C 86.2793 -67.9688 94.3848 -62.6953 96.7773 -55.3223 C 97.1191 -54.1992 97.3633 -53.1738 97.3633 -52.2949 C 97.3633 -49.5605 95.5566 -48.1934 93.1152 -48.1934 C 90.8203 -48.1934 89.5508 -49.2676 88.6719 -51.3184 C 86.6211 -57.2754 81.7871 -60.3027 74.6094 -60.3027 C 66.9922 -60.3027 61.7188 -56.2012 61.7188 -50.1465 C 61.7188 -45.8008 64.5996 -43.2129 71.5332 -41.3574 L 80.7129 -38.916 C 92.7246 -35.6934 98.7793 -30.8594 98.7793 -22.168 C 98.7793 -10.7422 89.0625 -3.41797 74.2188 -3.41797 Z"/>
  </g>
  <g id="Medium-L" transform="matrix(1 0 0 1 1670.9 1556)">
   <path d="M 75.6348 29.1992 C 110.938 29.1992 140.039 0.0488281 140.039 -35.2051 C 140.039 -70.459 110.889 -99.6094 75.5859 -99.6094 C 40.332 -99.6094 11.2793 -70.459 11.2793 -35.2051 C 11.2793 0.0488281 40.3809 29.1992 75.6348 29.1992 Z M 74.9512 -3.56445 C 62.9395 -3.56445 54.541 -9.17969 52.1484 -15.7227 C 51.6602 -16.9434 51.3672 -18.0664 51.3672 -19.1406 C 51.3672 -22.0703 53.3203 -23.877 56.2988 -23.877 C 58.4961 -23.877 59.9609 -22.9004 61.2305 -20.7031 C 63.623 -15.3809 68.6523 -12.5 75.6348 -12.5 C 82.959 -12.5 88.623 -16.0156 88.623 -21.6797 C 88.623 -26.2695 85.8398 -28.3203 77.4902 -30.4688 L 68.2617 -32.9102 C 57.666 -35.6445 52.0996 -40.625 52.0996 -49.1699 C 52.0996 -60.0098 61.7188 -67.6758 75.6348 -67.6758 C 86.8164 -67.6758 95.0684 -62.6465 97.5586 -55.5664 C 98.0469 -54.3457 98.291 -53.2227 98.291 -52.1973 C 98.291 -49.2188 96.3379 -47.7051 93.5059 -47.7051 C 91.0645 -47.7051 89.7461 -48.7305 88.4766 -50.8301 C 86.2305 -56.2012 81.8848 -58.9355 75.3418 -58.9355 C 68.4082 -58.9355 63.623 -55.2734 63.623 -49.8047 C 63.623 -45.8008 66.3574 -43.4082 73.1934 -41.6992 L 82.0312 -39.502 C 93.9453 -36.5234 100.049 -31.543 100.049 -22.6074 C 100.049 -11.0352 90.1367 -3.56445 74.9512 -3.56445 Z"/>
  </g>
  <g id="Semibold-L" transform="matrix(1 0 0 1 1967 1556)">
   <path d="M 76.2695 29.7852 C 111.914 29.7852 141.26 0.439453 141.26 -35.2051 C 141.26 -70.8496 111.865 -100.244 76.2207 -100.244 C 40.5762 -100.244 11.2793 -70.8496 11.2793 -35.2051 C 11.2793 0.439453 40.625 29.7852 76.2695 29.7852 Z M 75.4395 -3.71094 C 63.5254 -3.71094 55.1758 -9.0332 52.5879 -15.3809 C 52.0508 -16.6504 51.7578 -17.8223 51.7578 -18.9941 C 51.7578 -22.1191 53.9062 -24.1211 57.1289 -24.1211 C 59.4238 -24.1211 60.9863 -23.1934 62.4512 -21.0449 C 65.0879 -16.1133 69.7266 -13.4766 76.2695 -13.4766 C 83.1055 -13.4766 88.3301 -16.6992 88.3301 -21.875 C 88.3301 -26.123 85.6934 -28.0273 77.5391 -30.0293 L 68.75 -32.2754 C 57.959 -34.8633 52.2461 -39.9902 52.2461 -48.6816 C 52.2461 -59.7656 62.0117 -67.4805 76.1719 -67.4805 C 87.207 -67.4805 95.5566 -62.5977 98.1934 -55.7129 C 98.7305 -54.4922 99.0723 -53.2227 99.0723 -52.1484 C 99.0723 -48.9746 96.9238 -47.3145 93.8477 -47.3145 C 91.3086 -47.3145 89.8438 -48.291 88.3301 -50.4395 C 85.9863 -55.4199 81.9336 -57.8613 75.9277 -57.8613 C 69.4336 -57.8613 65.0879 -54.541 65.0879 -49.5117 C 65.0879 -45.8008 67.6758 -43.6035 74.4141 -41.9922 L 83.0566 -39.9902 C 94.873 -37.1582 101.025 -32.0312 101.025 -22.998 C 101.025 -11.2305 90.918 -3.71094 75.4395 -3.71094 Z"/>
  </g>
  <g id="Bold-L" transform="matrix(1 0 0 1 2262.9 1556)">
   <path d="M 77.0996 30.6152 C 113.184 30.6152 142.92 0.878906 142.92 -35.2051 C 142.92 -71.3379 113.135 -101.025 77.0508 -101.025 C 40.918 -101.025 11.2793 -71.3379 11.2793 -35.2051 C 11.2793 0.878906 40.9668 30.6152 77.0996 30.6152 Z M 76.1719 -3.85742 C 64.3066 -3.85742 55.957 -8.83789 53.2227 -14.9414 C 52.5879 -16.2598 52.2461 -17.5293 52.2461 -18.7988 C 52.2461 -22.2656 54.6875 -24.4629 58.252 -24.4629 C 60.6445 -24.4629 62.3535 -23.5352 64.0625 -21.4844 C 67.041 -17.041 71.1426 -14.7949 77.0508 -14.7949 C 83.252 -14.7949 87.8906 -17.5781 87.8906 -22.168 C 87.8906 -26.0254 85.498 -27.6367 77.5879 -29.4434 L 69.3359 -31.4453 C 58.3496 -33.8867 52.4902 -39.209 52.4902 -48.0957 C 52.4902 -59.4238 62.3535 -67.1875 76.9043 -67.1875 C 87.7441 -67.1875 96.1914 -62.5488 99.0234 -55.957 C 99.6582 -54.6387 100.049 -53.3203 100.049 -52.0508 C 100.049 -48.6816 97.7051 -46.8262 94.2871 -46.8262 C 91.5527 -46.8262 90.0391 -47.7539 88.1348 -49.9512 C 85.5957 -54.3945 82.0312 -56.4453 76.6602 -56.4453 C 70.8496 -56.4453 67.041 -53.6133 67.041 -49.1699 C 67.041 -45.752 69.4824 -43.8477 76.0742 -42.3828 L 84.375 -40.5762 C 96.0938 -37.9883 102.295 -32.7148 102.295 -23.4375 C 102.295 -11.5234 91.9922 -3.85742 76.1719 -3.85742 Z"/>
  </g>
  <g id="Heavy-L" transform="matrix(1 0 0 1 2558.42 1556)">
   <path d="M 78.2715 31.7871 C 115.039 31.7871 145.264 1.61133 145.264 -35.2051 C 145.264 -72.0215 115.039 -102.197 78.2227 -102.197 C 41.4551 -102.197 11.2793 -72.0215 11.2793 -35.2051 C 11.2793 1.61133 41.4551 31.7871 78.2715 31.7871 Z M 77.1973 -4.10156 C 65.4785 -4.10156 57.0801 -8.54492 54.1504 -14.3066 C 53.3691 -15.6738 52.9785 -17.0898 52.9785 -18.5547 C 52.9785 -22.4121 55.8105 -25 59.8633 -25 C 62.4023 -25 64.3066 -24.0723 66.3574 -22.1191 C 69.8242 -18.3594 73.1934 -16.748 78.2227 -16.748 C 83.5449 -16.748 87.3047 -18.8477 87.3047 -22.5586 C 87.3047 -25.8301 85.2539 -27.0996 77.6855 -28.6133 L 70.2148 -30.2246 C 58.9355 -32.4219 52.7344 -38.0371 52.7344 -47.2656 C 52.7344 -58.8867 62.8418 -66.7969 77.9297 -66.7969 C 88.5254 -66.7969 97.168 -62.5 100.244 -56.2988 C 101.025 -54.8828 101.465 -53.3691 101.465 -51.9043 C 101.465 -48.1934 98.8281 -46.0938 94.9219 -46.0938 C 91.9434 -46.0938 90.2832 -46.9727 87.8418 -49.2676 C 85.0586 -52.8809 82.1777 -54.3945 77.7832 -54.3945 C 72.8516 -54.3945 69.8242 -52.1973 69.8242 -48.6816 C 69.8242 -45.7031 72.0215 -44.1895 78.5156 -42.9688 L 86.2793 -41.4551 C 97.9004 -39.2578 104.15 -33.6914 104.15 -24.1211 C 104.15 -11.9141 93.5547 -4.10156 77.1973 -4.10156 Z"/>
  </g>
  <g id="Black-L" transform="matrix(1 0 0 1 2854.08 1556)">
   <path d="M 79.2969 32.8613 C 116.748 32.8613 147.363 2.19727 147.363 -35.2051 C 147.363 -72.6074 116.699 -103.271 79.2969 -103.271 C 41.8945 -103.271 11.2793 -72.6074 11.2793 -35.2051 C 11.2793 2.19727 41.8945 32.8613 79.2969 32.8613 Z M 78.125 -4.29688 C 66.5039 -4.29688 58.0566 -8.30078 54.9316 -13.7207 C 54.1016 -15.1367 53.6621 -16.6992 53.6621 -18.3105 C 53.6621 -22.5586 56.7871 -25.4395 61.3281 -25.4395 C 64.0137 -25.4395 66.1133 -24.5605 68.457 -22.7051 C 72.3633 -19.5801 75.0488 -18.457 79.2969 -18.457 C 83.7891 -18.457 86.7676 -19.9707 86.7676 -22.9492 C 86.7676 -25.6348 85.0586 -26.5625 77.7344 -27.832 L 71.0449 -29.1504 C 59.4727 -31.1035 53.0273 -36.9629 53.0273 -46.4844 C 53.0273 -58.4473 63.2812 -66.4062 78.8574 -66.4062 C 89.209 -66.4062 97.998 -62.4023 101.318 -56.6406 C 102.246 -55.0781 102.734 -53.4668 102.734 -51.8066 C 102.734 -47.8027 99.8047 -45.4102 95.459 -45.4102 C 92.2852 -45.4102 90.4785 -46.2402 87.5488 -48.584 C 84.5703 -51.5137 82.2754 -52.5391 78.7109 -52.5391 C 74.6582 -52.5391 72.3145 -50.9766 72.3145 -48.1934 C 72.3145 -45.7031 74.3164 -44.4824 80.6641 -43.457 L 87.9883 -42.2363 C 99.5117 -40.332 105.762 -34.5703 105.762 -24.7559 C 105.762 -12.2559 94.9707 -4.29688 78.125 -4.29688 Z"/>
  </g>
 </g>
</svg>
