<?xml version="1.0" encoding="UTF-8"?>
<!--Generator: Apple Native CoreSVG 123-->
<!DOCTYPE svg
PUBLIC "-//W3C//DTD SVG 1.1//EN"
       "http://www.w3.org/Graphics/SVG/1.1/DTD/svg11.dtd">
<svg version="1.1" xmlns="http://www.w3.org/2000/svg" xmlns:xlink="http://www.w3.org/1999/xlink" width="3300" height="2200">
 <!--glyph: "uni1002E6.medium", point size: 100.000000, font version: "Version 15.0d4e20", template writer version: "2"-->
 <g id="Notes">
  <rect height="2200" id="artboard" style="fill:white;opacity:1" width="3300" x="0" y="0"/>
  <line id="" style="fill:none;stroke:black;opacity:1;stroke-width:0.5;" x1="263" x2="3036" y1="292" y2="292"/>
  <text style="stroke:none;fill:black;font-family:-apple-system,&quot;SF Pro Display&quot;,&quot;SF Pro Text&quot;,Helvetica,sans-serif;font-weight:bold;" transform="matrix(1 0 0 1 263 322)">Weight/Scale Variations</text>
  <text style="stroke:none;fill:black;font-family:-apple-system,&quot;SF Pro Display&quot;,&quot;SF Pro Text&quot;,Helvetica,sans-serif;text-anchor:middle;" transform="matrix(1 0 0 1 559.711 322)">Ultralight</text>
  <text style="stroke:none;fill:black;font-family:-apple-system,&quot;SF Pro Display&quot;,&quot;SF Pro Text&quot;,Helvetica,sans-serif;text-anchor:middle;" transform="matrix(1 0 0 1 856.422 322)">Thin</text>
  <text style="stroke:none;fill:black;font-family:-apple-system,&quot;SF Pro Display&quot;,&quot;SF Pro Text&quot;,Helvetica,sans-serif;text-anchor:middle;" transform="matrix(1 0 0 1 1153.13 322)">Light</text>
  <text style="stroke:none;fill:black;font-family:-apple-system,&quot;SF Pro Display&quot;,&quot;SF Pro Text&quot;,Helvetica,sans-serif;text-anchor:middle;" transform="matrix(1 0 0 1 1449.84 322)">Regular</text>
  <text style="stroke:none;fill:black;font-family:-apple-system,&quot;SF Pro Display&quot;,&quot;SF Pro Text&quot;,Helvetica,sans-serif;text-anchor:middle;" transform="matrix(1 0 0 1 1746.56 322)">Medium</text>
  <text style="stroke:none;fill:black;font-family:-apple-system,&quot;SF Pro Display&quot;,&quot;SF Pro Text&quot;,Helvetica,sans-serif;text-anchor:middle;" transform="matrix(1 0 0 1 2043.27 322)">Semibold</text>
  <text style="stroke:none;fill:black;font-family:-apple-system,&quot;SF Pro Display&quot;,&quot;SF Pro Text&quot;,Helvetica,sans-serif;text-anchor:middle;" transform="matrix(1 0 0 1 2339.98 322)">Bold</text>
  <text style="stroke:none;fill:black;font-family:-apple-system,&quot;SF Pro Display&quot;,&quot;SF Pro Text&quot;,Helvetica,sans-serif;text-anchor:middle;" transform="matrix(1 0 0 1 2636.69 322)">Heavy</text>
  <text style="stroke:none;fill:black;font-family:-apple-system,&quot;SF Pro Display&quot;,&quot;SF Pro Text&quot;,Helvetica,sans-serif;text-anchor:middle;" transform="matrix(1 0 0 1 2933.4 322)">Black</text>
  <line id="" style="fill:none;stroke:black;opacity:1;stroke-width:0.5;" x1="263" x2="3036" y1="1903" y2="1903"/>
  <g id="" transform="matrix(1 0 0 1 263 1933)">
   <path d="M 9.24805 0.830078 C 13.5547 0.830078 17.1387 -2.74414 17.1387 -7.05078 C 17.1387 -11.3574 13.5449 -14.9316 9.23828 -14.9316 C 4.94141 -14.9316 1.36719 -11.3574 1.36719 -7.05078 C 1.36719 -2.74414 4.95117 0.830078 9.24805 0.830078 Z M 9.24805 -0.654297 C 5.70312 -0.654297 2.87109 -3.49609 2.87109 -7.05078 C 2.87109 -10.6055 5.69336 -13.4473 9.23828 -13.4473 C 12.793 -13.4473 15.6348 -10.6055 15.6445 -7.05078 C 15.6543 -3.49609 12.8027 -0.654297 9.24805 -0.654297 Z M 9.22852 -3.42773 C 9.69727 -3.42773 9.9707 -3.74023 9.9707 -4.25781 L 9.9707 -6.31836 L 12.1973 -6.31836 C 12.6953 -6.31836 13.0371 -6.57227 13.0371 -7.04102 C 13.0371 -7.51953 12.7148 -7.7832 12.1973 -7.7832 L 9.9707 -7.7832 L 9.9707 -10.0098 C 9.9707 -10.5273 9.69727 -10.8496 9.22852 -10.8496 C 8.75977 -10.8496 8.50586 -10.5078 8.50586 -10.0098 L 8.50586 -7.7832 L 6.29883 -7.7832 C 5.78125 -7.7832 5.44922 -7.51953 5.44922 -7.04102 C 5.44922 -6.57227 5.80078 -6.31836 6.29883 -6.31836 L 8.50586 -6.31836 L 8.50586 -4.25781 C 8.50586 -3.75977 8.75977 -3.42773 9.22852 -3.42773 Z"/>
  </g>
  <g id="" transform="matrix(1 0 0 1 281.506 1933)">
   <path d="M 11.709 2.91016 C 17.1484 2.91016 21.6699 -1.60156 21.6699 -7.05078 C 21.6699 -12.4902 17.1387 -17.0117 11.6992 -17.0117 C 6.25 -17.0117 1.74805 -12.4902 1.74805 -7.05078 C 1.74805 -1.60156 6.25977 2.91016 11.709 2.91016 Z M 11.709 1.25 C 7.09961 1.25 3.41797 -2.44141 3.41797 -7.05078 C 3.41797 -11.6504 7.08984 -15.3516 11.6992 -15.3516 C 16.2988 -15.3516 20 -11.6504 20.0098 -7.05078 C 20.0195 -2.44141 16.3086 1.25 11.709 1.25 Z M 11.6797 -2.41211 C 12.207 -2.41211 12.5195 -2.77344 12.5195 -3.33984 L 12.5195 -6.23047 L 15.5762 -6.23047 C 16.123 -6.23047 16.5039 -6.51367 16.5039 -7.03125 C 16.5039 -7.55859 16.1426 -7.86133 15.5762 -7.86133 L 12.5195 -7.86133 L 12.5195 -10.9277 C 12.5195 -11.5039 12.207 -11.8555 11.6797 -11.8555 C 11.1621 -11.8555 10.8789 -11.4844 10.8789 -10.9277 L 10.8789 -7.86133 L 7.83203 -7.86133 C 7.25586 -7.86133 6.89453 -7.55859 6.89453 -7.03125 C 6.89453 -6.51367 7.28516 -6.23047 7.83203 -6.23047 L 10.8789 -6.23047 L 10.8789 -3.33984 C 10.8789 -2.79297 11.1621 -2.41211 11.6797 -2.41211 Z"/>
  </g>
  <g id="" transform="matrix(1 0 0 1 304.914 1933)">
   <path d="M 14.9707 5.67383 C 21.9336 5.67383 27.6855 -0.078125 27.6855 -7.04102 C 27.6855 -14.0039 21.9238 -19.7559 14.9609 -19.7559 C 7.99805 -19.7559 2.25586 -14.0039 2.25586 -7.04102 C 2.25586 -0.078125 8.00781 5.67383 14.9707 5.67383 Z M 14.9707 3.85742 C 8.92578 3.85742 4.08203 -1.00586 4.08203 -7.04102 C 4.08203 -13.0762 8.91602 -17.9395 14.9609 -17.9395 C 20.9961 -17.9395 25.8594 -13.0762 25.8691 -7.04102 C 25.8789 -1.00586 21.0059 3.85742 14.9707 3.85742 Z M 14.9414 -1.06445 C 15.5176 -1.06445 15.8594 -1.45508 15.8594 -2.06055 L 15.8594 -6.13281 L 20.0977 -6.13281 C 20.6934 -6.13281 21.1133 -6.46484 21.1133 -7.02148 C 21.1133 -7.59766 20.7227 -7.93945 20.0977 -7.93945 L 15.8594 -7.93945 L 15.8594 -12.1875 C 15.8594 -12.8027 15.5176 -13.1934 14.9414 -13.1934 C 14.3848 -13.1934 14.0625 -12.7832 14.0625 -12.1875 L 14.0625 -7.93945 L 9.82422 -7.93945 C 9.20898 -7.93945 8.80859 -7.59766 8.80859 -7.02148 C 8.80859 -6.46484 9.23828 -6.13281 9.82422 -6.13281 L 14.0625 -6.13281 L 14.0625 -2.06055 C 14.0625 -1.47461 14.3848 -1.06445 14.9414 -1.06445 Z"/>
  </g>
  <text style="stroke:none;fill:black;font-family:-apple-system,&quot;SF Pro Display&quot;,&quot;SF Pro Text&quot;,Helvetica,sans-serif;font-weight:bold;" transform="matrix(1 0 0 1 263 1953)">Design Variations</text>
  <text style="stroke:none;fill:black;font-family:-apple-system,&quot;SF Pro Display&quot;,&quot;SF Pro Text&quot;,Helvetica,sans-serif;" transform="matrix(1 0 0 1 263 1971)">Symbols are supported in up to nine weights and three scales.</text>
  <text style="stroke:none;fill:black;font-family:-apple-system,&quot;SF Pro Display&quot;,&quot;SF Pro Text&quot;,Helvetica,sans-serif;" transform="matrix(1 0 0 1 263 1989)">For optimal layout with text and other symbols, vertically align</text>
  <text style="stroke:none;fill:black;font-family:-apple-system,&quot;SF Pro Display&quot;,&quot;SF Pro Text&quot;,Helvetica,sans-serif;" transform="matrix(1 0 0 1 263 2007)">symbols with the adjacent text.</text>
  <rect height="14" id="" style="fill:#00AEEF;stroke:none;opacity:0.4;" width="3" x="776" y="1919"/>
  <g id="" transform="matrix(1 0 0 1 779 1933)">
   <path d="M 10.5273 0 L 12.373 0 L 7.17773 -14.0918 L 5.43945 -14.0918 L 0.244141 0 L 2.08984 0 L 3.50586 -4.0332 L 9.11133 -4.0332 Z M 6.2793 -11.9531 L 6.33789 -11.9531 L 8.59375 -5.52734 L 4.02344 -5.52734 Z"/>
  </g>
  <rect height="14" id="" style="fill:#00AEEF;stroke:none;opacity:0.4;" width="3" x="791.617" y="1919"/>
  <text style="stroke:none;fill:black;font-family:-apple-system,&quot;SF Pro Display&quot;,&quot;SF Pro Text&quot;,Helvetica,sans-serif;font-weight:bold;" transform="matrix(1 0 0 1 776 1953)">Side Bearings</text>
  <text style="stroke:none;fill:black;font-family:-apple-system,&quot;SF Pro Display&quot;,&quot;SF Pro Text&quot;,Helvetica,sans-serif;" transform="matrix(1 0 0 1 776 1971)">Horizontal padding on the left and right side of each symbol</text>
  <text style="stroke:none;fill:black;font-family:-apple-system,&quot;SF Pro Display&quot;,&quot;SF Pro Text&quot;,Helvetica,sans-serif;" transform="matrix(1 0 0 1 776 1989)">can be adjusted by modifying the width of the blue rectangles.</text>
  <text style="stroke:none;fill:black;font-family:-apple-system,&quot;SF Pro Display&quot;,&quot;SF Pro Text&quot;,Helvetica,sans-serif;" transform="matrix(1 0 0 1 776 2007)">Modifications are automatically applied proportionally to all</text>
  <text style="stroke:none;fill:black;font-family:-apple-system,&quot;SF Pro Display&quot;,&quot;SF Pro Text&quot;,Helvetica,sans-serif;" transform="matrix(1 0 0 1 776 2025)">scales and weights.</text>
  <g id="" transform="matrix(1 0 0 1 1289 1933)">
   <path d="M 2.96875 2.35352 L 3.80859 3.19336 C 4.84375 4.22852 6.12305 4.15039 7.19727 2.97852 L 16.1621 -6.82617 C 16.5527 -6.74805 16.9629 -6.8457 17.4902 -7.02148 C 18.1738 -7.25586 18.2715 -7.25586 18.3887 -7.13867 C 18.5352 -7.01172 18.4863 -6.89453 18.2422 -6.25 C 17.8809 -5.33203 17.8125 -4.79492 18.5547 -4.02344 L 19.4238 -3.13477 C 20.2734 -2.24609 21.3281 -2.26562 22.2168 -3.14453 L 25.0586 -5.97656 C 25.9473 -6.86523 25.957 -7.92969 25.0781 -8.7793 L 24.1797 -9.64844 C 23.4082 -10.4004 22.8711 -10.3516 21.9629 -9.98047 C 21.3184 -9.72656 21.2012 -9.6875 21.0645 -9.81445 C 20.9375 -9.93164 20.9473 -10.0391 21.1816 -10.7129 C 21.5332 -11.6895 21.5723 -12.2852 20.752 -13.0957 L 19.3359 -14.5117 C 15.1953 -18.6133 11.2305 -18.7402 7.65625 -15.4395 C 7.08008 -14.9023 6.99219 -14.1504 7.53906 -13.6133 L 7.79297 -13.3594 C 8.22266 -12.9297 8.86719 -12.8418 9.41406 -13.1152 C 11.0645 -13.9453 12.2559 -14.0234 13.457 -12.9785 L 13.0273 -11.416 C 12.8516 -10.8008 12.793 -10.3418 12.9199 -9.93164 L 3.18359 -1.04492 C 2.02148 0.0292969 1.93359 1.32812 2.96875 2.35352 Z M 8.96484 -14.4922 C 8.89648 -14.5703 8.86719 -14.6582 8.99414 -14.7559 C 11.709 -17.2852 15.0391 -16.8457 18.3496 -13.5254 L 19.6973 -12.168 C 20.0879 -11.7773 20.0977 -11.582 19.8828 -10.8691 C 19.6582 -10.127 19.502 -9.53125 20.1465 -8.88672 C 20.8105 -8.22266 21.2891 -8.41797 22.207 -8.63281 C 22.9004 -8.79883 23.0664 -8.79883 23.4473 -8.41797 L 24.0918 -7.77344 C 24.4043 -7.48047 24.4141 -7.32422 24.0723 -6.97266 L 21.2207 -4.13086 C 20.8887 -3.79883 20.7227 -3.79883 20.4297 -4.10156 L 19.7852 -4.75586 C 19.4141 -5.13672 19.4141 -5.30273 19.5801 -6.01562 C 19.7852 -6.88477 19.9805 -7.38281 19.3262 -8.04688 C 18.6719 -8.7207 18.0762 -8.57422 17.3438 -8.33008 C 16.5625 -8.06641 16.3281 -8.06641 15.8984 -8.49609 L 14.6094 -9.78516 C 14.1699 -10.2246 14.1309 -10.4395 14.2676 -10.9082 L 15.0293 -13.3984 C 13.3887 -15.2832 11.4941 -15.5566 9.20898 -14.4434 C 9.11133 -14.3945 9.04297 -14.4141 8.96484 -14.4922 Z M 3.96484 1.36719 C 3.52539 0.927734 3.54492 0.537109 4.14062 -0.00976562 L 13.7402 -8.81836 L 15 -7.55859 L 6.17188 2.02148 C 5.625 2.60742 5.24414 2.64648 4.79492 2.19727 Z"/>
  </g>
  <text style="stroke:none;fill:black;font-family:-apple-system,&quot;SF Pro Display&quot;,&quot;SF Pro Text&quot;,Helvetica,sans-serif;font-weight:bold;" transform="matrix(1 0 0 1 1289 1953)">Exporting</text>
  <text style="stroke:none;fill:black;font-family:-apple-system,&quot;SF Pro Display&quot;,&quot;SF Pro Text&quot;,Helvetica,sans-serif;" transform="matrix(1 0 0 1 1289 1971)">Symbols should be outlined when exporting to ensure the</text>
  <text style="stroke:none;fill:black;font-family:-apple-system,&quot;SF Pro Display&quot;,&quot;SF Pro Text&quot;,Helvetica,sans-serif;" transform="matrix(1 0 0 1 1289 1989)">design is preserved when submitting to Xcode.</text>
  <text id="template-version" style="stroke:none;fill:black;font-family:-apple-system,&quot;SF Pro Display&quot;,&quot;SF Pro Text&quot;,Helvetica,sans-serif;text-anchor:end;" transform="matrix(1 0 0 1 3036 1933)">Template v.0.1</text>
  <text style="stroke:none;fill:black;font-family:-apple-system,&quot;SF Pro Display&quot;,&quot;SF Pro Text&quot;,Helvetica,sans-serif;text-anchor:end;" transform="matrix(1 0 0 1 3036 1951)">Generated from bolt.fill</text>
  <text style="stroke:none;fill:black;font-family:-apple-system,&quot;SF Pro Display&quot;,&quot;SF Pro Text&quot;,Helvetica,sans-serif;text-anchor:end;" transform="matrix(1 0 0 1 3036 1969)">Typeset at 100 points</text>
  <text style="stroke:none;fill:black;font-family:-apple-system,&quot;SF Pro Display&quot;,&quot;SF Pro Text&quot;,Helvetica,sans-serif;" transform="matrix(1 0 0 1 263 726)">Small</text>
  <text style="stroke:none;fill:black;font-family:-apple-system,&quot;SF Pro Display&quot;,&quot;SF Pro Text&quot;,Helvetica,sans-serif;" transform="matrix(1 0 0 1 263 1156)">Medium</text>
  <text style="stroke:none;fill:black;font-family:-apple-system,&quot;SF Pro Display&quot;,&quot;SF Pro Text&quot;,Helvetica,sans-serif;" transform="matrix(1 0 0 1 263 1586)">Large</text>
 </g>
 <g id="Guides">
  <g id="H-reference" style="fill:#27AAE1;stroke:none;" transform="matrix(1 0 0 1 339 696)">
   <path d="M 54.9316 0 L 57.666 0 L 30.5664 -70.459 L 28.0762 -70.459 L 0.976562 0 L 3.66211 0 L 12.9395 -24.4629 L 45.7031 -24.4629 Z M 29.1992 -67.0898 L 29.4434 -67.0898 L 44.8242 -26.709 L 13.8184 -26.709 Z"/>
  </g>
  <line id="Baseline-S" style="fill:none;stroke:#27AAE1;opacity:1;stroke-width:0.577;" x1="263" x2="3036" y1="696" y2="696"/>
  <line id="Capline-S" style="fill:none;stroke:#27AAE1;opacity:1;stroke-width:0.577;" x1="263" x2="3036" y1="625.541" y2="625.541"/>
  <g id="H-reference" style="fill:#27AAE1;stroke:none;" transform="matrix(1 0 0 1 339 1126)">
   <path d="M 54.9316 0 L 57.666 0 L 30.5664 -70.459 L 28.0762 -70.459 L 0.976562 0 L 3.66211 0 L 12.9395 -24.4629 L 45.7031 -24.4629 Z M 29.1992 -67.0898 L 29.4434 -67.0898 L 44.8242 -26.709 L 13.8184 -26.709 Z"/>
  </g>
  <line id="Baseline-M" style="fill:none;stroke:#27AAE1;opacity:1;stroke-width:0.577;" x1="263" x2="3036" y1="1126" y2="1126"/>
  <line id="Capline-M" style="fill:none;stroke:#27AAE1;opacity:1;stroke-width:0.577;" x1="263" x2="3036" y1="1055.54" y2="1055.54"/>
  <g id="H-reference" style="fill:#27AAE1;stroke:none;" transform="matrix(1 0 0 1 339 1556)">
   <path d="M 54.9316 0 L 57.666 0 L 30.5664 -70.459 L 28.0762 -70.459 L 0.976562 0 L 3.66211 0 L 12.9395 -24.4629 L 45.7031 -24.4629 Z M 29.1992 -67.0898 L 29.4434 -67.0898 L 44.8242 -26.709 L 13.8184 -26.709 Z"/>
  </g>
  <line id="Baseline-L" style="fill:none;stroke:#27AAE1;opacity:1;stroke-width:0.577;" x1="263" x2="3036" y1="1556" y2="1556"/>
  <line id="Capline-L" style="fill:none;stroke:#27AAE1;opacity:1;stroke-width:0.577;" x1="263" x2="3036" y1="1485.54" y2="1485.54"/>
  <rect height="119.336" id="left-margin" style="fill:#00AEEF;stroke:none;opacity:0.4;" width="9.94744" x="1400.94" y="1030.79"/>
  <rect height="119.336" id="right-margin" style="fill:#00AEEF;stroke:none;opacity:0.4;" width="9.99888" x="1488.75" y="1030.79"/>
 </g>
 <g id="Symbols">
  <g id="Ultralight-S" transform="matrix(1 0 0 1 522.992 696)">
   <path d="M 29.541 7.03125 L 64.6973 -40.4297 C 66.1621 -42.4316 65.918 -44.2871 63.7695 -44.2871 L 42.2852 -44.2871 L 48.0469 -76.1719 C 48.4863 -78.6621 45.6543 -79.7852 43.8965 -77.4902 L 8.74023 -30.0293 C 7.22656 -27.9785 7.51953 -26.1719 9.66797 -26.1719 L 31.1523 -26.1719 L 25.3906 5.71289 C 24.9512 8.20312 27.832 9.32617 29.541 7.03125 Z"/>
  </g>
  <g id="Thin-S" transform="matrix(1 0 0 1 819.264 696)">
   <path d="M 29.8828 6.78711 L 65.3809 -40.2832 C 67.2852 -42.7246 66.6992 -44.9219 64.1113 -44.9219 L 43.5059 -44.9219 L 49.1211 -75.8301 C 49.6582 -78.7109 46.3867 -80.0781 44.4336 -77.4414 L 8.93555 -30.3711 C 7.03125 -27.8809 7.61719 -25.7324 10.2051 -25.7324 L 30.8105 -25.7324 L 25.1953 5.12695 C 24.6582 8.05664 27.9297 9.375 29.8828 6.78711 Z"/>
  </g>
  <g id="Light-S" transform="matrix(1 0 0 1 1115.12 696)">
   <path d="M 30.6152 6.34766 L 66.748 -39.9902 C 69.3848 -43.3594 68.2617 -46.1426 64.7949 -46.1426 L 45.8496 -46.1426 L 51.1719 -75.0977 C 51.8555 -78.8086 47.8516 -80.5664 45.3613 -77.4414 L 9.27734 -31.1035 C 6.5918 -27.6855 7.71484 -24.9512 11.1816 -24.9512 L 30.127 -24.9512 L 24.8535 4.00391 C 24.1699 7.76367 28.125 9.47266 30.6152 6.34766 Z"/>
  </g>
  <g id="Regular-S" transform="matrix(1 0 0 1 1411.2 696)">
   <path d="M 31.1523 6.00586 L 67.7246 -39.7949 C 70.9961 -43.8477 69.4824 -47.1191 65.332 -47.1191 L 47.6562 -47.1191 L 52.6855 -74.5605 C 53.5156 -78.9062 48.9746 -80.957 46.0938 -77.3926 L 9.57031 -31.6406 C 6.29883 -27.5391 7.8125 -24.3164 11.9141 -24.3164 L 29.5898 -24.3164 L 24.5605 3.17383 C 23.7305 7.51953 28.2715 9.57031 31.1523 6.00586 Z"/>
  </g>
  <g id="Medium-S" transform="matrix(1 0 0 1 1706.52 696)">
   <path d="M 33.4961 6.5918 L 70.3125 -39.502 C 73.877 -43.9453 72.3145 -47.8516 67.4805 -47.8516 L 49.8047 -47.8516 L 54.248 -74.5605 C 55.0293 -79.541 49.9023 -81.9336 46.5332 -77.7344 L 9.76562 -31.7383 C 6.15234 -27.1973 7.71484 -23.3398 12.5488 -23.3398 L 30.2246 -23.3398 L 25.7812 3.36914 C 25 8.39844 30.127 10.791 33.4961 6.5918 Z"/>
  </g>
  <g id="Semibold-S" transform="matrix(1 0 0 1 2002.18 696)">
   <path d="M 35.3516 7.03125 L 72.2656 -39.2578 C 76.0742 -43.9941 74.4629 -48.4375 69.1406 -48.4375 L 51.4648 -48.4375 L 55.4688 -74.5117 C 56.25 -80.0293 50.5859 -82.7148 46.8262 -78.0273 L 9.91211 -31.7871 C 6.05469 -26.9531 7.66602 -22.6074 12.9883 -22.6074 L 30.6641 -22.6074 L 26.7578 3.51562 C 25.9766 9.0332 31.543 11.7188 35.3516 7.03125 Z"/>
  </g>
  <g id="Bold-S" transform="matrix(1 0 0 1 2297.5 696)">
   <path d="M 37.7441 7.56836 L 74.9023 -38.9648 C 78.9551 -44.043 77.3438 -49.1699 71.3379 -49.1699 L 53.6133 -49.1699 L 57.0312 -74.5117 C 57.7637 -80.6641 51.5137 -83.7402 47.2168 -78.3691 L 10.1074 -31.8359 C 5.95703 -26.6113 7.61719 -21.582 13.623 -21.582 L 31.2988 -21.582 L 27.9785 3.71094 C 27.2461 9.91211 33.3984 12.9395 37.7441 7.56836 Z"/>
  </g>
  <g id="Heavy-S" transform="matrix(1 0 0 1 2592.21 696)">
   <path d="M 41.2109 8.39844 L 78.6621 -38.5254 C 83.2031 -44.1406 81.4941 -50.293 74.5117 -50.293 L 56.7871 -50.293 L 59.2773 -74.4629 C 60.0098 -81.6406 52.8809 -85.2051 47.8516 -78.8574 L 10.3516 -31.9336 C 5.76172 -26.1719 7.51953 -20.166 14.502 -20.166 L 32.2266 -20.166 L 29.834 4.00391 C 29.1016 11.1816 36.1328 14.6973 41.2109 8.39844 Z"/>
  </g>
  <g id="Black-S" transform="matrix(1 0 0 1 2887.11 696)">
   <path d="M 44.2871 9.13086 L 82.0312 -38.1348 C 86.9629 -44.2383 85.2051 -51.2695 77.3438 -51.2695 L 59.6191 -51.2695 L 61.3281 -74.4629 C 62.0605 -82.4707 54.1016 -86.4746 48.3398 -79.3457 L 10.5957 -32.0312 C 5.56641 -25.7324 7.42188 -18.8477 15.2832 -18.8477 L 33.0566 -18.8477 L 31.4453 4.29688 C 30.7129 12.3535 38.5742 16.3086 44.2871 9.13086 Z"/>
  </g>
  <g id="Ultralight-M" transform="matrix(1 0 0 1 513.007 1126)">
   <path d="M 37.5488 18.7988 L 82.3242 -41.9434 C 84.0332 -44.2871 83.8379 -46.5332 81.25 -46.5332 L 53.4668 -46.5332 L 60.9375 -87.6465 C 61.4746 -90.6738 57.959 -91.9922 55.8594 -89.1602 L 11.084 -28.418 C 9.32617 -26.0254 9.57031 -23.8281 12.1582 -23.8281 L 39.9414 -23.8281 L 32.4707 17.2852 C 31.9336 20.2637 35.4492 21.6309 37.5488 18.7988 Z"/>
  </g>
  <g id="Thin-M" transform="matrix(1 0 0 1 809.23 1126)">
   <path d="M 37.9395 18.5547 L 83.1055 -41.7969 C 85.2539 -44.6289 84.7168 -47.2656 81.6406 -47.2656 L 54.834 -47.2656 L 62.1094 -87.207 C 62.7441 -90.7227 58.7891 -92.2852 56.3965 -89.1602 L 11.2793 -28.8574 C 9.08203 -25.9277 9.66797 -23.3398 12.7441 -23.3398 L 39.502 -23.3398 L 32.2754 16.6016 C 31.6406 20.1172 35.5957 21.6797 37.9395 18.5547 Z"/>
  </g>
  <g id="Light-M" transform="matrix(1 0 0 1 1104.96 1126)">
   <path d="M 38.7695 18.0176 L 84.6191 -41.4551 C 87.6953 -45.3613 86.4746 -48.6816 82.4219 -48.6816 L 57.5195 -48.6816 L 64.4531 -86.4258 C 65.2344 -90.8203 60.4492 -92.8711 57.5195 -89.1113 L 11.7188 -29.6387 C 8.59375 -25.6836 9.81445 -22.4609 13.8672 -22.4609 L 38.7207 -22.4609 L 31.8359 15.332 C 31.0547 19.7754 35.8398 21.8262 38.7695 18.0176 Z"/>
  </g>
  <g id="Regular-M" transform="matrix(1 0 0 1 1400.94 1126)">
   <path d="M 39.4043 17.6758 L 85.7422 -41.2109 C 89.502 -45.8984 87.8418 -49.707 83.0078 -49.707 L 59.5703 -49.707 L 66.2109 -85.791 C 67.1387 -90.918 61.7188 -93.3105 58.3496 -89.0625 L 12.0117 -30.2734 C 8.25195 -25.4883 9.91211 -21.7285 14.6973 -21.7285 L 38.1348 -21.7285 L 31.543 14.4043 C 30.6152 19.4824 35.9863 21.875 39.4043 17.6758 Z"/>
  </g>
  <g id="Medium-M" transform="matrix(1 0 0 1 1696.16 1126)">
   <path d="M 41.8945 18.1641 L 88.5254 -40.8691 C 92.6758 -46.0449 90.918 -50.6348 85.3027 -50.6348 L 62.0117 -50.6348 L 67.9688 -85.6934 C 68.9453 -91.6016 62.8418 -94.3848 58.8379 -89.4043 L 12.2559 -30.4199 C 8.10547 -25.1465 9.81445 -20.6543 15.4297 -20.6543 L 38.7207 -20.6543 L 32.7637 14.4531 C 31.8359 20.3613 37.8906 23.1445 41.8945 18.1641 Z"/>
  </g>
  <g id="Semibold-M" transform="matrix(1 0 0 1 1991.73 1126)">
   <path d="M 43.7988 18.6035 L 90.625 -40.625 C 95.0684 -46.1426 93.2617 -51.3184 87.0605 -51.3184 L 63.8672 -51.3184 L 69.3848 -85.6445 C 70.3125 -92.0898 63.6719 -95.2148 59.2285 -89.6973 L 12.4512 -30.5176 C 7.95898 -24.9023 9.81445 -19.8242 15.9668 -19.8242 L 39.1113 -19.8242 L 33.6914 14.5508 C 32.7637 20.9961 39.3555 24.1211 43.7988 18.6035 Z"/>
  </g>
  <g id="Bold-M" transform="matrix(1 0 0 1 2286.95 1126)">
   <path d="M 46.2891 19.1406 L 93.457 -40.2832 C 98.2422 -46.2891 96.3379 -52.1973 89.3555 -52.1973 L 66.3574 -52.1973 L 71.1914 -85.5469 C 72.1191 -92.7734 64.7461 -96.2891 59.7656 -90.0391 L 12.6465 -30.6641 C 7.76367 -24.5117 9.7168 -18.7012 16.6992 -18.7012 L 39.6973 -18.7012 L 34.9609 14.6484 C 34.0332 21.875 41.3086 25.3906 46.2891 19.1406 Z"/>
  </g>
  <g id="Heavy-M" transform="matrix(1 0 0 1 2581.46 1126)">
   <path d="M 49.9512 19.9219 L 97.5098 -39.7949 C 102.881 -46.4844 100.83 -53.5156 92.7246 -53.5156 L 69.9219 -53.5156 L 73.8281 -85.4492 C 74.7559 -93.75 66.3574 -97.8516 60.498 -90.5762 L 12.9883 -30.9082 C 7.51953 -24.0234 9.66797 -17.1387 17.7734 -17.1387 L 40.5273 -17.1387 L 36.7676 14.7461 C 35.8398 23.1445 44.0918 27.1973 49.9512 19.9219 Z"/>
  </g>
  <g id="Black-M" transform="matrix(1 0 0 1 2876.22 1126)">
   <path d="M 53.2227 20.6055 L 101.123 -39.3555 C 107.031 -46.6797 104.834 -54.6875 95.7031 -54.6875 L 73.1445 -54.6875 L 76.1719 -85.3027 C 77.0996 -94.6289 67.8223 -99.2676 61.1816 -91.0156 L 13.2812 -31.1035 C 7.27539 -23.584 9.57031 -15.6738 18.7012 -15.6738 L 41.2598 -15.6738 L 38.3789 14.8926 C 37.4512 24.2676 46.6309 28.8574 53.2227 20.6055 Z"/>
  </g>
  <g id="Ultralight-L" transform="matrix(1 0 0 1 499.653 1556)">
   <path d="M 48.291 34.5703 L 105.908 -43.9453 C 107.91 -46.7285 107.764 -49.5117 104.639 -49.5117 L 68.4082 -49.5117 L 78.0762 -103.027 C 78.7598 -106.738 74.4141 -108.398 71.8262 -104.834 L 14.209 -26.2695 C 12.1094 -23.4375 12.3535 -20.7031 15.4297 -20.7031 L 51.709 -20.7031 L 41.9922 32.8125 C 41.3574 36.4746 45.7031 38.1348 48.291 34.5703 Z"/>
  </g>
  <g id="Thin-L" transform="matrix(1 0 0 1 795.827 1556)">
   <path d="M 48.7305 34.3262 L 106.738 -43.7988 C 109.277 -47.168 108.789 -50.3418 105.078 -50.3418 L 69.9707 -50.3418 L 79.3945 -102.588 C 80.1758 -106.787 75.3418 -108.691 72.4609 -104.834 L 14.4531 -26.7578 C 11.8652 -23.291 12.4023 -20.2148 16.1133 -20.2148 L 51.2207 -20.2148 L 41.7969 32.0801 C 41.0156 36.2793 45.8496 38.1836 48.7305 34.3262 Z"/>
  </g>
  <g id="Light-L" transform="matrix(1 0 0 1 1091.46 1556)">
   <path d="M 49.6582 33.7402 L 108.447 -43.4082 C 111.963 -47.9492 110.742 -51.9043 105.957 -51.9043 L 72.9492 -51.9043 L 82.0312 -101.66 C 82.959 -106.934 77.1973 -109.326 73.6816 -104.785 L 14.8926 -27.6367 C 11.3281 -23.0469 12.5488 -19.1895 17.334 -19.1895 L 50.3418 -19.1895 L 41.3086 30.6641 C 40.332 35.8887 46.0938 38.3301 49.6582 33.7402 Z"/>
  </g>
  <g id="Regular-L" transform="matrix(1 0 0 1 1387.34 1556)">
   <path d="M 50.3418 33.3008 L 109.717 -43.1152 C 114.014 -48.584 112.256 -53.0762 106.641 -53.0762 L 75.1953 -53.0762 L 83.9844 -100.977 C 85.1074 -107.031 78.6133 -109.814 74.6094 -104.736 L 15.2344 -28.3203 C 10.9375 -22.8027 12.6953 -18.4082 18.2617 -18.4082 L 49.707 -18.4082 L 40.9668 29.5898 C 39.8438 35.5957 46.2891 38.3789 50.3418 33.3008 Z"/>
  </g>
  <g id="Medium-L" transform="matrix(1 0 0 1 1682.57 1556)">
   <path d="M 52.7344 33.7402 L 112.5 -42.7734 C 117.236 -48.7793 115.332 -54.1016 108.838 -54.1016 L 77.832 -54.1016 L 85.9863 -100.781 C 87.1094 -107.617 79.8828 -110.889 75.2441 -105.029 L 15.5273 -28.6133 C 10.6934 -22.4609 12.6465 -17.2363 19.0918 -17.2363 L 50.0977 -17.2363 L 42.041 29.4434 C 40.8691 36.3281 48.0957 39.5508 52.7344 33.7402 Z"/>
  </g>
  <g id="Semibold-L" transform="matrix(1 0 0 1 1978.11 1556)">
   <path d="M 54.5898 34.0332 L 114.6 -42.4805 C 119.727 -48.9746 117.676 -54.8828 110.547 -54.8828 L 79.8828 -54.8828 L 87.5 -100.635 C 88.6719 -108.105 80.8594 -111.719 75.7324 -105.273 L 15.7227 -28.8086 C 10.5469 -22.2168 12.6465 -16.4062 19.7266 -16.4062 L 50.3906 -16.4062 L 42.8223 29.3945 C 41.6504 36.8652 49.4629 40.4785 54.5898 34.0332 Z"/>
  </g>
  <g id="Bold-L" transform="matrix(1 0 0 1 2273.28 1556)">
   <path d="M 56.9824 34.4727 L 117.383 -42.1387 C 123.047 -49.2188 120.752 -55.9082 112.793 -55.9082 L 82.5195 -55.9082 L 89.502 -100.439 C 90.7227 -108.74 82.1289 -112.793 76.3672 -105.615 L 16.0156 -29.0527 C 10.3027 -21.8262 12.5977 -15.2344 20.6055 -15.2344 L 50.7812 -15.2344 L 43.8965 29.248 C 42.7246 37.6465 51.2695 41.6504 56.9824 34.4727 Z"/>
  </g>
  <g id="Heavy-L" transform="matrix(1 0 0 1 2567.79 1556)">
   <path d="M 60.5469 35.0586 L 121.436 -41.6016 C 127.832 -49.5605 125.293 -57.4219 116.016 -57.4219 L 86.4258 -57.4219 L 92.4805 -100.098 C 93.7012 -109.668 83.9355 -114.355 77.2949 -106.055 L 16.4062 -29.4434 C 9.96094 -21.3379 12.5488 -13.5742 21.8262 -13.5742 L 51.3672 -13.5742 L 45.459 29.1016 C 44.2383 38.6719 53.8574 43.3594 60.5469 35.0586 Z"/>
  </g>
  <g id="Black-L" transform="matrix(1 0 0 1 2862.5 1556)">
   <path d="M 63.6719 35.5957 L 125.049 -41.1621 C 132.08 -49.8535 129.297 -58.7891 118.896 -58.7891 L 89.8926 -58.7891 L 95.0684 -99.8535 C 96.3379 -110.498 85.5957 -115.771 78.125 -106.494 L 16.7969 -29.7852 C 9.66797 -20.8496 12.5 -12.0605 22.9004 -12.0605 L 51.9043 -12.0605 L 46.875 28.9551 C 45.6055 39.6484 56.2012 44.873 63.6719 35.5957 Z"/>
  </g>
 </g>
</svg>
