<?xml version="1.0" encoding="UTF-8"?>
<!--Generator: Apple Native CoreSVG 123-->
<!DOCTYPE svg
PUBLIC "-//W3C//DTD SVG 1.1//EN"
       "http://www.w3.org/Graphics/SVG/1.1/DTD/svg11.dtd">
<svg version="1.1" xmlns="http://www.w3.org/2000/svg" xmlns:xlink="http://www.w3.org/1999/xlink" width="3300" height="2200">
 <!--glyph: "uni100061.medium", point size: 100.000000, font version: "Version 15.0d4e20", template writer version: "2"-->
 <g id="Notes">
  <rect height="2200" id="artboard" style="fill:white;opacity:1" width="3300" x="0" y="0"/>
  <line id="" style="fill:none;stroke:black;opacity:1;stroke-width:0.5;" x1="263" x2="3036" y1="292" y2="292"/>
  <text style="stroke:none;fill:black;font-family:-apple-system,&quot;SF Pro Display&quot;,&quot;SF Pro Text&quot;,Helvetica,sans-serif;font-weight:bold;" transform="matrix(1 0 0 1 263 322)">Weight/Scale Variations</text>
  <text style="stroke:none;fill:black;font-family:-apple-system,&quot;SF Pro Display&quot;,&quot;SF Pro Text&quot;,Helvetica,sans-serif;text-anchor:middle;" transform="matrix(1 0 0 1 559.711 322)">Ultralight</text>
  <text style="stroke:none;fill:black;font-family:-apple-system,&quot;SF Pro Display&quot;,&quot;SF Pro Text&quot;,Helvetica,sans-serif;text-anchor:middle;" transform="matrix(1 0 0 1 856.422 322)">Thin</text>
  <text style="stroke:none;fill:black;font-family:-apple-system,&quot;SF Pro Display&quot;,&quot;SF Pro Text&quot;,Helvetica,sans-serif;text-anchor:middle;" transform="matrix(1 0 0 1 1153.13 322)">Light</text>
  <text style="stroke:none;fill:black;font-family:-apple-system,&quot;SF Pro Display&quot;,&quot;SF Pro Text&quot;,Helvetica,sans-serif;text-anchor:middle;" transform="matrix(1 0 0 1 1449.84 322)">Regular</text>
  <text style="stroke:none;fill:black;font-family:-apple-system,&quot;SF Pro Display&quot;,&quot;SF Pro Text&quot;,Helvetica,sans-serif;text-anchor:middle;" transform="matrix(1 0 0 1 1746.56 322)">Medium</text>
  <text style="stroke:none;fill:black;font-family:-apple-system,&quot;SF Pro Display&quot;,&quot;SF Pro Text&quot;,Helvetica,sans-serif;text-anchor:middle;" transform="matrix(1 0 0 1 2043.27 322)">Semibold</text>
  <text style="stroke:none;fill:black;font-family:-apple-system,&quot;SF Pro Display&quot;,&quot;SF Pro Text&quot;,Helvetica,sans-serif;text-anchor:middle;" transform="matrix(1 0 0 1 2339.98 322)">Bold</text>
  <text style="stroke:none;fill:black;font-family:-apple-system,&quot;SF Pro Display&quot;,&quot;SF Pro Text&quot;,Helvetica,sans-serif;text-anchor:middle;" transform="matrix(1 0 0 1 2636.69 322)">Heavy</text>
  <text style="stroke:none;fill:black;font-family:-apple-system,&quot;SF Pro Display&quot;,&quot;SF Pro Text&quot;,Helvetica,sans-serif;text-anchor:middle;" transform="matrix(1 0 0 1 2933.4 322)">Black</text>
  <line id="" style="fill:none;stroke:black;opacity:1;stroke-width:0.5;" x1="263" x2="3036" y1="1903" y2="1903"/>
  <g id="" transform="matrix(1 0 0 1 263 1933)">
   <path d="M 9.24805 0.830078 C 13.5547 0.830078 17.1387 -2.74414 17.1387 -7.05078 C 17.1387 -11.3574 13.5449 -14.9316 9.23828 -14.9316 C 4.94141 -14.9316 1.36719 -11.3574 1.36719 -7.05078 C 1.36719 -2.74414 4.95117 0.830078 9.24805 0.830078 Z M 9.24805 -0.654297 C 5.70312 -0.654297 2.87109 -3.49609 2.87109 -7.05078 C 2.87109 -10.6055 5.69336 -13.4473 9.23828 -13.4473 C 12.793 -13.4473 15.6348 -10.6055 15.6445 -7.05078 C 15.6543 -3.49609 12.8027 -0.654297 9.24805 -0.654297 Z M 9.22852 -3.42773 C 9.69727 -3.42773 9.9707 -3.74023 9.9707 -4.25781 L 9.9707 -6.31836 L 12.1973 -6.31836 C 12.6953 -6.31836 13.0371 -6.57227 13.0371 -7.04102 C 13.0371 -7.51953 12.7148 -7.7832 12.1973 -7.7832 L 9.9707 -7.7832 L 9.9707 -10.0098 C 9.9707 -10.5273 9.69727 -10.8496 9.22852 -10.8496 C 8.75977 -10.8496 8.50586 -10.5078 8.50586 -10.0098 L 8.50586 -7.7832 L 6.29883 -7.7832 C 5.78125 -7.7832 5.44922 -7.51953 5.44922 -7.04102 C 5.44922 -6.57227 5.80078 -6.31836 6.29883 -6.31836 L 8.50586 -6.31836 L 8.50586 -4.25781 C 8.50586 -3.75977 8.75977 -3.42773 9.22852 -3.42773 Z"/>
  </g>
  <g id="" transform="matrix(1 0 0 1 281.506 1933)">
   <path d="M 11.709 2.91016 C 17.1484 2.91016 21.6699 -1.60156 21.6699 -7.05078 C 21.6699 -12.4902 17.1387 -17.0117 11.6992 -17.0117 C 6.25 -17.0117 1.74805 -12.4902 1.74805 -7.05078 C 1.74805 -1.60156 6.25977 2.91016 11.709 2.91016 Z M 11.709 1.25 C 7.09961 1.25 3.41797 -2.44141 3.41797 -7.05078 C 3.41797 -11.6504 7.08984 -15.3516 11.6992 -15.3516 C 16.2988 -15.3516 20 -11.6504 20.0098 -7.05078 C 20.0195 -2.44141 16.3086 1.25 11.709 1.25 Z M 11.6797 -2.41211 C 12.207 -2.41211 12.5195 -2.77344 12.5195 -3.33984 L 12.5195 -6.23047 L 15.5762 -6.23047 C 16.123 -6.23047 16.5039 -6.51367 16.5039 -7.03125 C 16.5039 -7.55859 16.1426 -7.86133 15.5762 -7.86133 L 12.5195 -7.86133 L 12.5195 -10.9277 C 12.5195 -11.5039 12.207 -11.8555 11.6797 -11.8555 C 11.1621 -11.8555 10.8789 -11.4844 10.8789 -10.9277 L 10.8789 -7.86133 L 7.83203 -7.86133 C 7.25586 -7.86133 6.89453 -7.55859 6.89453 -7.03125 C 6.89453 -6.51367 7.28516 -6.23047 7.83203 -6.23047 L 10.8789 -6.23047 L 10.8789 -3.33984 C 10.8789 -2.79297 11.1621 -2.41211 11.6797 -2.41211 Z"/>
  </g>
  <g id="" transform="matrix(1 0 0 1 304.914 1933)">
   <path d="M 14.9707 5.67383 C 21.9336 5.67383 27.6855 -0.078125 27.6855 -7.04102 C 27.6855 -14.0039 21.9238 -19.7559 14.9609 -19.7559 C 7.99805 -19.7559 2.25586 -14.0039 2.25586 -7.04102 C 2.25586 -0.078125 8.00781 5.67383 14.9707 5.67383 Z M 14.9707 3.85742 C 8.92578 3.85742 4.08203 -1.00586 4.08203 -7.04102 C 4.08203 -13.0762 8.91602 -17.9395 14.9609 -17.9395 C 20.9961 -17.9395 25.8594 -13.0762 25.8691 -7.04102 C 25.8789 -1.00586 21.0059 3.85742 14.9707 3.85742 Z M 14.9414 -1.06445 C 15.5176 -1.06445 15.8594 -1.45508 15.8594 -2.06055 L 15.8594 -6.13281 L 20.0977 -6.13281 C 20.6934 -6.13281 21.1133 -6.46484 21.1133 -7.02148 C 21.1133 -7.59766 20.7227 -7.93945 20.0977 -7.93945 L 15.8594 -7.93945 L 15.8594 -12.1875 C 15.8594 -12.8027 15.5176 -13.1934 14.9414 -13.1934 C 14.3848 -13.1934 14.0625 -12.7832 14.0625 -12.1875 L 14.0625 -7.93945 L 9.82422 -7.93945 C 9.20898 -7.93945 8.80859 -7.59766 8.80859 -7.02148 C 8.80859 -6.46484 9.23828 -6.13281 9.82422 -6.13281 L 14.0625 -6.13281 L 14.0625 -2.06055 C 14.0625 -1.47461 14.3848 -1.06445 14.9414 -1.06445 Z"/>
  </g>
  <text style="stroke:none;fill:black;font-family:-apple-system,&quot;SF Pro Display&quot;,&quot;SF Pro Text&quot;,Helvetica,sans-serif;font-weight:bold;" transform="matrix(1 0 0 1 263 1953)">Design Variations</text>
  <text style="stroke:none;fill:black;font-family:-apple-system,&quot;SF Pro Display&quot;,&quot;SF Pro Text&quot;,Helvetica,sans-serif;" transform="matrix(1 0 0 1 263 1971)">Symbols are supported in up to nine weights and three scales.</text>
  <text style="stroke:none;fill:black;font-family:-apple-system,&quot;SF Pro Display&quot;,&quot;SF Pro Text&quot;,Helvetica,sans-serif;" transform="matrix(1 0 0 1 263 1989)">For optimal layout with text and other symbols, vertically align</text>
  <text style="stroke:none;fill:black;font-family:-apple-system,&quot;SF Pro Display&quot;,&quot;SF Pro Text&quot;,Helvetica,sans-serif;" transform="matrix(1 0 0 1 263 2007)">symbols with the adjacent text.</text>
  <rect height="14" id="" style="fill:#00AEEF;stroke:none;opacity:0.4;" width="3" x="776" y="1919"/>
  <g id="" transform="matrix(1 0 0 1 779 1933)">
   <path d="M 10.5273 0 L 12.373 0 L 7.17773 -14.0918 L 5.43945 -14.0918 L 0.244141 0 L 2.08984 0 L 3.50586 -4.0332 L 9.11133 -4.0332 Z M 6.2793 -11.9531 L 6.33789 -11.9531 L 8.59375 -5.52734 L 4.02344 -5.52734 Z"/>
  </g>
  <rect height="14" id="" style="fill:#00AEEF;stroke:none;opacity:0.4;" width="3" x="791.617" y="1919"/>
  <text style="stroke:none;fill:black;font-family:-apple-system,&quot;SF Pro Display&quot;,&quot;SF Pro Text&quot;,Helvetica,sans-serif;font-weight:bold;" transform="matrix(1 0 0 1 776 1953)">Side Bearings</text>
  <text style="stroke:none;fill:black;font-family:-apple-system,&quot;SF Pro Display&quot;,&quot;SF Pro Text&quot;,Helvetica,sans-serif;" transform="matrix(1 0 0 1 776 1971)">Horizontal padding on the left and right side of each symbol</text>
  <text style="stroke:none;fill:black;font-family:-apple-system,&quot;SF Pro Display&quot;,&quot;SF Pro Text&quot;,Helvetica,sans-serif;" transform="matrix(1 0 0 1 776 1989)">can be adjusted by modifying the width of the blue rectangles.</text>
  <text style="stroke:none;fill:black;font-family:-apple-system,&quot;SF Pro Display&quot;,&quot;SF Pro Text&quot;,Helvetica,sans-serif;" transform="matrix(1 0 0 1 776 2007)">Modifications are automatically applied proportionally to all</text>
  <text style="stroke:none;fill:black;font-family:-apple-system,&quot;SF Pro Display&quot;,&quot;SF Pro Text&quot;,Helvetica,sans-serif;" transform="matrix(1 0 0 1 776 2025)">scales and weights.</text>
  <g id="" transform="matrix(1 0 0 1 1289 1933)">
   <path d="M 2.96875 2.35352 L 3.80859 3.19336 C 4.84375 4.22852 6.12305 4.15039 7.19727 2.97852 L 16.1621 -6.82617 C 16.5527 -6.74805 16.9629 -6.8457 17.4902 -7.02148 C 18.1738 -7.25586 18.2715 -7.25586 18.3887 -7.13867 C 18.5352 -7.01172 18.4863 -6.89453 18.2422 -6.25 C 17.8809 -5.33203 17.8125 -4.79492 18.5547 -4.02344 L 19.4238 -3.13477 C 20.2734 -2.24609 21.3281 -2.26562 22.2168 -3.14453 L 25.0586 -5.97656 C 25.9473 -6.86523 25.957 -7.92969 25.0781 -8.7793 L 24.1797 -9.64844 C 23.4082 -10.4004 22.8711 -10.3516 21.9629 -9.98047 C 21.3184 -9.72656 21.2012 -9.6875 21.0645 -9.81445 C 20.9375 -9.93164 20.9473 -10.0391 21.1816 -10.7129 C 21.5332 -11.6895 21.5723 -12.2852 20.752 -13.0957 L 19.3359 -14.5117 C 15.1953 -18.6133 11.2305 -18.7402 7.65625 -15.4395 C 7.08008 -14.9023 6.99219 -14.1504 7.53906 -13.6133 L 7.79297 -13.3594 C 8.22266 -12.9297 8.86719 -12.8418 9.41406 -13.1152 C 11.0645 -13.9453 12.2559 -14.0234 13.457 -12.9785 L 13.0273 -11.416 C 12.8516 -10.8008 12.793 -10.3418 12.9199 -9.93164 L 3.18359 -1.04492 C 2.02148 0.0292969 1.93359 1.32812 2.96875 2.35352 Z M 8.96484 -14.4922 C 8.89648 -14.5703 8.86719 -14.6582 8.99414 -14.7559 C 11.709 -17.2852 15.0391 -16.8457 18.3496 -13.5254 L 19.6973 -12.168 C 20.0879 -11.7773 20.0977 -11.582 19.8828 -10.8691 C 19.6582 -10.127 19.502 -9.53125 20.1465 -8.88672 C 20.8105 -8.22266 21.2891 -8.41797 22.207 -8.63281 C 22.9004 -8.79883 23.0664 -8.79883 23.4473 -8.41797 L 24.0918 -7.77344 C 24.4043 -7.48047 24.4141 -7.32422 24.0723 -6.97266 L 21.2207 -4.13086 C 20.8887 -3.79883 20.7227 -3.79883 20.4297 -4.10156 L 19.7852 -4.75586 C 19.4141 -5.13672 19.4141 -5.30273 19.5801 -6.01562 C 19.7852 -6.88477 19.9805 -7.38281 19.3262 -8.04688 C 18.6719 -8.7207 18.0762 -8.57422 17.3438 -8.33008 C 16.5625 -8.06641 16.3281 -8.06641 15.8984 -8.49609 L 14.6094 -9.78516 C 14.1699 -10.2246 14.1309 -10.4395 14.2676 -10.9082 L 15.0293 -13.3984 C 13.3887 -15.2832 11.4941 -15.5566 9.20898 -14.4434 C 9.11133 -14.3945 9.04297 -14.4141 8.96484 -14.4922 Z M 3.96484 1.36719 C 3.52539 0.927734 3.54492 0.537109 4.14062 -0.00976562 L 13.7402 -8.81836 L 15 -7.55859 L 6.17188 2.02148 C 5.625 2.60742 5.24414 2.64648 4.79492 2.19727 Z"/>
  </g>
  <text style="stroke:none;fill:black;font-family:-apple-system,&quot;SF Pro Display&quot;,&quot;SF Pro Text&quot;,Helvetica,sans-serif;font-weight:bold;" transform="matrix(1 0 0 1 1289 1953)">Exporting</text>
  <text style="stroke:none;fill:black;font-family:-apple-system,&quot;SF Pro Display&quot;,&quot;SF Pro Text&quot;,Helvetica,sans-serif;" transform="matrix(1 0 0 1 1289 1971)">Symbols should be outlined when exporting to ensure the</text>
  <text style="stroke:none;fill:black;font-family:-apple-system,&quot;SF Pro Display&quot;,&quot;SF Pro Text&quot;,Helvetica,sans-serif;" transform="matrix(1 0 0 1 1289 1989)">design is preserved when submitting to Xcode.</text>
  <text id="template-version" style="stroke:none;fill:black;font-family:-apple-system,&quot;SF Pro Display&quot;,&quot;SF Pro Text&quot;,Helvetica,sans-serif;text-anchor:end;" transform="matrix(1 0 0 1 3036 1933)">Template v.0.1</text>
  <text style="stroke:none;fill:black;font-family:-apple-system,&quot;SF Pro Display&quot;,&quot;SF Pro Text&quot;,Helvetica,sans-serif;text-anchor:end;" transform="matrix(1 0 0 1 3036 1951)">Generated from xmark.circle.fill</text>
  <text style="stroke:none;fill:black;font-family:-apple-system,&quot;SF Pro Display&quot;,&quot;SF Pro Text&quot;,Helvetica,sans-serif;text-anchor:end;" transform="matrix(1 0 0 1 3036 1969)">Typeset at 100 points</text>
  <text style="stroke:none;fill:black;font-family:-apple-system,&quot;SF Pro Display&quot;,&quot;SF Pro Text&quot;,Helvetica,sans-serif;" transform="matrix(1 0 0 1 263 726)">Small</text>
  <text style="stroke:none;fill:black;font-family:-apple-system,&quot;SF Pro Display&quot;,&quot;SF Pro Text&quot;,Helvetica,sans-serif;" transform="matrix(1 0 0 1 263 1156)">Medium</text>
  <text style="stroke:none;fill:black;font-family:-apple-system,&quot;SF Pro Display&quot;,&quot;SF Pro Text&quot;,Helvetica,sans-serif;" transform="matrix(1 0 0 1 263 1586)">Large</text>
 </g>
 <g id="Guides">
  <g id="H-reference" style="fill:#27AAE1;stroke:none;" transform="matrix(1 0 0 1 339 696)">
   <path d="M 54.9316 0 L 57.666 0 L 30.5664 -70.459 L 28.0762 -70.459 L 0.976562 0 L 3.66211 0 L 12.9395 -24.4629 L 45.7031 -24.4629 Z M 29.1992 -67.0898 L 29.4434 -67.0898 L 44.8242 -26.709 L 13.8184 -26.709 Z"/>
  </g>
  <line id="Baseline-S" style="fill:none;stroke:#27AAE1;opacity:1;stroke-width:0.577;" x1="263" x2="3036" y1="696" y2="696"/>
  <line id="Capline-S" style="fill:none;stroke:#27AAE1;opacity:1;stroke-width:0.577;" x1="263" x2="3036" y1="625.541" y2="625.541"/>
  <g id="H-reference" style="fill:#27AAE1;stroke:none;" transform="matrix(1 0 0 1 339 1126)">
   <path d="M 54.9316 0 L 57.666 0 L 30.5664 -70.459 L 28.0762 -70.459 L 0.976562 0 L 3.66211 0 L 12.9395 -24.4629 L 45.7031 -24.4629 Z M 29.1992 -67.0898 L 29.4434 -67.0898 L 44.8242 -26.709 L 13.8184 -26.709 Z"/>
  </g>
  <line id="Baseline-M" style="fill:none;stroke:#27AAE1;opacity:1;stroke-width:0.577;" x1="263" x2="3036" y1="1126" y2="1126"/>
  <line id="Capline-M" style="fill:none;stroke:#27AAE1;opacity:1;stroke-width:0.577;" x1="263" x2="3036" y1="1055.54" y2="1055.54"/>
  <g id="H-reference" style="fill:#27AAE1;stroke:none;" transform="matrix(1 0 0 1 339 1556)">
   <path d="M 54.9316 0 L 57.666 0 L 30.5664 -70.459 L 28.0762 -70.459 L 0.976562 0 L 3.66211 0 L 12.9395 -24.4629 L 45.7031 -24.4629 Z M 29.1992 -67.0898 L 29.4434 -67.0898 L 44.8242 -26.709 L 13.8184 -26.709 Z"/>
  </g>
  <line id="Baseline-L" style="fill:none;stroke:#27AAE1;opacity:1;stroke-width:0.577;" x1="263" x2="3036" y1="1556" y2="1556"/>
  <line id="Capline-L" style="fill:none;stroke:#27AAE1;opacity:1;stroke-width:0.577;" x1="263" x2="3036" y1="1485.54" y2="1485.54"/>
  <rect height="119.336" id="left-margin" style="fill:#00AEEF;stroke:none;opacity:0.4;" width="8.74023" x="1391.32" y="1030.79"/>
  <rect height="119.336" id="right-margin" style="fill:#00AEEF;stroke:none;opacity:0.4;" width="8.69141" x="1499.67" y="1030.79"/>
 </g>
 <g id="Symbols">
  <g id="Ultralight-S" transform="matrix(1 0 0 1 515.644 696)">
   <path d="M 44.043 2.05078 C 64.502 2.05078 81.2988 -14.6973 81.2988 -35.1562 C 81.2988 -55.6152 64.502 -72.3633 44.043 -72.3633 C 23.584 -72.3633 6.83594 -55.6152 6.83594 -35.1562 C 6.83594 -14.6973 23.584 2.05078 44.043 2.05078 Z M 29.4922 -19.4336 C 28.7598 -19.4336 28.2227 -19.9219 28.2227 -20.6055 C 28.2227 -20.9961 28.2715 -21.2402 28.6621 -21.6309 L 42.2363 -35.2051 L 28.6621 -48.7793 C 28.3203 -49.1211 28.2227 -49.4141 28.2227 -49.8047 C 28.2227 -50.4883 28.7598 -50.9766 29.4922 -50.9766 C 29.9316 -50.9766 30.2246 -50.8789 30.5664 -50.5371 L 44.043 -37.0117 L 57.5684 -50.5371 C 57.9102 -50.8789 58.252 -50.9766 58.5938 -50.9766 C 59.375 -50.9766 59.9121 -50.4883 59.9121 -49.8047 C 59.9121 -49.4141 59.8145 -49.1211 59.4727 -48.7793 L 45.8984 -35.2051 L 59.4727 -21.6309 C 59.7656 -21.2891 59.9121 -20.9961 59.9121 -20.6055 C 59.9121 -19.9219 59.375 -19.4336 58.5938 -19.4336 C 58.252 -19.4336 57.9102 -19.5312 57.5684 -19.873 L 44.043 -33.3496 L 30.5664 -19.873 C 30.2246 -19.5312 29.9316 -19.4336 29.4922 -19.4336 Z"/>
  </g>
  <g id="Thin-S" transform="matrix(1 0 0 1 811.867 696)">
   <path d="M 44.5801 2.53906 C 65.2832 2.53906 82.2754 -14.4531 82.2754 -35.2051 C 82.2754 -55.9082 65.2344 -72.9004 44.5312 -72.9004 C 23.8281 -72.9004 6.83594 -55.9082 6.83594 -35.2051 C 6.83594 -14.4531 23.877 2.53906 44.5801 2.53906 Z M 30.2246 -19.0918 C 29.1992 -19.0918 28.418 -19.873 28.418 -20.8496 C 28.418 -21.3867 28.5645 -21.7773 29.0039 -22.2168 L 41.9434 -35.2051 L 29.0039 -48.1934 C 28.6133 -48.584 28.418 -49.0234 28.418 -49.5605 C 28.418 -50.5371 29.1992 -51.3184 30.2246 -51.3184 C 30.8105 -51.3184 31.2012 -51.123 31.5918 -50.6836 L 44.5312 -37.793 L 57.5195 -50.7324 C 57.959 -51.1719 58.3984 -51.3184 58.8867 -51.3184 C 59.9121 -51.3184 60.6934 -50.5859 60.6934 -49.5605 C 60.6934 -49.0234 60.5469 -48.6328 60.1562 -48.1934 L 47.1191 -35.2051 L 60.1074 -22.2168 C 60.498 -21.8262 60.6934 -21.3867 60.6934 -20.8496 C 60.6934 -19.873 59.9121 -19.0918 58.8867 -19.0918 C 58.3496 -19.0918 57.8613 -19.2871 57.4707 -19.6777 L 44.5312 -32.6172 L 31.6406 -19.6777 C 31.2012 -19.2871 30.8105 -19.0918 30.2246 -19.0918 Z"/>
  </g>
  <g id="Light-S" transform="matrix(1 0 0 1 1107.6 696)">
   <path d="M 45.5078 3.4668 C 66.6992 3.4668 84.2285 -14.0625 84.2285 -35.2051 C 84.2285 -56.3965 66.6504 -73.9258 45.5078 -73.9258 C 24.3164 -73.9258 6.83594 -56.3965 6.83594 -35.2051 C 6.83594 -14.0625 24.3652 3.4668 45.5078 3.4668 Z M 31.6406 -18.457 C 30.0293 -18.457 28.7598 -19.7754 28.7598 -21.3379 C 28.7598 -22.1191 29.0527 -22.8027 29.6387 -23.3398 L 41.4551 -35.2051 L 29.6387 -47.0703 C 29.1016 -47.5586 28.7598 -48.291 28.7598 -49.0723 C 28.7598 -50.6348 30.0293 -51.8555 31.6406 -51.8555 C 32.4707 -51.8555 33.1055 -51.6113 33.6426 -51.0254 L 45.5078 -39.209 L 57.4219 -51.0742 C 58.0078 -51.6602 58.6426 -51.9531 59.375 -51.9531 C 60.9863 -51.9531 62.2559 -50.6836 62.2559 -49.0723 C 62.2559 -48.291 62.0117 -47.6562 61.4258 -47.0703 L 49.5605 -35.2051 L 61.377 -23.3887 C 61.9141 -22.8516 62.2559 -22.168 62.2559 -21.3379 C 62.2559 -19.7754 60.9863 -18.457 59.375 -18.457 C 58.5449 -18.457 57.8613 -18.7988 57.3242 -19.3359 L 45.5078 -31.1523 L 33.6914 -19.3359 C 33.1543 -18.7988 32.4707 -18.457 31.6406 -18.457 Z"/>
  </g>
  <g id="Regular-S" transform="matrix(1 0 0 1 1403.58 696)">
   <path d="M 46.2402 4.15039 C 67.7734 4.15039 85.6934 -13.7207 85.6934 -35.2539 C 85.6934 -56.7871 67.7246 -74.6582 46.1914 -74.6582 C 24.707 -74.6582 6.83594 -56.7871 6.83594 -35.2539 C 6.83594 -13.7207 24.7559 4.15039 46.2402 4.15039 Z M 32.7148 -18.0176 C 30.7129 -18.0176 29.0527 -19.6777 29.0527 -21.7285 C 29.0527 -22.7051 29.4922 -23.584 30.127 -24.2188 L 41.0645 -35.2051 L 30.127 -46.1914 C 29.4922 -46.8262 29.0527 -47.7051 29.0527 -48.6816 C 29.0527 -50.7324 30.7129 -52.2949 32.7148 -52.2949 C 33.6914 -52.2949 34.5703 -51.9531 35.1562 -51.2695 L 46.1914 -40.2832 L 57.3242 -51.3184 C 58.0566 -52.0996 58.8379 -52.3926 59.8145 -52.3926 C 61.8164 -52.3926 63.4766 -50.7812 63.4766 -48.7305 C 63.4766 -47.7539 63.1348 -46.9727 62.4023 -46.2402 L 51.3672 -35.2051 L 62.3535 -24.3164 C 62.9883 -23.584 63.4277 -22.7539 63.4277 -21.7285 C 63.4277 -19.6777 61.7676 -18.0176 59.7656 -18.0176 C 58.6914 -18.0176 57.8125 -18.457 57.1777 -19.0918 L 46.1914 -30.0781 L 35.2539 -19.0918 C 34.668 -18.4082 33.6914 -18.0176 32.7148 -18.0176 Z"/>
  </g>
  <g id="Medium-S" transform="matrix(1 0 0 1 1699.7 696)">
   <path d="M 46.8262 4.78516 C 68.75 4.78516 86.8652 -13.3301 86.8652 -35.2539 C 86.8652 -57.1289 68.7012 -75.2441 46.8262 -75.2441 C 24.9023 -75.2441 6.83594 -57.1289 6.83594 -35.2539 C 6.83594 -13.3301 24.9512 4.78516 46.8262 4.78516 Z M 33.8379 -18.1152 C 31.543 -18.1152 29.7363 -19.9707 29.7363 -22.2656 C 29.7363 -23.3398 30.1758 -24.3164 30.957 -25.0488 L 41.0156 -35.2051 L 30.957 -45.3125 C 30.1758 -46.0449 29.7363 -47.0703 29.7363 -48.1445 C 29.7363 -50.4395 31.543 -52.1973 33.8379 -52.1973 C 35.0098 -52.1973 35.9375 -51.8066 36.6699 -51.0254 L 46.8262 -40.918 L 57.0312 -51.0742 C 57.8125 -51.9043 58.7402 -52.2949 59.8633 -52.2949 C 62.1582 -52.2949 63.9648 -50.4883 63.9648 -48.1934 C 63.9648 -47.0703 63.5742 -46.1426 62.7441 -45.3613 L 52.6367 -35.2051 L 62.7441 -25.1465 C 63.4766 -24.3164 63.916 -23.3887 63.916 -22.2656 C 63.916 -19.9707 62.1094 -18.1152 59.8145 -18.1152 C 58.6426 -18.1152 57.666 -18.6035 56.9336 -19.3359 L 46.8262 -29.3945 L 36.7676 -19.3359 C 36.0352 -18.5547 35.0098 -18.1152 33.8379 -18.1152 Z"/>
  </g>
  <g id="Semibold-S" transform="matrix(1 0 0 1 1995.98 696)">
   <path d="M 47.3145 5.22461 C 69.4824 5.22461 87.7441 -13.0371 87.7441 -35.2539 C 87.7441 -57.4219 69.4336 -75.6836 47.2656 -75.6836 C 25.0977 -75.6836 6.83594 -57.4219 6.83594 -35.2539 C 6.83594 -13.0371 25.0977 5.22461 47.3145 5.22461 Z M 34.668 -18.2129 C 32.1777 -18.2129 30.2246 -20.166 30.2246 -22.6562 C 30.2246 -23.8281 30.7129 -24.9023 31.543 -25.7324 L 41.0156 -35.2051 L 31.543 -44.6777 C 30.7129 -45.459 30.2246 -46.5332 30.2246 -47.7051 C 30.2246 -50.1953 32.1777 -52.0996 34.668 -52.0996 C 35.9863 -52.0996 37.0117 -51.709 37.8418 -50.8301 L 47.2656 -41.4551 L 56.7871 -50.8789 C 57.666 -51.8066 58.6426 -52.1973 59.9121 -52.1973 C 62.4023 -52.1973 64.3555 -50.2441 64.3555 -47.7539 C 64.3555 -46.582 63.916 -45.5566 63.0371 -44.6777 L 53.6133 -35.2051 L 63.0371 -25.7812 C 63.8672 -24.9023 64.3555 -23.877 64.3555 -22.6562 C 64.3555 -20.166 62.4023 -18.2129 59.9121 -18.2129 C 58.5938 -18.2129 57.5195 -18.6523 56.6895 -19.4824 L 47.2656 -28.9062 L 37.8906 -19.4824 C 37.0605 -18.6523 35.9863 -18.2129 34.668 -18.2129 Z"/>
  </g>
  <g id="Bold-S" transform="matrix(1 0 0 1 2292.1 696)">
   <path d="M 47.9004 5.81055 C 70.4102 5.81055 88.916 -12.6465 88.916 -35.2051 C 88.916 -57.7637 70.4102 -76.2695 47.8516 -76.2695 C 25.293 -76.2695 6.83594 -57.7637 6.83594 -35.2051 C 6.83594 -12.6465 25.3418 5.81055 47.9004 5.81055 Z M 35.791 -18.3105 C 33.0078 -18.3105 30.9082 -20.4102 30.9082 -23.1934 C 30.9082 -24.4629 31.4453 -25.6348 32.373 -26.5625 L 40.9668 -35.1562 L 32.373 -43.7988 C 31.4453 -44.6777 30.9082 -45.8984 30.9082 -47.1191 C 30.9082 -49.9023 33.0078 -52.002 35.791 -52.002 C 37.2559 -52.002 38.3789 -51.5625 39.3555 -50.5859 L 47.8516 -42.0898 L 56.4453 -50.6348 C 57.4219 -51.6113 58.5449 -52.0508 60.0098 -52.0508 C 62.7441 -52.0508 64.8926 -49.9512 64.8926 -47.168 C 64.8926 -45.8984 64.4043 -44.7266 63.4277 -43.7988 L 54.834 -35.1562 L 63.4277 -26.6113 C 64.3555 -25.6836 64.8438 -24.4629 64.8438 -23.1934 C 64.8438 -20.4102 62.7441 -18.3105 60.0098 -18.3105 C 58.4961 -18.3105 57.3242 -18.7988 56.3965 -19.7266 L 47.8516 -28.2227 L 39.3555 -19.7266 C 38.4277 -18.75 37.2559 -18.3105 35.791 -18.3105 Z"/>
  </g>
  <g id="Heavy-S" transform="matrix(1 0 0 1 2587.96 696)">
   <path d="M 48.7305 6.68945 C 71.8262 6.68945 90.625 -12.1094 90.625 -35.2051 C 90.625 -58.3008 71.8262 -77.0996 48.7305 -77.0996 C 25.6348 -77.0996 6.83594 -58.3008 6.83594 -35.2051 C 6.83594 -12.1094 25.6348 6.68945 48.7305 6.68945 Z M 37.4023 -18.457 C 34.2773 -18.457 31.8848 -20.8008 31.8848 -24.0234 C 31.8848 -25.3906 32.4707 -26.7578 33.5449 -27.832 L 40.8691 -35.1562 L 33.5449 -42.5293 C 32.4707 -43.5547 31.8848 -44.9219 31.8848 -46.2891 C 31.8848 -49.5117 34.2773 -51.8555 37.4023 -51.8555 C 39.1113 -51.8555 40.4297 -51.3672 41.5527 -50.2441 L 48.7305 -43.0664 L 56.0059 -50.2441 C 57.0801 -51.3672 58.3984 -51.8555 60.1562 -51.8555 C 63.2812 -51.8555 65.625 -49.5117 65.625 -46.2891 C 65.625 -44.9219 65.0391 -43.5547 63.9648 -42.5293 L 56.6895 -35.1562 L 63.9648 -27.832 C 65.0391 -26.7578 65.625 -25.3906 65.625 -24.0234 C 65.625 -20.8008 63.2812 -18.457 60.1562 -18.457 C 58.3984 -18.457 57.0801 -18.9453 56.0059 -20.0684 L 48.7305 -27.1973 L 41.5527 -20.0684 C 40.4297 -18.9453 39.1113 -18.457 37.4023 -18.457 Z"/>
  </g>
  <g id="Black-S" transform="matrix(1 0 0 1 2883.89 696)">
   <path d="M 49.5117 7.4707 C 73.0957 7.4707 92.1875 -11.6211 92.1875 -35.2051 C 92.1875 -58.7891 73.0957 -77.8809 49.5117 -77.8809 C 25.9277 -77.8809 6.83594 -58.7891 6.83594 -35.2051 C 6.83594 -11.6211 25.9277 7.4707 49.5117 7.4707 Z M 38.8184 -18.6035 C 35.3516 -18.6035 32.7637 -21.1914 32.7637 -24.707 C 32.7637 -26.2207 33.3984 -27.7344 34.5703 -28.9062 L 40.8203 -35.1562 L 34.5703 -41.3574 C 33.3984 -42.5781 32.7637 -44.043 32.7637 -45.5566 C 32.7637 -49.1211 35.3516 -51.709 38.8184 -51.709 C 40.8203 -51.709 42.2363 -51.1719 43.5059 -49.9512 L 49.5117 -43.8965 L 55.5664 -49.9512 C 56.7871 -51.1719 58.252 -51.6602 60.2539 -51.6602 C 63.7207 -51.6602 66.3086 -49.1211 66.3086 -45.5566 C 66.3086 -44.043 65.625 -42.5293 64.502 -41.3574 L 58.3008 -35.1562 L 64.502 -28.9062 C 65.6738 -27.7344 66.3086 -26.2207 66.3086 -24.707 C 66.3086 -21.1914 63.7207 -18.6035 60.2539 -18.6035 C 58.3008 -18.6035 56.8848 -19.0918 55.6152 -20.3613 L 49.5117 -26.3184 L 43.457 -20.3613 C 42.2363 -19.0918 40.8203 -18.6035 38.8184 -18.6035 Z"/>
  </g>
  <g id="Ultralight-M" transform="matrix(1 0 0 1 503.656 1126)">
   <path d="M 56.0547 12.207 C 82.0801 12.207 103.369 -9.08203 103.369 -35.1562 C 103.369 -61.1816 82.0801 -82.4707 56.0547 -82.4707 C 30.0293 -82.4707 8.74023 -61.1816 8.74023 -35.1562 C 8.74023 -9.08203 30.0293 12.207 56.0547 12.207 Z M 37.4023 -15.1367 C 36.5234 -15.1367 35.9375 -15.6738 35.9375 -16.4551 C 35.9375 -16.8945 35.9863 -17.1875 36.4258 -17.627 L 54.0039 -35.2051 L 36.4258 -52.7832 C 36.084 -53.125 35.9375 -53.5156 35.9375 -53.9062 C 35.9375 -54.6875 36.5234 -55.2246 37.4023 -55.2246 C 37.8906 -55.2246 38.1836 -55.127 38.623 -54.6875 L 56.0547 -37.2559 L 73.4863 -54.6875 C 73.9258 -55.127 74.2676 -55.2246 74.707 -55.2246 C 75.5371 -55.2246 76.1719 -54.6875 76.1719 -53.9062 C 76.1719 -53.5156 76.0254 -53.125 75.6836 -52.7832 L 58.1055 -35.2051 L 75.6836 -17.627 C 76.0254 -17.2852 76.1719 -16.8945 76.1719 -16.4551 C 76.1719 -15.6738 75.5371 -15.1367 74.707 -15.1367 C 74.2676 -15.1367 73.9258 -15.2832 73.4863 -15.7227 L 56.0547 -33.1543 L 38.623 -15.7227 C 38.1836 -15.2832 37.8906 -15.1367 37.4023 -15.1367 Z"/>
  </g>
  <g id="Thin-M" transform="matrix(1 0 0 1 799.806 1126)">
   <path d="M 56.5918 12.7441 C 82.9102 12.7441 104.492 -8.83789 104.492 -35.1562 C 104.492 -61.4746 82.9102 -83.0566 56.5918 -83.0566 C 30.3223 -83.0566 8.74023 -61.4746 8.74023 -35.1562 C 8.74023 -8.83789 30.3223 12.7441 56.5918 12.7441 Z M 38.2324 -14.7949 C 37.0605 -14.7949 36.1328 -15.625 36.1328 -16.748 C 36.1328 -17.334 36.2793 -17.7734 36.8164 -18.3105 L 53.7109 -35.2051 L 36.8164 -52.0996 C 36.377 -52.5391 36.1328 -53.0762 36.1328 -53.6621 C 36.1328 -54.7363 37.0605 -55.5664 38.2324 -55.5664 C 38.8184 -55.5664 39.3066 -55.3711 39.7949 -54.8828 L 56.5918 -38.0859 L 73.4375 -54.8828 C 73.9258 -55.4199 74.4141 -55.6152 75 -55.6152 C 76.1719 -55.6152 77.0508 -54.7852 77.0508 -53.6621 C 77.0508 -53.0762 76.9043 -52.5879 76.416 -52.0996 L 59.5215 -35.2051 L 76.416 -18.3105 C 76.8555 -17.8711 77.0508 -17.334 77.0508 -16.748 C 77.0508 -15.625 76.1719 -14.7949 75 -14.7949 C 74.4141 -14.7949 73.877 -14.9902 73.3887 -15.5273 L 56.5918 -32.3242 L 39.7949 -15.5273 C 39.3066 -14.9902 38.8184 -14.7949 38.2324 -14.7949 Z"/>
  </g>
  <g id="Light-M" transform="matrix(1 0 0 1 1095.42 1126)">
   <path d="M 57.7148 13.7695 C 84.5215 13.7695 106.689 -8.39844 106.689 -35.2051 C 106.689 -62.0117 84.4727 -84.1797 57.666 -84.1797 C 30.8594 -84.1797 8.74023 -62.0117 8.74023 -35.2051 C 8.74023 -8.39844 30.8594 13.7695 57.7148 13.7695 Z M 39.7949 -14.1113 C 37.9883 -14.1113 36.5723 -15.5273 36.5723 -17.2852 C 36.5723 -18.2129 36.9141 -18.9453 37.5488 -19.5801 L 53.125 -35.2051 L 37.5488 -50.8301 C 36.9141 -51.416 36.5723 -52.1973 36.5723 -53.0762 C 36.5723 -54.8828 37.9883 -56.25 39.7949 -56.25 C 40.7227 -56.25 41.4551 -55.9082 42.0898 -55.2734 L 57.666 -39.6973 L 73.3398 -55.2734 C 74.0234 -56.0059 74.7559 -56.2988 75.5859 -56.2988 C 77.3926 -56.2988 78.8574 -54.8828 78.8574 -53.125 C 78.8574 -52.2461 78.5645 -51.5137 77.832 -50.8301 L 62.2559 -35.2051 L 77.832 -19.6289 C 78.4668 -18.9941 78.8086 -18.2129 78.8086 -17.2852 C 78.8086 -15.5273 77.3926 -14.1113 75.5859 -14.1113 C 74.6582 -14.1113 73.8281 -14.502 73.2422 -15.0879 L 57.666 -30.6641 L 42.1387 -15.0879 C 41.5039 -14.4531 40.7227 -14.1113 39.7949 -14.1113 Z"/>
  </g>
  <g id="Regular-M" transform="matrix(1 0 0 1 1391.32 1126)">
   <path d="M 58.5449 14.5508 C 85.7422 14.5508 108.35 -8.00781 108.35 -35.2539 C 108.35 -62.4512 85.6934 -85.0586 58.4961 -85.0586 C 31.25 -85.0586 8.74023 -62.4512 8.74023 -35.2539 C 8.74023 -8.00781 31.2988 14.5508 58.5449 14.5508 Z M 41.0156 -13.5742 C 38.7207 -13.5742 36.8652 -15.4297 36.8652 -17.7246 C 36.8652 -18.8477 37.3535 -19.8242 38.1348 -20.5566 L 52.6855 -35.2051 L 38.1348 -49.8535 C 37.3535 -50.5371 36.8652 -51.5625 36.8652 -52.6855 C 36.8652 -54.9316 38.7207 -56.7383 41.0156 -56.7383 C 42.1387 -56.7383 43.1152 -56.2988 43.8477 -55.5176 L 58.4961 -40.918 L 73.2422 -55.5664 C 74.0723 -56.4453 74.9512 -56.8359 76.0254 -56.8359 C 78.3203 -56.8359 80.1758 -54.9805 80.1758 -52.7344 C 80.1758 -51.6113 79.7852 -50.6836 78.9551 -49.9023 L 64.3066 -35.2051 L 78.9062 -20.6543 C 79.6387 -19.873 80.127 -18.8965 80.127 -17.7246 C 80.127 -15.4297 78.2715 -13.5742 75.9766 -13.5742 C 74.8047 -13.5742 73.8281 -14.0625 73.0957 -14.7949 L 58.4961 -29.4434 L 43.9453 -14.7949 C 43.2129 -14.0137 42.1387 -13.5742 41.0156 -13.5742 Z"/>
  </g>
  <g id="Medium-M" transform="matrix(1 0 0 1 1687.33 1126)">
   <path d="M 59.2285 15.2832 C 86.8652 15.2832 109.717 -7.56836 109.717 -35.2051 C 109.717 -62.8906 86.8164 -85.7422 59.1797 -85.7422 C 31.543 -85.7422 8.74023 -62.8906 8.74023 -35.2051 C 8.74023 -7.56836 31.5918 15.2832 59.2285 15.2832 Z M 42.2852 -13.623 C 39.6973 -13.623 37.5977 -15.7227 37.5977 -18.3105 C 37.5977 -19.5801 38.1348 -20.7031 39.0137 -21.5332 L 52.5879 -35.2051 L 39.0137 -48.8281 C 38.1348 -49.6582 37.5977 -50.8301 37.5977 -52.0508 C 37.5977 -54.6875 39.6973 -56.6895 42.2852 -56.6895 C 43.6035 -56.6895 44.7266 -56.2012 45.5566 -55.3223 L 59.1797 -41.748 L 72.9004 -55.3711 C 73.8281 -56.3477 74.9023 -56.7383 76.1719 -56.7383 C 78.8086 -56.7383 80.8594 -54.6875 80.8594 -52.0996 C 80.8594 -50.8301 80.4199 -49.8047 79.4434 -48.877 L 65.8203 -35.2051 L 79.4434 -21.6309 C 80.2734 -20.7031 80.8105 -19.6289 80.8105 -18.3105 C 80.8105 -15.7227 78.7598 -13.623 76.123 -13.623 C 74.7559 -13.623 73.6328 -14.1602 72.8027 -14.9902 L 59.1797 -28.5645 L 45.6543 -14.9902 C 44.7754 -14.1113 43.6035 -13.623 42.2852 -13.623 Z"/>
  </g>
  <g id="Semibold-M" transform="matrix(1 0 0 1 1983.5 1126)">
   <path d="M 59.7656 15.8203 C 87.7441 15.8203 110.791 -7.22656 110.791 -35.2051 C 110.791 -63.1836 87.6953 -86.2793 59.7168 -86.2793 C 31.7383 -86.2793 8.74023 -63.1836 8.74023 -35.2051 C 8.74023 -7.22656 31.7871 15.8203 59.7656 15.8203 Z M 43.2617 -13.6719 C 40.3809 -13.6719 38.1836 -15.918 38.1836 -18.7988 C 38.1836 -20.1172 38.7207 -21.3867 39.6973 -22.3145 L 52.5391 -35.1562 L 39.6973 -48.0469 C 38.7207 -48.9746 38.1836 -50.2441 38.1836 -51.5625 C 38.1836 -54.4434 40.3809 -56.6406 43.2617 -56.6406 C 44.7754 -56.6406 45.9473 -56.1523 46.875 -55.1758 L 59.7168 -42.3828 L 72.6562 -55.1758 C 73.6816 -56.25 74.8535 -56.6895 76.2695 -56.6895 C 79.1504 -56.6895 81.3965 -54.4922 81.3965 -51.6113 C 81.3965 -50.2441 80.9082 -49.0723 79.834 -48.0957 L 66.9922 -35.1562 L 79.834 -22.3633 C 80.8105 -21.3867 81.3477 -20.166 81.3477 -18.7988 C 81.3477 -15.918 79.1016 -13.6719 76.2695 -13.6719 C 74.7559 -13.6719 73.4863 -14.209 72.5586 -15.1855 L 59.7168 -27.9297 L 46.9727 -15.1855 C 45.9961 -14.1602 44.7754 -13.6719 43.2617 -13.6719 Z"/>
  </g>
  <g id="Bold-M" transform="matrix(1 0 0 1 2279.5 1126)">
   <path d="M 60.4492 16.5039 C 88.8672 16.5039 112.207 -6.78711 112.207 -35.2051 C 112.207 -63.623 88.8672 -86.9629 60.4492 -86.9629 C 32.0312 -86.9629 8.74023 -63.623 8.74023 -35.2051 C 8.74023 -6.78711 32.0801 16.5039 60.4492 16.5039 Z M 44.5312 -13.7207 C 41.3574 -13.7207 38.916 -16.1621 38.916 -19.3848 C 38.916 -20.8496 39.502 -22.2168 40.5762 -23.291 L 52.4414 -35.1562 L 40.5762 -47.0215 C 39.502 -48.0957 38.916 -49.4629 38.916 -50.9277 C 38.916 -54.1504 41.3574 -56.5918 44.5312 -56.5918 C 46.2402 -56.5918 47.5586 -56.0547 48.6328 -54.9316 L 60.4492 -43.1641 L 72.3145 -54.9805 C 73.4375 -56.1523 74.7559 -56.6406 76.416 -56.6406 C 79.5898 -56.6406 82.0801 -54.1992 82.0801 -50.9766 C 82.0801 -49.5117 81.4941 -48.1445 80.3711 -47.0703 L 68.5547 -35.1562 L 80.3711 -23.3398 C 81.4453 -22.2656 82.0312 -20.8984 82.0312 -19.3848 C 82.0312 -16.1621 79.5898 -13.7207 76.416 -13.7207 C 74.6582 -13.7207 73.3398 -14.2578 72.2168 -15.3809 L 60.4492 -27.0996 L 48.6816 -15.3809 C 47.6074 -14.2578 46.2402 -13.7207 44.5312 -13.7207 Z"/>
  </g>
  <g id="Heavy-M" transform="matrix(1 0 0 1 2575.19 1126)">
   <path d="M 61.4746 17.5781 C 90.5273 17.5781 114.258 -6.15234 114.258 -35.2051 C 114.258 -64.2578 90.5273 -87.9883 61.4746 -87.9883 C 32.4219 -87.9883 8.74023 -64.2578 8.74023 -35.2051 C 8.74023 -6.15234 32.4707 17.5781 61.4746 17.5781 Z M 46.3867 -13.7695 C 42.7246 -13.7695 39.9414 -16.5527 39.9414 -20.2637 C 39.9414 -21.9238 40.625 -23.4863 41.8945 -24.7559 L 52.2949 -35.1562 L 41.8945 -45.5566 C 40.625 -46.7773 39.9414 -48.3887 39.9414 -50.0488 C 39.9414 -53.7109 42.7246 -56.4941 46.3867 -56.4941 C 48.3887 -56.4941 49.9023 -55.9082 51.2207 -54.6387 L 61.4746 -44.3848 L 71.8262 -54.6387 C 73.0957 -55.957 74.6094 -56.543 76.6113 -56.543 C 80.2734 -56.543 83.0566 -53.7598 83.0566 -50.0488 C 83.0566 -48.3887 82.373 -46.8262 81.1523 -45.5566 L 70.752 -35.1562 L 81.1523 -24.7559 C 82.373 -23.4863 83.0566 -21.9238 83.0566 -20.2637 C 83.0566 -16.5527 80.2734 -13.7695 76.6113 -13.7695 C 74.6094 -13.7695 73.0469 -14.3555 71.7773 -15.6738 L 61.4746 -25.8789 L 51.2207 -15.6738 C 49.9512 -14.3555 48.3887 -13.7695 46.3867 -13.7695 Z"/>
  </g>
  <g id="Black-M" transform="matrix(1 0 0 1 2871 1126)">
   <path d="M 62.4023 18.457 C 91.9922 18.457 116.064 -5.61523 116.064 -35.2051 C 116.064 -64.7949 91.9922 -88.8672 62.4023 -88.8672 C 32.8125 -88.8672 8.74023 -64.7949 8.74023 -35.2051 C 8.74023 -5.61523 32.8125 18.457 62.4023 18.457 Z M 48.0957 -13.8184 C 43.9941 -13.8184 40.918 -16.8945 40.918 -21.0449 C 40.918 -22.9004 41.6504 -24.6582 43.0664 -26.0254 L 52.1484 -35.1562 L 43.0664 -44.2383 C 41.6504 -45.6543 40.918 -47.4121 40.918 -49.2188 C 40.918 -53.3691 43.9941 -56.4453 48.0957 -56.4453 C 50.3418 -56.4453 52.0508 -55.8105 53.4668 -54.3457 L 62.4023 -45.459 L 71.3867 -54.3457 C 72.8027 -55.8105 74.5117 -56.4453 76.8066 -56.4453 C 80.8594 -56.4453 83.9355 -53.3691 83.9355 -49.2188 C 83.9355 -47.4121 83.2031 -45.6055 81.8359 -44.2383 L 72.7539 -35.1562 L 81.8359 -26.0254 C 83.2031 -24.6582 83.9355 -22.9004 83.9355 -21.0449 C 83.9355 -16.8945 80.8594 -13.8184 76.8066 -13.8184 C 74.5117 -13.8184 72.8516 -14.4531 71.3867 -15.918 L 62.4023 -24.7559 L 53.4668 -15.918 C 52.0508 -14.4531 50.3418 -13.8184 48.0957 -13.8184 Z"/>
  </g>
  <g id="Ultralight-L" transform="matrix(1 0 0 1 487.641 1556)">
   <path d="M 72.0703 25.7324 C 105.566 25.7324 132.91 -1.61133 132.91 -35.1074 C 132.91 -68.5547 105.566 -95.8984 72.0703 -95.8984 C 38.623 -95.8984 11.2793 -68.5547 11.2793 -35.1074 C 11.2793 -1.61133 38.623 25.7324 72.0703 25.7324 Z M 47.9004 -9.47266 C 46.9238 -9.47266 46.2891 -10.0586 46.2891 -10.8887 C 46.2891 -11.377 46.3379 -11.7188 46.8262 -12.2559 L 69.8242 -35.2051 L 46.8262 -58.1543 C 46.3867 -58.5938 46.2891 -58.9844 46.2891 -59.4727 C 46.2891 -60.3516 46.9238 -60.8887 47.9004 -60.8887 C 48.4375 -60.8887 48.7793 -60.791 49.3164 -60.2539 L 72.0703 -37.5 L 94.8242 -60.2539 C 95.3613 -60.7422 95.752 -60.8887 96.2402 -60.8887 C 97.2168 -60.8887 97.8516 -60.3027 97.8516 -59.4727 C 97.8516 -58.9844 97.7539 -58.5449 97.3145 -58.1543 L 74.3652 -35.2051 L 97.3145 -12.207 C 97.7539 -11.8164 97.8516 -11.377 97.8516 -10.8887 C 97.8516 -10.0586 97.2168 -9.47266 96.2891 -9.47266 C 95.8008 -9.47266 95.4102 -9.61914 94.873 -10.1074 L 72.0703 -32.9102 L 49.3164 -10.1074 C 48.7793 -9.61914 48.4375 -9.47266 47.9004 -9.47266 Z"/>
  </g>
  <g id="Thin-L" transform="matrix(1 0 0 1 783.717 1556)">
   <path d="M 72.7051 26.3184 C 106.494 26.3184 134.131 -1.36719 134.131 -35.1074 C 134.131 -68.8965 106.445 -96.582 72.7051 -96.582 C 38.916 -96.582 11.2793 -68.8965 11.2793 -35.1074 C 11.2793 -1.36719 38.916 26.3184 72.7051 26.3184 Z M 48.8281 -9.08203 C 47.5098 -9.08203 46.5332 -10.0098 46.5332 -11.2305 C 46.5332 -11.8652 46.6797 -12.3535 47.2656 -12.9883 L 69.4824 -35.2051 L 47.2656 -57.4219 C 46.7285 -57.9102 46.5332 -58.4961 46.5332 -59.1309 C 46.5332 -60.4004 47.5098 -61.2793 48.8281 -61.2793 C 49.5117 -61.2793 50 -61.084 50.6348 -60.4492 L 72.7051 -38.3789 L 94.7754 -60.498 C 95.4102 -61.084 95.9473 -61.2793 96.582 -61.2793 C 97.9004 -61.2793 98.877 -60.4004 98.877 -59.1797 C 98.877 -58.4961 98.6816 -57.959 98.1445 -57.4219 L 75.9277 -35.2051 L 98.1445 -12.9883 C 98.6816 -12.4512 98.877 -11.8652 98.877 -11.2305 C 98.877 -10.0098 97.9004 -9.08203 96.582 -9.08203 C 95.9473 -9.08203 95.3613 -9.27734 94.7754 -9.91211 L 72.7051 -31.9824 L 50.6348 -9.91211 C 50.0488 -9.27734 49.5117 -9.08203 48.8281 -9.08203 Z"/>
  </g>
  <g id="Light-L" transform="matrix(1 0 0 1 1079.21 1556)">
   <path d="M 73.9258 27.4902 C 108.301 27.4902 136.572 -0.830078 136.572 -35.1562 C 136.572 -69.5312 108.252 -97.8516 73.877 -97.8516 C 39.5508 -97.8516 11.2793 -69.5312 11.2793 -35.1562 C 11.2793 -0.830078 39.5508 27.4902 73.9258 27.4902 Z M 50.5859 -8.30078 C 48.584 -8.30078 46.9727 -9.86328 46.9727 -11.8164 C 46.9727 -12.8418 47.3145 -13.6719 48.0957 -14.4043 L 68.8477 -35.2051 L 48.0957 -55.957 C 47.3633 -56.6406 46.9727 -57.5684 46.9727 -58.5449 C 46.9727 -60.498 48.584 -62.0117 50.5859 -62.0117 C 51.6113 -62.0117 52.4414 -61.6699 53.1738 -60.8887 L 73.877 -40.2344 L 94.6777 -60.9375 C 95.459 -61.7676 96.2891 -62.0605 97.2656 -62.0605 C 99.2676 -62.0605 100.879 -60.5469 100.879 -58.5938 C 100.879 -57.5684 100.537 -56.7383 99.7559 -56.0059 L 78.9551 -35.2051 L 99.707 -14.4531 C 100.439 -13.7207 100.83 -12.8418 100.83 -11.8164 C 100.83 -9.86328 99.2676 -8.30078 97.2168 -8.30078 C 96.1914 -8.30078 95.3125 -8.69141 94.5801 -9.47266 L 73.877 -30.127 L 53.2715 -9.47266 C 52.4902 -8.69141 51.6113 -8.30078 50.5859 -8.30078 Z"/>
  </g>
  <g id="Regular-L" transform="matrix(1 0 0 1 1374.99 1556)">
   <path d="M 74.8535 28.3691 C 109.668 28.3691 138.428 -0.390625 138.428 -35.2051 C 138.428 -70.0195 109.619 -98.7793 74.8047 -98.7793 C 39.9902 -98.7793 11.2793 -70.0195 11.2793 -35.2051 C 11.2793 -0.390625 40.0391 28.3691 74.8535 28.3691 Z M 51.9531 -7.71484 C 49.3652 -7.71484 47.3633 -9.76562 47.3633 -12.3047 C 47.3633 -13.5742 47.8027 -14.6484 48.7305 -15.5273 L 68.3594 -35.2051 L 48.7305 -54.8828 C 47.8516 -55.7129 47.3633 -56.8359 47.3633 -58.0566 C 47.3633 -60.5957 49.3652 -62.5488 51.9531 -62.5488 C 53.2227 -62.5488 54.248 -62.1094 55.127 -61.1816 L 74.8047 -41.6016 L 94.5801 -61.2305 C 95.5078 -62.2559 96.5332 -62.6465 97.7539 -62.6465 C 100.293 -62.6465 102.344 -60.6445 102.344 -58.1055 C 102.344 -56.8848 101.953 -55.8594 100.977 -54.9316 L 81.2988 -35.2051 L 100.928 -15.625 C 101.807 -14.6973 102.295 -13.623 102.295 -12.3047 C 102.295 -9.76562 100.244 -7.71484 97.7051 -7.71484 C 96.3867 -7.71484 95.2637 -8.25195 94.4336 -9.13086 L 74.8047 -28.7598 L 55.2246 -9.13086 C 54.3457 -8.20312 53.2227 -7.71484 51.9531 -7.71484 Z"/>
  </g>
  <g id="Medium-L" transform="matrix(1 0 0 1 1670.9 1556)">
   <path d="M 75.6348 29.1992 C 110.938 29.1992 140.039 0.0488281 140.039 -35.2051 C 140.039 -70.459 110.889 -99.6094 75.5859 -99.6094 C 40.332 -99.6094 11.2793 -70.459 11.2793 -35.2051 C 11.2793 0.0488281 40.3809 29.1992 75.6348 29.1992 Z M 53.3691 -7.66602 C 50.3906 -7.66602 48.0469 -10.0098 48.0469 -12.9395 C 48.0469 -14.3555 48.6328 -15.625 49.6582 -16.6016 L 68.1641 -35.1562 L 49.6582 -53.7598 C 48.6328 -54.7363 48.0469 -56.0059 48.0469 -57.4219 C 48.0469 -60.3516 50.3906 -62.5977 53.3691 -62.5977 C 54.8828 -62.5977 56.0547 -62.1094 57.0801 -61.084 L 75.5859 -42.5781 L 94.2383 -61.1328 C 95.3125 -62.2559 96.5332 -62.6953 97.9492 -62.6953 C 100.928 -62.6953 103.271 -60.4004 103.271 -57.4707 C 103.271 -56.0547 102.783 -54.834 101.66 -53.8086 L 83.1055 -35.1562 L 101.611 -16.6992 C 102.637 -15.625 103.223 -14.4043 103.223 -12.9395 C 103.223 -10.0098 100.879 -7.66602 97.9492 -7.66602 C 96.3867 -7.66602 95.1172 -8.25195 94.0918 -9.22852 L 75.5859 -27.7344 L 57.1777 -9.22852 C 56.1523 -8.20312 54.8828 -7.66602 53.3691 -7.66602 Z"/>
  </g>
  <g id="Semibold-L" transform="matrix(1 0 0 1 1967 1556)">
   <path d="M 76.2695 29.7852 C 111.914 29.7852 141.26 0.439453 141.26 -35.2051 C 141.26 -70.8496 111.865 -100.244 76.2207 -100.244 C 40.5762 -100.244 11.2793 -70.8496 11.2793 -35.2051 C 11.2793 0.439453 40.625 29.7852 76.2695 29.7852 Z M 54.4434 -7.61719 C 51.1719 -7.61719 48.6328 -10.1562 48.6328 -13.4277 C 48.6328 -14.9414 49.2188 -16.3574 50.3418 -17.4316 L 68.0664 -35.1562 L 50.3418 -52.8809 C 49.2676 -53.9551 48.6328 -55.3711 48.6328 -56.9336 C 48.6328 -60.1562 51.1719 -62.6465 54.4434 -62.6465 C 56.1035 -62.6465 57.4707 -62.1094 58.5449 -60.9375 L 76.2207 -43.3105 L 93.9941 -60.9863 C 95.166 -62.207 96.4844 -62.7441 98.1445 -62.7441 C 101.367 -62.7441 103.955 -60.2051 103.955 -56.9824 C 103.955 -55.4199 103.369 -54.1016 102.197 -52.9297 L 84.4727 -35.1562 L 102.148 -17.5293 C 103.271 -16.3574 103.906 -14.9902 103.906 -13.4277 C 103.906 -10.1562 101.367 -7.61719 98.0957 -7.61719 C 96.3867 -7.61719 94.9707 -8.25195 93.8965 -9.32617 L 76.2207 -26.9531 L 58.6426 -9.32617 C 57.5195 -8.20312 56.1035 -7.61719 54.4434 -7.61719 Z"/>
  </g>
  <g id="Bold-L" transform="matrix(1 0 0 1 2262.9 1556)">
   <path d="M 77.0996 30.6152 C 113.184 30.6152 142.92 0.878906 142.92 -35.2051 C 142.92 -71.3379 113.135 -101.025 77.0508 -101.025 C 40.918 -101.025 11.2793 -71.3379 11.2793 -35.2051 C 11.2793 0.878906 40.9668 30.6152 77.0996 30.6152 Z M 55.8594 -7.51953 C 52.1973 -7.51953 49.3652 -10.4004 49.3652 -14.0625 C 49.3652 -15.7715 50.0488 -17.334 51.3184 -18.5547 L 67.8711 -35.1562 L 51.3184 -51.7578 C 50.0488 -52.9785 49.3652 -54.541 49.3652 -56.25 C 49.3652 -59.9121 52.1973 -62.6953 55.8594 -62.6953 C 57.7637 -62.6953 59.2773 -62.1094 60.5469 -60.8398 L 77.0508 -44.3359 L 93.6523 -60.8398 C 94.9707 -62.207 96.4844 -62.793 98.3398 -62.793 C 102.002 -62.793 104.834 -59.9609 104.834 -56.2988 C 104.834 -54.5898 104.199 -53.0762 102.881 -51.8066 L 86.3281 -35.1562 L 102.881 -18.6035 C 104.102 -17.334 104.785 -15.8203 104.785 -14.0625 C 104.785 -10.4004 101.953 -7.51953 98.3398 -7.51953 C 96.3867 -7.51953 94.8242 -8.20312 93.5547 -9.47266 L 77.0508 -25.9277 L 60.5957 -9.47266 C 59.375 -8.20312 57.7637 -7.51953 55.8594 -7.51953 Z"/>
  </g>
  <g id="Heavy-L" transform="matrix(1 0 0 1 2558.42 1556)">
   <path d="M 78.2715 31.7871 C 115.039 31.7871 145.264 1.61133 145.264 -35.2051 C 145.264 -72.0215 115.039 -102.197 78.2227 -102.197 C 41.4551 -102.197 11.2793 -72.0215 11.2793 -35.2051 C 11.2793 1.61133 41.4551 31.7871 78.2715 31.7871 Z M 57.9102 -7.42188 C 53.6621 -7.42188 50.4395 -10.7422 50.4395 -14.9902 C 50.4395 -16.9434 51.2207 -18.75 52.6367 -20.166 L 67.627 -35.1562 L 52.6367 -50.1465 C 51.2207 -51.5137 50.4395 -53.3691 50.4395 -55.3223 C 50.4395 -59.5703 53.6621 -62.793 57.9102 -62.793 C 60.1562 -62.793 61.9141 -62.1094 63.3789 -60.6445 L 78.2227 -45.8008 L 93.2129 -60.6445 C 94.7266 -62.207 96.4355 -62.8418 98.6816 -62.8418 C 102.881 -62.8418 106.152 -59.5703 106.152 -55.3223 C 106.152 -53.3691 105.42 -51.6113 103.906 -50.1465 L 88.9648 -35.1562 L 103.906 -20.2148 C 105.322 -18.75 106.104 -16.9434 106.104 -14.9902 C 106.104 -10.7422 102.881 -7.42188 98.6328 -7.42188 C 96.3379 -7.42188 94.5801 -8.20312 93.1152 -9.61914 L 78.2227 -24.4141 L 63.4277 -9.61914 C 61.9629 -8.1543 60.1562 -7.42188 57.9102 -7.42188 Z"/>
  </g>
  <g id="Black-L" transform="matrix(1 0 0 1 2854.08 1556)">
   <path d="M 79.2969 32.8613 C 116.748 32.8613 147.363 2.19727 147.363 -35.2051 C 147.363 -72.6074 116.699 -103.271 79.2969 -103.271 C 41.8945 -103.271 11.2793 -72.6074 11.2793 -35.2051 C 11.2793 2.19727 41.8945 32.8613 79.2969 32.8613 Z M 59.7656 -7.37305 C 55.0293 -7.37305 51.3672 -11.0352 51.3672 -15.8203 C 51.3672 -17.9688 52.2949 -20.0195 53.8574 -21.582 L 67.3828 -35.1074 L 53.8574 -48.6816 C 52.2949 -50.2441 51.3672 -52.2949 51.3672 -54.4434 C 51.3672 -59.2285 55.0293 -62.8418 59.7656 -62.8418 C 62.3047 -62.8418 64.3066 -62.1094 65.918 -60.4492 L 79.2969 -47.0703 L 92.7734 -60.4492 C 94.4336 -62.1582 96.3867 -62.8906 98.9258 -62.8906 C 103.711 -62.8906 107.324 -59.2773 107.324 -54.4434 C 107.324 -52.2949 106.445 -50.293 104.834 -48.6816 L 91.3574 -35.1074 L 104.785 -21.6309 C 106.396 -20.0195 107.275 -18.0176 107.275 -15.8203 C 107.275 -11.0352 103.662 -7.37305 98.9258 -7.37305 C 96.3379 -7.37305 94.3359 -8.1543 92.7246 -9.81445 L 79.2969 -23.0957 L 65.9668 -9.81445 C 64.3555 -8.1543 62.3047 -7.37305 59.7656 -7.37305 Z"/>
  </g>
 </g>
</svg>
