<?xml version="1.0" encoding="UTF-8"?>
<!--Generator: Apple Native CoreSVG 123-->
<!DOCTYPE svg
PUBLIC "-//W3C//DTD SVG 1.1//EN"
       "http://www.w3.org/Graphics/SVG/1.1/DTD/svg11.dtd">
<svg version="1.1" xmlns="http://www.w3.org/2000/svg" xmlns:xlink="http://www.w3.org/1999/xlink" width="3300" height="2200">
 <!--glyph: "uni100682.medium", point size: 100.000000, font version: "Version 15.0d4e20", template writer version: "2"-->
 <g id="Notes">
  <rect height="2200" id="artboard" style="fill:white;opacity:1" width="3300" x="0" y="0"/>
  <line id="" style="fill:none;stroke:black;opacity:1;stroke-width:0.5;" x1="263" x2="3036" y1="292" y2="292"/>
  <text style="stroke:none;fill:black;font-family:-apple-system,&quot;SF Pro Display&quot;,&quot;SF Pro Text&quot;,Helvetica,sans-serif;font-weight:bold;" transform="matrix(1 0 0 1 263 322)">Weight/Scale Variations</text>
  <text style="stroke:none;fill:black;font-family:-apple-system,&quot;SF Pro Display&quot;,&quot;SF Pro Text&quot;,Helvetica,sans-serif;text-anchor:middle;" transform="matrix(1 0 0 1 559.711 322)">Ultralight</text>
  <text style="stroke:none;fill:black;font-family:-apple-system,&quot;SF Pro Display&quot;,&quot;SF Pro Text&quot;,Helvetica,sans-serif;text-anchor:middle;" transform="matrix(1 0 0 1 856.422 322)">Thin</text>
  <text style="stroke:none;fill:black;font-family:-apple-system,&quot;SF Pro Display&quot;,&quot;SF Pro Text&quot;,Helvetica,sans-serif;text-anchor:middle;" transform="matrix(1 0 0 1 1153.13 322)">Light</text>
  <text style="stroke:none;fill:black;font-family:-apple-system,&quot;SF Pro Display&quot;,&quot;SF Pro Text&quot;,Helvetica,sans-serif;text-anchor:middle;" transform="matrix(1 0 0 1 1449.84 322)">Regular</text>
  <text style="stroke:none;fill:black;font-family:-apple-system,&quot;SF Pro Display&quot;,&quot;SF Pro Text&quot;,Helvetica,sans-serif;text-anchor:middle;" transform="matrix(1 0 0 1 1746.56 322)">Medium</text>
  <text style="stroke:none;fill:black;font-family:-apple-system,&quot;SF Pro Display&quot;,&quot;SF Pro Text&quot;,Helvetica,sans-serif;text-anchor:middle;" transform="matrix(1 0 0 1 2043.27 322)">Semibold</text>
  <text style="stroke:none;fill:black;font-family:-apple-system,&quot;SF Pro Display&quot;,&quot;SF Pro Text&quot;,Helvetica,sans-serif;text-anchor:middle;" transform="matrix(1 0 0 1 2339.98 322)">Bold</text>
  <text style="stroke:none;fill:black;font-family:-apple-system,&quot;SF Pro Display&quot;,&quot;SF Pro Text&quot;,Helvetica,sans-serif;text-anchor:middle;" transform="matrix(1 0 0 1 2636.69 322)">Heavy</text>
  <text style="stroke:none;fill:black;font-family:-apple-system,&quot;SF Pro Display&quot;,&quot;SF Pro Text&quot;,Helvetica,sans-serif;text-anchor:middle;" transform="matrix(1 0 0 1 2933.4 322)">Black</text>
  <line id="" style="fill:none;stroke:black;opacity:1;stroke-width:0.5;" x1="263" x2="3036" y1="1903" y2="1903"/>
  <g id="" transform="matrix(1 0 0 1 263 1933)">
   <path d="M 9.24805 0.830078 C 13.5547 0.830078 17.1387 -2.74414 17.1387 -7.05078 C 17.1387 -11.3574 13.5449 -14.9316 9.23828 -14.9316 C 4.94141 -14.9316 1.36719 -11.3574 1.36719 -7.05078 C 1.36719 -2.74414 4.95117 0.830078 9.24805 0.830078 Z M 9.24805 -0.654297 C 5.70312 -0.654297 2.87109 -3.49609 2.87109 -7.05078 C 2.87109 -10.6055 5.69336 -13.4473 9.23828 -13.4473 C 12.793 -13.4473 15.6348 -10.6055 15.6445 -7.05078 C 15.6543 -3.49609 12.8027 -0.654297 9.24805 -0.654297 Z M 9.22852 -3.42773 C 9.69727 -3.42773 9.9707 -3.74023 9.9707 -4.25781 L 9.9707 -6.31836 L 12.1973 -6.31836 C 12.6953 -6.31836 13.0371 -6.57227 13.0371 -7.04102 C 13.0371 -7.51953 12.7148 -7.7832 12.1973 -7.7832 L 9.9707 -7.7832 L 9.9707 -10.0098 C 9.9707 -10.5273 9.69727 -10.8496 9.22852 -10.8496 C 8.75977 -10.8496 8.50586 -10.5078 8.50586 -10.0098 L 8.50586 -7.7832 L 6.29883 -7.7832 C 5.78125 -7.7832 5.44922 -7.51953 5.44922 -7.04102 C 5.44922 -6.57227 5.80078 -6.31836 6.29883 -6.31836 L 8.50586 -6.31836 L 8.50586 -4.25781 C 8.50586 -3.75977 8.75977 -3.42773 9.22852 -3.42773 Z"/>
  </g>
  <g id="" transform="matrix(1 0 0 1 281.506 1933)">
   <path d="M 11.709 2.91016 C 17.1484 2.91016 21.6699 -1.60156 21.6699 -7.05078 C 21.6699 -12.4902 17.1387 -17.0117 11.6992 -17.0117 C 6.25 -17.0117 1.74805 -12.4902 1.74805 -7.05078 C 1.74805 -1.60156 6.25977 2.91016 11.709 2.91016 Z M 11.709 1.25 C 7.09961 1.25 3.41797 -2.44141 3.41797 -7.05078 C 3.41797 -11.6504 7.08984 -15.3516 11.6992 -15.3516 C 16.2988 -15.3516 20 -11.6504 20.0098 -7.05078 C 20.0195 -2.44141 16.3086 1.25 11.709 1.25 Z M 11.6797 -2.41211 C 12.207 -2.41211 12.5195 -2.77344 12.5195 -3.33984 L 12.5195 -6.23047 L 15.5762 -6.23047 C 16.123 -6.23047 16.5039 -6.51367 16.5039 -7.03125 C 16.5039 -7.55859 16.1426 -7.86133 15.5762 -7.86133 L 12.5195 -7.86133 L 12.5195 -10.9277 C 12.5195 -11.5039 12.207 -11.8555 11.6797 -11.8555 C 11.1621 -11.8555 10.8789 -11.4844 10.8789 -10.9277 L 10.8789 -7.86133 L 7.83203 -7.86133 C 7.25586 -7.86133 6.89453 -7.55859 6.89453 -7.03125 C 6.89453 -6.51367 7.28516 -6.23047 7.83203 -6.23047 L 10.8789 -6.23047 L 10.8789 -3.33984 C 10.8789 -2.79297 11.1621 -2.41211 11.6797 -2.41211 Z"/>
  </g>
  <g id="" transform="matrix(1 0 0 1 304.914 1933)">
   <path d="M 14.9707 5.67383 C 21.9336 5.67383 27.6855 -0.078125 27.6855 -7.04102 C 27.6855 -14.0039 21.9238 -19.7559 14.9609 -19.7559 C 7.99805 -19.7559 2.25586 -14.0039 2.25586 -7.04102 C 2.25586 -0.078125 8.00781 5.67383 14.9707 5.67383 Z M 14.9707 3.85742 C 8.92578 3.85742 4.08203 -1.00586 4.08203 -7.04102 C 4.08203 -13.0762 8.91602 -17.9395 14.9609 -17.9395 C 20.9961 -17.9395 25.8594 -13.0762 25.8691 -7.04102 C 25.8789 -1.00586 21.0059 3.85742 14.9707 3.85742 Z M 14.9414 -1.06445 C 15.5176 -1.06445 15.8594 -1.45508 15.8594 -2.06055 L 15.8594 -6.13281 L 20.0977 -6.13281 C 20.6934 -6.13281 21.1133 -6.46484 21.1133 -7.02148 C 21.1133 -7.59766 20.7227 -7.93945 20.0977 -7.93945 L 15.8594 -7.93945 L 15.8594 -12.1875 C 15.8594 -12.8027 15.5176 -13.1934 14.9414 -13.1934 C 14.3848 -13.1934 14.0625 -12.7832 14.0625 -12.1875 L 14.0625 -7.93945 L 9.82422 -7.93945 C 9.20898 -7.93945 8.80859 -7.59766 8.80859 -7.02148 C 8.80859 -6.46484 9.23828 -6.13281 9.82422 -6.13281 L 14.0625 -6.13281 L 14.0625 -2.06055 C 14.0625 -1.47461 14.3848 -1.06445 14.9414 -1.06445 Z"/>
  </g>
  <text style="stroke:none;fill:black;font-family:-apple-system,&quot;SF Pro Display&quot;,&quot;SF Pro Text&quot;,Helvetica,sans-serif;font-weight:bold;" transform="matrix(1 0 0 1 263 1953)">Design Variations</text>
  <text style="stroke:none;fill:black;font-family:-apple-system,&quot;SF Pro Display&quot;,&quot;SF Pro Text&quot;,Helvetica,sans-serif;" transform="matrix(1 0 0 1 263 1971)">Symbols are supported in up to nine weights and three scales.</text>
  <text style="stroke:none;fill:black;font-family:-apple-system,&quot;SF Pro Display&quot;,&quot;SF Pro Text&quot;,Helvetica,sans-serif;" transform="matrix(1 0 0 1 263 1989)">For optimal layout with text and other symbols, vertically align</text>
  <text style="stroke:none;fill:black;font-family:-apple-system,&quot;SF Pro Display&quot;,&quot;SF Pro Text&quot;,Helvetica,sans-serif;" transform="matrix(1 0 0 1 263 2007)">symbols with the adjacent text.</text>
  <rect height="14" id="" style="fill:#00AEEF;stroke:none;opacity:0.4;" width="3" x="776" y="1919"/>
  <g id="" transform="matrix(1 0 0 1 779 1933)">
   <path d="M 10.5273 0 L 12.373 0 L 7.17773 -14.0918 L 5.43945 -14.0918 L 0.244141 0 L 2.08984 0 L 3.50586 -4.0332 L 9.11133 -4.0332 Z M 6.2793 -11.9531 L 6.33789 -11.9531 L 8.59375 -5.52734 L 4.02344 -5.52734 Z"/>
  </g>
  <rect height="14" id="" style="fill:#00AEEF;stroke:none;opacity:0.4;" width="3" x="791.617" y="1919"/>
  <text style="stroke:none;fill:black;font-family:-apple-system,&quot;SF Pro Display&quot;,&quot;SF Pro Text&quot;,Helvetica,sans-serif;font-weight:bold;" transform="matrix(1 0 0 1 776 1953)">Side Bearings</text>
  <text style="stroke:none;fill:black;font-family:-apple-system,&quot;SF Pro Display&quot;,&quot;SF Pro Text&quot;,Helvetica,sans-serif;" transform="matrix(1 0 0 1 776 1971)">Horizontal padding on the left and right side of each symbol</text>
  <text style="stroke:none;fill:black;font-family:-apple-system,&quot;SF Pro Display&quot;,&quot;SF Pro Text&quot;,Helvetica,sans-serif;" transform="matrix(1 0 0 1 776 1989)">can be adjusted by modifying the width of the blue rectangles.</text>
  <text style="stroke:none;fill:black;font-family:-apple-system,&quot;SF Pro Display&quot;,&quot;SF Pro Text&quot;,Helvetica,sans-serif;" transform="matrix(1 0 0 1 776 2007)">Modifications are automatically applied proportionally to all</text>
  <text style="stroke:none;fill:black;font-family:-apple-system,&quot;SF Pro Display&quot;,&quot;SF Pro Text&quot;,Helvetica,sans-serif;" transform="matrix(1 0 0 1 776 2025)">scales and weights.</text>
  <g id="" transform="matrix(1 0 0 1 1289 1933)">
   <path d="M 2.96875 2.35352 L 3.80859 3.19336 C 4.84375 4.22852 6.12305 4.15039 7.19727 2.97852 L 16.1621 -6.82617 C 16.5527 -6.74805 16.9629 -6.8457 17.4902 -7.02148 C 18.1738 -7.25586 18.2715 -7.25586 18.3887 -7.13867 C 18.5352 -7.01172 18.4863 -6.89453 18.2422 -6.25 C 17.8809 -5.33203 17.8125 -4.79492 18.5547 -4.02344 L 19.4238 -3.13477 C 20.2734 -2.24609 21.3281 -2.26562 22.2168 -3.14453 L 25.0586 -5.97656 C 25.9473 -6.86523 25.957 -7.92969 25.0781 -8.7793 L 24.1797 -9.64844 C 23.4082 -10.4004 22.8711 -10.3516 21.9629 -9.98047 C 21.3184 -9.72656 21.2012 -9.6875 21.0645 -9.81445 C 20.9375 -9.93164 20.9473 -10.0391 21.1816 -10.7129 C 21.5332 -11.6895 21.5723 -12.2852 20.752 -13.0957 L 19.3359 -14.5117 C 15.1953 -18.6133 11.2305 -18.7402 7.65625 -15.4395 C 7.08008 -14.9023 6.99219 -14.1504 7.53906 -13.6133 L 7.79297 -13.3594 C 8.22266 -12.9297 8.86719 -12.8418 9.41406 -13.1152 C 11.0645 -13.9453 12.2559 -14.0234 13.457 -12.9785 L 13.0273 -11.416 C 12.8516 -10.8008 12.793 -10.3418 12.9199 -9.93164 L 3.18359 -1.04492 C 2.02148 0.0292969 1.93359 1.32812 2.96875 2.35352 Z M 8.96484 -14.4922 C 8.89648 -14.5703 8.86719 -14.6582 8.99414 -14.7559 C 11.709 -17.2852 15.0391 -16.8457 18.3496 -13.5254 L 19.6973 -12.168 C 20.0879 -11.7773 20.0977 -11.582 19.8828 -10.8691 C 19.6582 -10.127 19.502 -9.53125 20.1465 -8.88672 C 20.8105 -8.22266 21.2891 -8.41797 22.207 -8.63281 C 22.9004 -8.79883 23.0664 -8.79883 23.4473 -8.41797 L 24.0918 -7.77344 C 24.4043 -7.48047 24.4141 -7.32422 24.0723 -6.97266 L 21.2207 -4.13086 C 20.8887 -3.79883 20.7227 -3.79883 20.4297 -4.10156 L 19.7852 -4.75586 C 19.4141 -5.13672 19.4141 -5.30273 19.5801 -6.01562 C 19.7852 -6.88477 19.9805 -7.38281 19.3262 -8.04688 C 18.6719 -8.7207 18.0762 -8.57422 17.3438 -8.33008 C 16.5625 -8.06641 16.3281 -8.06641 15.8984 -8.49609 L 14.6094 -9.78516 C 14.1699 -10.2246 14.1309 -10.4395 14.2676 -10.9082 L 15.0293 -13.3984 C 13.3887 -15.2832 11.4941 -15.5566 9.20898 -14.4434 C 9.11133 -14.3945 9.04297 -14.4141 8.96484 -14.4922 Z M 3.96484 1.36719 C 3.52539 0.927734 3.54492 0.537109 4.14062 -0.00976562 L 13.7402 -8.81836 L 15 -7.55859 L 6.17188 2.02148 C 5.625 2.60742 5.24414 2.64648 4.79492 2.19727 Z"/>
  </g>
  <text style="stroke:none;fill:black;font-family:-apple-system,&quot;SF Pro Display&quot;,&quot;SF Pro Text&quot;,Helvetica,sans-serif;font-weight:bold;" transform="matrix(1 0 0 1 1289 1953)">Exporting</text>
  <text style="stroke:none;fill:black;font-family:-apple-system,&quot;SF Pro Display&quot;,&quot;SF Pro Text&quot;,Helvetica,sans-serif;" transform="matrix(1 0 0 1 1289 1971)">Symbols should be outlined when exporting to ensure the</text>
  <text style="stroke:none;fill:black;font-family:-apple-system,&quot;SF Pro Display&quot;,&quot;SF Pro Text&quot;,Helvetica,sans-serif;" transform="matrix(1 0 0 1 1289 1989)">design is preserved when submitting to Xcode.</text>
  <text id="template-version" style="stroke:none;fill:black;font-family:-apple-system,&quot;SF Pro Display&quot;,&quot;SF Pro Text&quot;,Helvetica,sans-serif;text-anchor:end;" transform="matrix(1 0 0 1 3036 1933)">Template v.0.1</text>
  <text style="stroke:none;fill:black;font-family:-apple-system,&quot;SF Pro Display&quot;,&quot;SF Pro Text&quot;,Helvetica,sans-serif;text-anchor:end;" transform="matrix(1 0 0 1 3036 1951)">Generated from arrow.clockwise.circle.fill</text>
  <text style="stroke:none;fill:black;font-family:-apple-system,&quot;SF Pro Display&quot;,&quot;SF Pro Text&quot;,Helvetica,sans-serif;text-anchor:end;" transform="matrix(1 0 0 1 3036 1969)">Typeset at 100 points</text>
  <text style="stroke:none;fill:black;font-family:-apple-system,&quot;SF Pro Display&quot;,&quot;SF Pro Text&quot;,Helvetica,sans-serif;" transform="matrix(1 0 0 1 263 726)">Small</text>
  <text style="stroke:none;fill:black;font-family:-apple-system,&quot;SF Pro Display&quot;,&quot;SF Pro Text&quot;,Helvetica,sans-serif;" transform="matrix(1 0 0 1 263 1156)">Medium</text>
  <text style="stroke:none;fill:black;font-family:-apple-system,&quot;SF Pro Display&quot;,&quot;SF Pro Text&quot;,Helvetica,sans-serif;" transform="matrix(1 0 0 1 263 1586)">Large</text>
 </g>
 <g id="Guides">
  <g id="H-reference" style="fill:#27AAE1;stroke:none;" transform="matrix(1 0 0 1 339 696)">
   <path d="M 54.9316 0 L 57.666 0 L 30.5664 -70.459 L 28.0762 -70.459 L 0.976562 0 L 3.66211 0 L 12.9395 -24.4629 L 45.7031 -24.4629 Z M 29.1992 -67.0898 L 29.4434 -67.0898 L 44.8242 -26.709 L 13.8184 -26.709 Z"/>
  </g>
  <line id="Baseline-S" style="fill:none;stroke:#27AAE1;opacity:1;stroke-width:0.577;" x1="263" x2="3036" y1="696" y2="696"/>
  <line id="Capline-S" style="fill:none;stroke:#27AAE1;opacity:1;stroke-width:0.577;" x1="263" x2="3036" y1="625.541" y2="625.541"/>
  <g id="H-reference" style="fill:#27AAE1;stroke:none;" transform="matrix(1 0 0 1 339 1126)">
   <path d="M 54.9316 0 L 57.666 0 L 30.5664 -70.459 L 28.0762 -70.459 L 0.976562 0 L 3.66211 0 L 12.9395 -24.4629 L 45.7031 -24.4629 Z M 29.1992 -67.0898 L 29.4434 -67.0898 L 44.8242 -26.709 L 13.8184 -26.709 Z"/>
  </g>
  <line id="Baseline-M" style="fill:none;stroke:#27AAE1;opacity:1;stroke-width:0.577;" x1="263" x2="3036" y1="1126" y2="1126"/>
  <line id="Capline-M" style="fill:none;stroke:#27AAE1;opacity:1;stroke-width:0.577;" x1="263" x2="3036" y1="1055.54" y2="1055.54"/>
  <g id="H-reference" style="fill:#27AAE1;stroke:none;" transform="matrix(1 0 0 1 339 1556)">
   <path d="M 54.9316 0 L 57.666 0 L 30.5664 -70.459 L 28.0762 -70.459 L 0.976562 0 L 3.66211 0 L 12.9395 -24.4629 L 45.7031 -24.4629 Z M 29.1992 -67.0898 L 29.4434 -67.0898 L 44.8242 -26.709 L 13.8184 -26.709 Z"/>
  </g>
  <line id="Baseline-L" style="fill:none;stroke:#27AAE1;opacity:1;stroke-width:0.577;" x1="263" x2="3036" y1="1556" y2="1556"/>
  <line id="Capline-L" style="fill:none;stroke:#27AAE1;opacity:1;stroke-width:0.577;" x1="263" x2="3036" y1="1485.54" y2="1485.54"/>
  <rect height="119.336" id="left-margin" style="fill:#00AEEF;stroke:none;opacity:0.4;" width="8.74023" x="1391.32" y="1030.79"/>
  <rect height="119.336" id="right-margin" style="fill:#00AEEF;stroke:none;opacity:0.4;" width="8.69141" x="1499.67" y="1030.79"/>
 </g>
 <g id="Symbols">
  <g id="Ultralight-S" transform="matrix(1 0 0 1 515.644 696)">
   <path d="M 44.043 2.09961 C 64.502 2.09961 81.2988 -14.6484 81.2988 -35.1074 C 81.2988 -55.5664 64.502 -72.3145 44.043 -72.3145 C 23.584 -72.3145 6.83594 -55.5664 6.83594 -35.1074 C 6.83594 -14.6484 23.584 2.09961 44.043 2.09961 Z M 27.9297 -33.3984 C 27.9297 -42.4316 35.0586 -49.4629 43.9941 -49.4629 C 45.3613 -49.4629 46.6797 -49.2676 47.8027 -49.1211 L 41.6504 -55.2246 C 41.3574 -55.5664 41.3574 -55.8594 41.3574 -56.1523 C 41.3574 -56.8359 41.8457 -57.2754 42.4805 -57.2754 C 42.8711 -57.2754 43.1641 -57.0801 43.5059 -56.7383 L 51.5625 -48.4375 C 52.0996 -47.8516 52.002 -46.9238 51.5625 -46.4355 L 43.3105 -37.8418 C 43.1152 -37.6953 42.8223 -37.5488 42.5293 -37.5488 C 41.8457 -37.5488 41.4062 -38.0859 41.4062 -38.623 C 41.4062 -39.0625 41.5039 -39.3555 41.8945 -39.7461 L 48.877 -46.7285 C 47.5098 -47.0703 45.8984 -47.2168 44.043 -47.2168 C 36.2793 -47.2168 30.1758 -41.1621 30.1758 -33.3984 C 30.1758 -25.5859 36.2793 -19.4824 44.043 -19.4824 C 51.8066 -19.4824 57.9102 -25.6348 57.9102 -33.3984 C 57.9102 -33.9844 58.3984 -34.5215 59.082 -34.5215 C 59.6191 -34.5215 60.1562 -33.9844 60.1562 -33.3984 C 60.1562 -24.3164 53.125 -17.2363 44.043 -17.2363 C 35.0586 -17.2363 27.9297 -24.3164 27.9297 -33.3984 Z"/>
  </g>
  <g id="Thin-S" transform="matrix(1 0 0 1 811.867 696)">
   <path d="M 44.5801 2.58789 C 65.2832 2.58789 82.2754 -14.4043 82.2754 -35.1562 C 82.2754 -55.8594 65.2344 -72.8516 44.5312 -72.8516 C 23.8281 -72.8516 6.83594 -55.8594 6.83594 -35.1562 C 6.83594 -14.4043 23.877 2.58789 44.5801 2.58789 Z M 28.0762 -33.4473 C 28.0762 -42.627 35.4004 -49.7559 44.3359 -49.7559 C 45.4102 -49.7559 46.4355 -49.6094 47.3145 -49.5117 L 42.1387 -54.6875 C 41.7969 -55.0293 41.748 -55.4688 41.748 -55.8594 C 41.748 -56.7383 42.3828 -57.373 43.2617 -57.373 C 43.7012 -57.373 44.0918 -57.1777 44.4336 -56.7871 L 52.3438 -48.6816 C 52.9785 -47.9492 52.9297 -46.8262 52.3438 -46.1914 L 44.2871 -37.9395 C 44.043 -37.6953 43.6523 -37.5 43.2617 -37.5 C 42.3828 -37.5 41.748 -38.1836 41.748 -38.9648 C 41.748 -39.4531 41.8945 -39.8438 42.334 -40.2832 L 48.3887 -46.3379 C 47.3145 -46.582 45.9961 -46.6797 44.5312 -46.6797 C 37.0605 -46.6797 31.2012 -40.8691 31.2012 -33.4473 C 31.2012 -25.9277 37.0605 -20.0195 44.5312 -20.0195 C 52.002 -20.0195 57.8613 -25.9277 57.8613 -33.4473 C 57.8613 -34.2285 58.5449 -34.9609 59.4727 -34.9609 C 60.2539 -34.9609 60.9863 -34.2285 60.9863 -33.4473 C 60.9863 -24.2188 53.7598 -16.8945 44.5312 -16.8945 C 35.3516 -16.8945 28.0762 -24.2188 28.0762 -33.4473 Z"/>
  </g>
  <g id="Light-S" transform="matrix(1 0 0 1 1107.6 696)">
   <path d="M 45.5078 3.51562 C 66.6992 3.51562 84.2285 -14.0137 84.2285 -35.1562 C 84.2285 -56.3477 66.6504 -73.877 45.5078 -73.877 C 24.3164 -73.877 6.83594 -56.3477 6.83594 -35.1562 C 6.83594 -14.0137 24.3652 3.51562 45.5078 3.51562 Z M 28.3691 -33.5449 C 28.3691 -43.0176 36.084 -50.3906 44.873 -50.3906 C 45.4102 -50.3906 45.9961 -50.3418 46.4355 -50.293 L 43.0664 -53.6621 C 42.627 -54.1016 42.4805 -54.6875 42.4805 -55.2734 C 42.4805 -56.543 43.4082 -57.5195 44.6777 -57.5195 C 45.3125 -57.5195 45.8984 -57.2754 46.3379 -56.7871 L 53.9062 -49.0723 C 54.7363 -48.1934 54.7363 -46.6309 53.9062 -45.752 L 46.2402 -38.0859 C 45.8496 -37.6465 45.2637 -37.4023 44.6777 -37.4023 C 43.4082 -37.4023 42.4805 -38.3789 42.4805 -39.5996 C 42.4805 -40.2832 42.7246 -40.8203 43.1641 -41.2598 L 47.5098 -45.5566 C 46.9727 -45.7031 46.2402 -45.752 45.5078 -45.752 C 38.623 -45.752 33.1543 -40.2832 33.1543 -33.4473 C 33.1543 -26.5625 38.623 -21.0938 45.5078 -21.0938 C 52.3438 -21.0938 57.8125 -26.5625 57.8125 -33.4473 C 57.8125 -34.7168 58.8867 -35.791 60.2051 -35.791 C 61.4746 -35.791 62.5977 -34.7168 62.5977 -33.4473 C 62.5977 -23.9746 54.9805 -16.3086 45.5078 -16.3086 C 35.9863 -16.3086 28.3691 -23.9746 28.3691 -33.5449 Z"/>
  </g>
  <g id="Regular-S" transform="matrix(1 0 0 1 1403.58 696)">
   <path d="M 46.2402 4.19922 C 67.7734 4.19922 85.6934 -13.6719 85.6934 -35.2051 C 85.6934 -56.7383 67.7246 -74.6094 46.1914 -74.6094 C 24.707 -74.6094 6.83594 -56.7383 6.83594 -35.2051 C 6.83594 -13.6719 24.7559 4.19922 46.2402 4.19922 Z M 28.6133 -33.6426 C 28.6133 -43.3105 36.6211 -50.8789 45.3125 -50.8789 C 45.459 -50.8789 45.6543 -50.8789 45.752 -50.8789 L 43.75 -52.8809 C 43.3105 -53.3691 43.0176 -54.1016 43.0176 -54.8828 C 43.0176 -56.3965 44.1895 -57.666 45.752 -57.666 C 46.5332 -57.666 47.2656 -57.373 47.7539 -56.8359 L 55.0781 -49.4141 C 56.0059 -48.3887 56.1035 -46.4844 55.0781 -45.4102 L 47.7051 -38.1836 C 47.168 -37.6465 46.4844 -37.3047 45.752 -37.3047 C 44.1895 -37.3047 43.0176 -38.5254 43.0176 -40.0391 C 43.0176 -40.8691 43.3105 -41.5039 43.7988 -41.9922 L 46.8262 -44.9707 C 46.6797 -44.9707 46.3867 -45.0195 46.1914 -45.0195 C 39.7949 -45.0195 34.668 -39.8926 34.668 -33.4961 C 34.668 -27.0508 39.7949 -21.875 46.1914 -21.875 C 52.6367 -21.875 57.7637 -27.0508 57.7637 -33.4961 C 57.7637 -35.1074 59.1309 -36.4746 60.791 -36.4746 C 62.4512 -36.4746 63.8184 -35.1074 63.8184 -33.4961 C 63.8184 -23.7793 55.957 -15.8691 46.1914 -15.8691 C 36.4746 -15.8691 28.6133 -23.7793 28.6133 -33.6426 Z"/>
  </g>
  <g id="Medium-S" transform="matrix(1 0 0 1 1699.7 696)">
   <path d="M 46.8262 4.83398 C 68.75 4.83398 86.8652 -13.2812 86.8652 -35.2051 C 86.8652 -57.0801 68.7012 -75.1953 46.8262 -75.1953 C 24.9023 -75.1953 6.83594 -57.0801 6.83594 -35.2051 C 6.83594 -13.2812 24.9512 4.83398 46.8262 4.83398 Z M 29.2969 -33.5938 C 29.2969 -42.9199 36.7676 -50.3906 45.2148 -50.7812 C 45.3613 -50.7812 45.6055 -50.7812 45.752 -50.7812 L 44.1406 -52.3926 C 43.6523 -52.9297 43.3105 -53.6133 43.3105 -54.4922 C 43.3105 -56.0547 44.5312 -57.4707 46.3379 -57.4707 C 47.2168 -57.4707 47.998 -57.0801 48.584 -56.4941 L 55.7129 -49.2676 C 56.7871 -48.1445 56.8359 -46.0449 55.7129 -44.873 L 48.5352 -37.793 C 47.9492 -37.2559 47.168 -36.8652 46.3867 -36.8652 C 44.6289 -36.8652 43.3594 -38.1348 43.3594 -39.8438 C 43.3594 -40.625 43.6035 -41.3086 43.9941 -41.748 L 46.3867 -44.1406 C 46.1914 -44.0918 45.8984 -44.0918 45.7031 -44.043 C 40.1855 -43.8477 35.8887 -39.1602 35.8887 -33.4961 C 35.8887 -27.3926 40.7227 -22.5586 46.8262 -22.5586 C 52.8809 -22.5586 57.7148 -27.3926 57.7148 -33.4961 C 57.7148 -35.2539 59.1797 -36.7188 61.0352 -36.7188 C 62.8418 -36.7188 64.3066 -35.2539 64.3066 -33.4961 C 64.3066 -23.7793 56.4941 -15.918 46.8262 -15.918 C 37.1582 -15.918 29.2969 -23.7793 29.2969 -33.5938 Z"/>
  </g>
  <g id="Semibold-S" transform="matrix(1 0 0 1 1995.98 696)">
   <path d="M 47.3145 5.27344 C 69.4824 5.27344 87.7441 -12.9883 87.7441 -35.2051 C 87.7441 -57.373 69.4336 -75.6348 47.2656 -75.6348 C 25.0977 -75.6348 6.83594 -57.373 6.83594 -35.2051 C 6.83594 -12.9883 25.0977 5.27344 47.3145 5.27344 Z M 29.7852 -33.5449 C 29.7852 -42.627 36.9141 -50.0488 45.1172 -50.6836 C 45.2637 -50.6836 45.5566 -50.6836 45.7031 -50.7324 L 44.3848 -52.0508 C 43.9453 -52.5879 43.5547 -53.2227 43.5547 -54.1992 C 43.5547 -55.8105 44.7754 -57.2754 46.7773 -57.2754 C 47.7539 -57.2754 48.584 -56.8359 49.2188 -56.2012 L 56.2012 -49.1699 C 57.3242 -47.9492 57.4219 -45.752 56.1523 -44.4824 L 49.1211 -37.5 C 48.584 -36.9141 47.7051 -36.5234 46.875 -36.5234 C 45.0195 -36.5234 43.6035 -37.793 43.6035 -39.7461 C 43.6035 -40.4785 43.7988 -41.1133 44.1895 -41.5527 L 46.0938 -43.5059 C 45.8496 -43.4082 45.5566 -43.3594 45.3125 -43.3105 C 40.5273 -43.0176 36.8652 -38.5742 36.8652 -33.4961 C 36.8652 -27.6855 41.4551 -23.0469 47.2656 -23.0469 C 53.0273 -23.0469 57.666 -27.6855 57.666 -33.4961 C 57.666 -35.3516 59.2285 -36.9629 61.2305 -36.9629 C 63.1348 -36.9629 64.6973 -35.3516 64.6973 -33.4961 C 64.6973 -23.8281 56.8848 -15.9668 47.2656 -15.9668 C 37.6465 -15.9668 29.7852 -23.8281 29.7852 -33.5449 Z"/>
  </g>
  <g id="Bold-S" transform="matrix(1 0 0 1 2292.1 696)">
   <path d="M 47.9004 5.85938 C 70.4102 5.85938 88.916 -12.5977 88.916 -35.1562 C 88.916 -57.7148 70.4102 -76.2207 47.8516 -76.2207 C 25.293 -76.2207 6.83594 -57.7148 6.83594 -35.1562 C 6.83594 -12.5977 25.3418 5.85938 47.9004 5.85938 Z M 30.4688 -33.4961 C 30.4688 -42.2363 37.0605 -49.5605 44.9707 -50.5371 C 45.166 -50.5371 45.459 -50.5859 45.6543 -50.6348 L 44.7754 -51.5625 C 44.3359 -52.1484 43.8965 -52.7344 43.8965 -53.8086 C 43.8965 -55.4688 45.1172 -57.0801 47.3633 -57.0801 C 48.4863 -57.0801 49.3652 -56.543 50.0488 -55.8594 L 56.8359 -48.9746 C 58.1055 -47.7051 58.2031 -45.3125 56.7871 -43.9453 L 49.9512 -37.1582 C 49.3652 -36.5234 48.4375 -36.084 47.4609 -36.084 C 45.459 -36.084 43.9453 -37.3535 43.9453 -39.5508 C 43.9453 -40.2344 44.0918 -40.918 44.3848 -41.3086 L 45.6543 -42.627 C 45.3613 -42.5293 45.0684 -42.4316 44.7754 -42.334 C 40.918 -41.8457 38.1348 -37.8906 38.1348 -33.4473 C 38.1348 -28.0273 42.4316 -23.6816 47.8516 -23.6816 C 53.2715 -23.6816 57.6172 -28.0273 57.6172 -33.4473 C 57.6172 -35.5469 59.3262 -37.2559 61.4746 -37.2559 C 63.5254 -37.2559 65.2344 -35.5469 65.2344 -33.4473 C 65.2344 -23.877 57.4219 -16.0156 47.8516 -16.0156 C 38.3301 -16.0156 30.4688 -23.877 30.4688 -33.4961 Z"/>
  </g>
  <g id="Heavy-S" transform="matrix(1 0 0 1 2587.96 696)">
   <path d="M 48.7305 6.73828 C 71.8262 6.73828 90.625 -12.0605 90.625 -35.1562 C 90.625 -58.252 71.8262 -77.0508 48.7305 -77.0508 C 25.6348 -77.0508 6.83594 -58.252 6.83594 -35.1562 C 6.83594 -12.0605 25.6348 6.73828 48.7305 6.73828 Z M 31.4453 -33.4473 C 31.4453 -41.6992 37.2559 -48.877 44.7754 -50.3418 C 45.0195 -50.3906 45.3613 -50.4395 45.6055 -50.4883 L 45.3125 -50.8789 C 44.873 -51.5137 44.3359 -52.002 44.3359 -53.2715 C 44.3359 -54.9805 45.6543 -56.7871 48.2422 -56.7871 C 49.5117 -56.7871 50.4395 -56.1035 51.2207 -55.3223 L 57.7637 -48.7793 C 59.1797 -47.3145 59.2773 -44.7266 57.7148 -43.1152 L 51.1719 -36.6211 C 50.4883 -35.9375 49.4629 -35.4492 48.3887 -35.4492 C 46.0938 -35.4492 44.4336 -36.7188 44.4336 -39.2578 C 44.4336 -39.8926 44.5312 -40.5762 44.7266 -40.9668 L 44.9707 -41.4062 C 44.6289 -41.2109 44.3359 -41.0645 44.043 -40.9668 C 41.5039 -40.1855 39.9414 -36.8164 39.9414 -33.4473 C 39.9414 -28.5645 43.7988 -24.6582 48.7305 -24.6582 C 53.6133 -24.6582 57.5195 -28.5156 57.5195 -33.4473 C 57.5195 -35.7422 59.4238 -37.6465 61.8164 -37.6465 C 64.1113 -37.6465 66.0156 -35.7422 66.0156 -33.4473 C 66.0156 -23.9258 58.2031 -16.1133 48.7305 -16.1133 C 39.2578 -16.1133 31.4453 -23.9258 31.4453 -33.4473 Z"/>
  </g>
  <g id="Black-S" transform="matrix(1 0 0 1 2883.89 696)">
   <path d="M 49.5117 7.51953 C 73.0957 7.51953 92.1875 -11.5723 92.1875 -35.1562 C 92.1875 -58.7402 73.0957 -77.832 49.5117 -77.832 C 25.9277 -77.832 6.83594 -58.7402 6.83594 -35.1562 C 6.83594 -11.5723 25.9277 7.51953 49.5117 7.51953 Z M 32.3242 -33.3984 C 32.3242 -41.1621 37.4512 -48.2422 44.5801 -50.1465 C 44.9219 -50.2441 45.3125 -50.293 45.5078 -50.3418 L 45.752 -50.2441 C 45.3613 -50.9277 44.7266 -51.3672 44.7266 -52.7832 C 44.7266 -54.541 46.0938 -56.543 49.0234 -56.543 C 50.3906 -56.543 51.4648 -55.7129 52.2949 -54.834 L 58.5938 -48.584 C 60.2051 -47.0215 60.3027 -44.1895 58.4961 -42.4316 L 52.2461 -36.1328 C 51.5137 -35.4004 50.3418 -34.8633 49.1699 -34.8633 C 46.7285 -34.8633 44.873 -36.1328 44.873 -39.0137 C 44.873 -39.5996 44.9219 -40.2832 45.0195 -40.625 L 44.4336 -40.332 C 43.9941 -40.0879 43.7012 -39.8438 43.3594 -39.6973 C 42.041 -38.7207 41.6016 -35.8887 41.6016 -33.4473 C 41.6016 -29.0039 45.0684 -25.5371 49.5117 -25.5371 C 53.9551 -25.5371 57.4707 -28.9551 57.4707 -33.4473 C 57.4707 -35.9863 59.4727 -37.9883 62.1582 -37.9883 C 64.6484 -37.9883 66.6992 -35.9863 66.6992 -33.4473 C 66.6992 -23.9746 58.9355 -16.2109 49.5117 -16.2109 C 40.1367 -16.2109 32.3242 -23.9746 32.3242 -33.3984 Z"/>
  </g>
  <g id="Ultralight-M" transform="matrix(1 0 0 1 503.656 1126)">
   <path d="M 56.0547 12.2559 C 82.0801 12.2559 103.369 -9.0332 103.369 -35.0586 C 103.369 -61.084 82.0801 -82.373 56.0547 -82.373 C 30.0293 -82.373 8.74023 -61.084 8.74023 -35.0586 C 8.74023 -9.0332 30.0293 12.2559 56.0547 12.2559 Z M 35.5957 -32.9102 C 35.5957 -44.3359 44.5801 -53.2227 56.0547 -53.2227 C 57.9102 -53.2227 59.668 -52.9785 61.1816 -52.7832 L 52.9785 -60.9863 C 52.6367 -61.377 52.6367 -61.7188 52.6367 -62.0117 C 52.6367 -62.793 53.1738 -63.3789 53.9551 -63.3789 C 54.3945 -63.3789 54.7363 -63.1348 55.127 -62.6953 L 65.4785 -52.002 C 66.1621 -51.2695 66.0645 -50.2441 65.4785 -49.6094 L 54.8828 -38.5742 C 54.6875 -38.3789 54.3457 -38.1836 54.0527 -38.1836 C 53.2227 -38.1836 52.6855 -38.8184 52.6855 -39.4531 C 52.6855 -39.9414 52.832 -40.332 53.3203 -40.8203 L 62.5488 -50.0488 C 60.7422 -50.4883 58.4961 -50.6836 56.0547 -50.6836 C 45.9961 -50.6836 38.1348 -42.8711 38.1348 -32.9102 C 38.1348 -22.7539 45.9961 -14.8926 56.0547 -14.8926 C 66.0645 -14.8926 73.9258 -22.8516 73.9258 -32.9102 C 73.9258 -33.5449 74.4629 -34.1797 75.2441 -34.1797 C 75.8301 -34.1797 76.4648 -33.5449 76.4648 -32.9102 C 76.4648 -21.3867 67.5781 -12.3535 56.0547 -12.3535 C 44.5801 -12.3535 35.5957 -21.3867 35.5957 -32.9102 Z"/>
  </g>
  <g id="Thin-M" transform="matrix(1 0 0 1 799.806 1126)">
   <path d="M 56.5918 12.793 C 82.9102 12.793 104.492 -8.78906 104.492 -35.1074 C 104.492 -61.377 82.9102 -82.959 56.5918 -82.959 C 30.3223 -82.959 8.74023 -61.377 8.74023 -35.1074 C 8.74023 -8.78906 30.3223 12.793 56.5918 12.793 Z M 35.7422 -32.959 C 35.7422 -44.5801 45.0195 -53.6133 56.3965 -53.6133 C 57.9102 -53.6133 59.4238 -53.418 60.6445 -53.2715 L 53.5156 -60.4004 C 53.125 -60.791 53.0762 -61.2793 53.0762 -61.7188 C 53.0762 -62.6953 53.7598 -63.4277 54.7852 -63.4277 C 55.3223 -63.4277 55.8105 -63.1836 56.2012 -62.6953 L 66.4062 -52.2461 C 67.1875 -51.416 67.0898 -50.0977 66.4062 -49.3652 L 56.0059 -38.623 C 55.7129 -38.3789 55.2734 -38.1348 54.834 -38.1348 C 53.8574 -38.1348 53.125 -38.916 53.125 -39.8438 C 53.125 -40.4297 53.2715 -40.8691 53.8086 -41.4062 L 62.0605 -49.6094 C 60.498 -50 58.6426 -50.1465 56.5918 -50.1465 C 46.875 -50.1465 39.2578 -42.5781 39.2578 -32.9102 C 39.2578 -23.1445 46.875 -15.5273 56.5918 -15.5273 C 66.2598 -15.5273 73.877 -23.1934 73.877 -32.9102 C 73.877 -33.8379 74.6582 -34.668 75.6836 -34.668 C 76.5625 -34.668 77.3926 -33.8379 77.3926 -32.9102 C 77.3926 -21.2402 68.2617 -12.0117 56.5918 -12.0117 C 44.9707 -12.0117 35.7422 -21.2402 35.7422 -32.959 Z"/>
  </g>
  <g id="Light-M" transform="matrix(1 0 0 1 1095.42 1126)">
   <path d="M 57.7148 13.8184 C 84.5215 13.8184 106.689 -8.30078 106.689 -35.1562 C 106.689 -61.9629 84.4727 -84.1309 57.666 -84.1309 C 30.8594 -84.1309 8.74023 -61.9629 8.74023 -35.1562 C 8.74023 -8.30078 30.8594 13.8184 57.7148 13.8184 Z M 36.084 -33.0566 C 36.084 -45.0195 45.8008 -54.3457 57.0801 -54.3457 C 57.959 -54.3457 58.8867 -54.1992 59.668 -54.1016 L 54.5898 -59.1797 C 54.1016 -59.7168 53.9062 -60.4004 53.9062 -61.084 C 53.9062 -62.5 54.9805 -63.623 56.3965 -63.623 C 57.1289 -63.623 57.8613 -63.3301 58.3496 -62.7441 L 68.1641 -52.7344 C 69.1406 -51.709 69.1406 -49.8535 68.1641 -48.877 L 58.2031 -38.7695 C 57.7637 -38.3301 57.0801 -38.0371 56.4453 -38.0371 C 54.9805 -38.0371 53.9062 -39.1602 53.9062 -40.5273 C 53.9062 -41.3086 54.1504 -41.9434 54.7363 -42.5293 L 61.0352 -48.7305 C 60.1074 -48.9746 58.8867 -49.0234 57.666 -49.0234 C 48.6328 -49.0234 41.5039 -41.9434 41.5039 -32.959 C 41.5039 -23.877 48.6328 -16.6992 57.666 -16.6992 C 66.6992 -16.6992 73.8281 -23.9258 73.8281 -32.959 C 73.8281 -34.375 75.0488 -35.5957 76.5625 -35.5957 C 77.9785 -35.5957 79.1992 -34.375 79.1992 -32.959 C 79.1992 -20.9473 69.6777 -11.3281 57.666 -11.3281 C 45.7031 -11.3281 36.084 -20.9473 36.084 -33.0566 Z"/>
  </g>
  <g id="Regular-M" transform="matrix(1 0 0 1 1391.32 1126)">
   <path d="M 58.5449 14.6484 C 85.7422 14.6484 108.35 -7.95898 108.35 -35.1562 C 108.35 -62.4023 85.6934 -84.9609 58.4961 -84.9609 C 31.25 -84.9609 8.74023 -62.4023 8.74023 -35.1562 C 8.74023 -7.95898 31.2988 14.6484 58.5449 14.6484 Z M 36.377 -33.1543 C 36.377 -45.3125 46.3867 -54.8828 57.5684 -54.8828 C 58.0078 -54.8828 58.5449 -54.834 58.8867 -54.7852 L 55.3711 -58.3008 C 54.834 -58.8867 54.541 -59.7168 54.541 -60.5957 C 54.541 -62.3535 55.8594 -63.7695 57.666 -63.7695 C 58.5449 -63.7695 59.375 -63.4277 59.9609 -62.793 L 69.4824 -53.0762 C 70.6055 -51.9043 70.6543 -49.6582 69.4824 -48.4863 L 59.8633 -38.916 C 59.2773 -38.3301 58.4473 -37.9395 57.666 -37.9395 C 55.8594 -37.9395 54.541 -39.3555 54.541 -41.0645 C 54.541 -41.9922 54.834 -42.7734 55.4688 -43.3594 L 60.2539 -48.0957 C 59.7656 -48.1934 59.1309 -48.1934 58.4961 -48.1934 C 49.9512 -48.1934 43.1641 -41.4551 43.1641 -33.0078 C 43.1641 -24.4629 49.9512 -17.627 58.4961 -17.627 C 66.9922 -17.627 73.7793 -24.4629 73.7793 -33.0078 C 73.7793 -34.8145 75.293 -36.3281 77.1973 -36.3281 C 79.0527 -36.3281 80.5664 -34.8145 80.5664 -33.0078 C 80.5664 -20.752 70.752 -10.791 58.4961 -10.791 C 46.2402 -10.791 36.377 -20.752 36.377 -33.1543 Z"/>
  </g>
  <g id="Medium-M" transform="matrix(1 0 0 1 1687.33 1126)">
   <path d="M 59.2285 15.332 C 86.8652 15.332 109.717 -7.51953 109.717 -35.1562 C 109.717 -62.793 86.8164 -85.6445 59.1797 -85.6445 C 31.543 -85.6445 8.74023 -62.793 8.74023 -35.1562 C 8.74023 -7.51953 31.5918 15.332 59.2285 15.332 Z M 37.0605 -33.1055 C 37.0605 -44.9707 46.6309 -54.4434 57.4707 -54.834 C 57.9102 -54.834 58.3984 -54.7852 58.7402 -54.7852 L 55.8594 -57.7148 C 55.2734 -58.3496 54.9316 -59.1309 54.9316 -60.1562 C 54.9316 -62.0117 56.2988 -63.5742 58.3984 -63.5742 C 59.4238 -63.5742 60.3516 -63.1348 60.9863 -62.4023 L 70.2637 -52.9785 C 71.5332 -51.6602 71.6309 -49.2188 70.2637 -47.9004 L 60.8887 -38.5254 C 60.2539 -37.8906 59.3262 -37.5 58.4473 -37.5 C 56.4453 -37.5 54.9316 -38.916 54.9316 -40.918 C 54.9316 -41.8457 55.2246 -42.627 55.7617 -43.2129 L 59.7168 -47.1191 C 59.2285 -47.168 58.6426 -47.168 58.0566 -47.1191 C 50.5371 -46.9727 44.6777 -40.6738 44.6777 -32.959 C 44.6777 -24.9023 51.0742 -18.4082 59.1797 -18.4082 C 67.2852 -18.4082 73.6816 -24.9023 73.6816 -32.959 C 73.6816 -35.0098 75.3906 -36.7188 77.5391 -36.7188 C 79.5898 -36.7188 81.2988 -35.0098 81.2988 -32.959 C 81.2988 -20.752 71.4355 -10.8398 59.1797 -10.8398 C 46.9727 -10.8398 37.0605 -20.752 37.0605 -33.1055 Z"/>
  </g>
  <g id="Semibold-M" transform="matrix(1 0 0 1 1983.5 1126)">
   <path d="M 59.7656 15.8691 C 87.7441 15.8691 110.791 -7.17773 110.791 -35.1562 C 110.791 -63.1348 87.6953 -86.1816 59.7168 -86.1816 C 31.7383 -86.1816 8.74023 -63.1348 8.74023 -35.1562 C 8.74023 -7.17773 31.7871 15.8691 59.7656 15.8691 Z M 37.6465 -33.0566 C 37.6465 -44.7266 46.7773 -54.1504 57.4219 -54.7363 C 57.8125 -54.7852 58.3008 -54.7852 58.6426 -54.7363 L 56.2012 -57.2754 C 55.6152 -57.9102 55.2246 -58.6914 55.2246 -59.8145 C 55.2246 -61.7188 56.6406 -63.4277 58.9355 -63.4277 C 60.0586 -63.4277 61.084 -62.8906 61.7676 -62.1582 L 70.8984 -52.9297 C 72.2656 -51.5137 72.3633 -48.9258 70.8496 -47.4121 L 61.6699 -38.2812 C 60.9863 -37.5977 60.0098 -37.1094 59.0332 -37.1094 C 56.8848 -37.1094 55.2734 -38.623 55.2734 -40.8203 C 55.2734 -41.748 55.5176 -42.5293 56.0059 -43.0664 L 59.3262 -46.4355 C 58.8379 -46.3867 58.252 -46.3379 57.7148 -46.3379 C 50.9766 -45.9961 45.8008 -40.0391 45.8008 -32.959 C 45.8008 -25.1953 51.9531 -18.9941 59.7168 -18.9941 C 67.4805 -18.9941 73.6328 -25.1953 73.6328 -32.959 C 73.6328 -35.1562 75.4883 -37.0117 77.7832 -37.0117 C 79.9805 -37.0117 81.8359 -35.1562 81.8359 -32.959 C 81.8359 -20.752 71.9238 -10.8398 59.7168 -10.8398 C 47.5098 -10.8398 37.6465 -20.752 37.6465 -33.0566 Z"/>
  </g>
  <g id="Bold-M" transform="matrix(1 0 0 1 2279.5 1126)">
   <path d="M 60.4492 16.6016 C 88.8672 16.6016 112.207 -6.73828 112.207 -35.1562 C 112.207 -63.5742 88.8672 -86.9141 60.4492 -86.9141 C 32.0312 -86.9141 8.74023 -63.5742 8.74023 -35.1562 C 8.74023 -6.73828 32.0801 16.6016 60.4492 16.6016 Z M 38.3789 -33.0566 C 38.3789 -44.3359 47.0215 -53.7109 57.3242 -54.6875 C 57.7148 -54.7363 58.2031 -54.7363 58.4961 -54.7363 L 56.6406 -56.6406 C 56.1035 -57.373 55.6152 -58.1055 55.6152 -59.375 C 55.6152 -61.3281 57.1289 -63.2324 59.7168 -63.2324 C 60.9863 -63.2324 62.0117 -62.5977 62.793 -61.7676 L 71.6797 -52.7832 C 73.1934 -51.2695 73.291 -48.4375 71.6797 -46.8262 L 62.7441 -37.8906 C 62.0117 -37.1582 60.8887 -36.6699 59.8145 -36.6699 C 57.4219 -36.6699 55.6641 -38.1836 55.6641 -40.7227 C 55.6641 -41.5527 55.9082 -42.3828 56.2988 -42.9199 L 58.7891 -45.459 C 58.3008 -45.4102 57.7637 -45.3125 57.2754 -45.2148 C 51.5625 -44.7266 47.2656 -39.2578 47.2656 -32.959 C 47.2656 -25.6348 53.0762 -19.7754 60.4492 -19.7754 C 67.7734 -19.7754 73.584 -25.6348 73.584 -32.959 C 73.584 -35.4004 75.5859 -37.4023 78.0762 -37.4023 C 80.5176 -37.4023 82.5195 -35.4004 82.5195 -32.959 C 82.5195 -20.752 72.6074 -10.8398 60.4492 -10.8398 C 48.291 -10.8398 38.3789 -20.752 38.3789 -33.0566 Z"/>
  </g>
  <g id="Heavy-M" transform="matrix(1 0 0 1 2575.19 1126)">
   <path d="M 61.4746 17.627 C 90.5273 17.627 114.258 -6.10352 114.258 -35.1562 C 114.258 -64.1602 90.5273 -87.8906 61.4746 -87.8906 C 32.4219 -87.8906 8.74023 -64.1602 8.74023 -35.1562 C 8.74023 -6.10352 32.4707 17.627 61.4746 17.627 Z M 39.4043 -33.0078 C 39.4043 -43.8477 47.3145 -53.0762 57.2266 -54.5898 C 57.5684 -54.6387 58.0566 -54.6875 58.3008 -54.7363 L 57.3242 -55.8105 C 56.7871 -56.543 56.2012 -57.2754 56.2012 -58.7402 C 56.2012 -60.791 57.7637 -62.9883 60.791 -62.9883 C 62.2559 -62.9883 63.4277 -62.1582 64.3066 -61.2305 L 72.9004 -52.6367 C 74.6094 -50.9277 74.707 -47.8027 72.8516 -45.9473 L 64.2578 -37.3535 C 63.4277 -36.5723 62.207 -35.9863 60.9375 -35.9863 C 58.252 -35.9863 56.2988 -37.5488 56.2988 -40.5273 C 56.2988 -41.3574 56.4453 -42.1875 56.7871 -42.7246 L 58.0078 -44.0918 C 57.5195 -43.9453 57.0801 -43.75 56.6406 -43.6523 C 52.3926 -42.8711 49.4629 -38.0859 49.4629 -32.959 C 49.4629 -26.2695 54.7363 -20.9473 61.4746 -20.9473 C 68.1641 -20.9473 73.4863 -26.2207 73.4863 -32.959 C 73.4863 -35.6934 75.7324 -37.9395 78.5645 -37.9395 C 81.2988 -37.9395 83.5449 -35.6934 83.5449 -32.959 C 83.5449 -20.8008 73.584 -10.8398 61.4746 -10.8398 C 49.3652 -10.8398 39.4043 -20.8008 39.4043 -33.0078 Z"/>
  </g>
  <g id="Black-M" transform="matrix(1 0 0 1 2871 1126)">
   <path d="M 62.4023 18.5547 C 91.9922 18.5547 116.064 -5.56641 116.064 -35.1562 C 116.064 -64.7461 91.9922 -88.8184 62.4023 -88.8184 C 32.8125 -88.8184 8.74023 -64.7461 8.74023 -35.1562 C 8.74023 -5.56641 32.8125 18.5547 62.4023 18.5547 Z M 40.332 -32.959 C 40.332 -43.3594 47.6562 -52.5391 57.1289 -54.4922 C 57.4707 -54.541 57.9102 -54.6387 58.1543 -54.6875 L 57.959 -55.0293 C 57.373 -55.8105 56.6895 -56.4941 56.6895 -58.1543 C 56.6895 -60.3516 58.3984 -62.6953 61.7676 -62.6953 C 63.4277 -62.6953 64.6484 -61.7676 65.6738 -60.7422 L 73.9258 -52.4902 C 75.8301 -50.6348 75.9277 -47.2168 73.877 -45.166 L 65.625 -36.9141 C 64.7461 -36.0352 63.3301 -35.4004 61.9629 -35.4004 C 59.0332 -35.4004 56.8359 -37.0117 56.8359 -40.332 C 56.8359 -41.1621 56.9336 -42.041 57.1777 -42.5293 L 57.2754 -42.8711 C 56.8359 -42.627 56.4453 -42.3828 56.1035 -42.2363 C 53.1738 -41.2109 51.416 -37.0117 51.416 -32.959 C 51.416 -26.8066 56.2012 -21.9238 62.4023 -21.9238 C 68.5059 -21.9238 73.3887 -26.7578 73.3887 -32.959 C 73.3887 -35.9863 75.8789 -38.4277 79.0039 -38.4277 C 81.9824 -38.4277 84.4727 -35.9863 84.4727 -32.959 C 84.4727 -20.8008 74.4629 -10.8398 62.4023 -10.8398 C 50.3418 -10.8398 40.332 -20.8008 40.332 -32.959 Z"/>
  </g>
  <g id="Ultralight-L" transform="matrix(1 0 0 1 487.641 1556)">
   <path d="M 72.0703 25.7812 C 105.566 25.7812 132.91 -1.5625 132.91 -35.0098 C 132.91 -68.5059 105.566 -95.8496 72.0703 -95.8496 C 38.623 -95.8496 11.2793 -68.5059 11.2793 -35.0098 C 11.2793 -1.5625 38.623 25.7812 72.0703 25.7812 Z M 45.8008 -32.1777 C 45.8008 -46.875 57.373 -58.3008 72.2168 -58.3008 C 74.707 -58.3008 77.0996 -57.959 79.1504 -57.7148 L 68.1641 -68.75 C 67.6758 -69.1895 67.7246 -69.6289 67.7246 -69.9219 C 67.7246 -70.8496 68.3594 -71.4844 69.2871 -71.4844 C 69.7754 -71.4844 70.2148 -71.1914 70.6543 -70.6543 L 84.1309 -56.7871 C 84.9609 -55.8594 84.7656 -54.6387 84.1309 -53.9062 L 70.3125 -39.502 C 70.1172 -39.3066 69.7266 -39.0625 69.3848 -39.0625 C 68.457 -39.0625 67.8223 -39.7949 67.8223 -40.5273 C 67.8223 -41.1133 67.9688 -41.5527 68.6035 -42.1875 L 80.957 -54.5898 C 78.4668 -55.1758 75.4395 -55.4199 72.0703 -55.4199 C 58.9355 -55.4199 48.6816 -45.2637 48.6816 -32.1777 C 48.6816 -18.9941 58.9355 -8.74023 72.0703 -8.74023 C 85.1074 -8.74023 95.4102 -19.043 95.4102 -32.1777 C 95.4102 -32.959 95.9961 -33.6426 96.9238 -33.6426 C 97.5586 -33.6426 98.2422 -32.959 98.2422 -32.1777 C 98.2422 -17.4316 86.8652 -5.85938 72.0703 -5.85938 C 57.373 -5.85938 45.8008 -17.4316 45.8008 -32.1777 Z"/>
  </g>
  <g id="Thin-L" transform="matrix(1 0 0 1 783.717 1556)">
   <path d="M 72.7051 26.416 C 106.494 26.416 134.131 -1.26953 134.131 -35.0586 C 134.131 -68.7988 106.445 -96.4844 72.7051 -96.4844 C 38.916 -96.4844 11.2793 -68.7988 11.2793 -35.0586 C 11.2793 -1.26953 38.916 26.416 72.7051 26.416 Z M 46.0449 -32.2266 C 46.0449 -47.1191 57.8125 -58.7402 72.5586 -58.7402 C 74.707 -58.7402 76.8066 -58.4473 78.6133 -58.2031 L 68.75 -68.0664 C 68.2617 -68.5547 68.2129 -69.0918 68.2129 -69.5801 C 68.2129 -70.752 69.043 -71.582 70.2148 -71.582 C 70.8008 -71.582 71.3867 -71.2402 71.875 -70.6543 L 85.1074 -57.0312 C 86.084 -56.0059 85.9375 -54.4922 85.1074 -53.6133 L 71.582 -39.5996 C 71.2891 -39.3066 70.752 -39.0137 70.2637 -39.0137 C 69.0918 -39.0137 68.2617 -39.9414 68.2617 -40.9668 C 68.2617 -41.6504 68.457 -42.1875 69.1406 -42.8223 L 80.3711 -54.0527 C 78.2227 -54.5898 75.5859 -54.834 72.7051 -54.834 C 59.9609 -54.834 49.9512 -44.873 49.9512 -32.2266 C 49.9512 -19.3848 59.9609 -9.42383 72.7051 -9.42383 C 85.3516 -9.42383 95.3613 -19.4824 95.3613 -32.2266 C 95.3613 -33.252 96.1914 -34.1797 97.4121 -34.1797 C 98.3887 -34.1797 99.3164 -33.252 99.3164 -32.2266 C 99.3164 -17.2363 87.6465 -5.46875 72.7051 -5.46875 C 57.8125 -5.46875 46.0449 -17.2363 46.0449 -32.2266 Z"/>
  </g>
  <g id="Light-L" transform="matrix(1 0 0 1 1079.21 1556)">
   <path d="M 73.9258 27.5879 C 108.301 27.5879 136.572 -0.732422 136.572 -35.1074 C 136.572 -69.4336 108.252 -97.7539 73.877 -97.7539 C 39.5508 -97.7539 11.2793 -69.4336 11.2793 -35.1074 C 11.2793 -0.732422 39.5508 27.5879 73.9258 27.5879 Z M 46.4355 -32.373 C 46.4355 -47.6074 58.6914 -59.5215 73.291 -59.5215 C 74.7559 -59.5215 76.2695 -59.3262 77.4902 -59.1797 L 69.9219 -66.748 C 69.3359 -67.334 69.1406 -68.1152 69.1406 -68.8965 C 69.1406 -70.5566 70.3613 -71.7773 72.0215 -71.7773 C 72.8516 -71.7773 73.6328 -71.3867 74.2676 -70.7031 L 87.0605 -57.5684 C 88.2324 -56.3477 88.1836 -54.248 87.0605 -53.0762 L 74.0234 -39.7461 C 73.5352 -39.2578 72.7539 -38.916 72.0703 -38.916 C 70.4102 -38.916 69.1895 -40.1855 69.1895 -41.748 C 69.1895 -42.627 69.4824 -43.3594 70.166 -44.0918 L 79.248 -53.0762 C 77.7344 -53.418 75.8789 -53.5645 73.877 -53.5645 C 61.9141 -53.5645 52.4414 -44.1895 52.4414 -32.2754 C 52.4414 -20.2148 61.9141 -10.7422 73.877 -10.7422 C 85.8398 -10.7422 95.2637 -20.2637 95.2637 -32.2754 C 95.2637 -33.8867 96.6309 -35.2539 98.3398 -35.2539 C 99.9512 -35.2539 101.318 -33.8867 101.318 -32.2754 C 101.318 -16.9434 89.2578 -4.73633 73.877 -4.73633 C 58.5938 -4.73633 46.4355 -16.9434 46.4355 -32.373 Z"/>
  </g>
  <g id="Regular-L" transform="matrix(1 0 0 1 1374.99 1556)">
   <path d="M 74.8535 28.4668 C 109.668 28.4668 138.428 -0.341797 138.428 -35.1074 C 138.428 -69.9219 109.619 -98.7305 74.8047 -98.7305 C 39.9902 -98.7305 11.2793 -69.9219 11.2793 -35.1074 C 11.2793 -0.341797 40.0391 28.4668 74.8535 28.4668 Z M 46.7285 -32.4707 C 46.7285 -47.998 59.375 -60.1562 73.877 -60.1562 C 74.8047 -60.1562 75.8301 -60.0098 76.6113 -59.9121 L 70.8008 -65.7227 C 70.1172 -66.4062 69.8242 -67.3828 69.8242 -68.3594 C 69.8242 -70.3613 71.3379 -71.9238 73.3887 -71.9238 C 74.3652 -71.9238 75.3418 -71.5332 76.0254 -70.752 L 88.5742 -58.0078 C 89.8926 -56.5918 89.9414 -54.0039 88.5742 -52.6367 L 75.8789 -39.8926 C 75.2441 -39.2578 74.3164 -38.8184 73.3887 -38.8184 C 71.3867 -38.8184 69.873 -40.3809 69.873 -42.334 C 69.873 -43.4082 70.2148 -44.2871 70.9473 -45.0195 L 78.3691 -52.3438 C 77.3926 -52.5879 76.123 -52.6855 74.8047 -52.6855 C 63.3789 -52.6855 54.3457 -43.6523 54.3457 -32.3242 C 54.3457 -20.8496 63.3789 -11.7676 74.8047 -11.7676 C 86.1816 -11.7676 95.2148 -20.8984 95.2148 -32.3242 C 95.2148 -34.3262 96.9238 -36.084 99.0723 -36.084 C 101.123 -36.084 102.832 -34.3262 102.832 -32.3242 C 102.832 -16.6992 90.4297 -4.15039 74.8047 -4.15039 C 59.2285 -4.15039 46.7285 -16.6992 46.7285 -32.4707 Z"/>
  </g>
  <g id="Medium-L" transform="matrix(1 0 0 1 1670.9 1556)">
   <path d="M 75.6348 29.248 C 110.938 29.248 140.039 0.146484 140.039 -35.1074 C 140.039 -70.4102 110.889 -99.5117 75.5859 -99.5117 C 40.332 -99.5117 11.2793 -70.4102 11.2793 -35.1074 C 11.2793 0.146484 40.3809 29.248 75.6348 29.248 Z M 47.4121 -32.4707 C 47.4121 -47.7539 59.668 -59.8633 73.877 -60.2051 C 74.707 -60.2051 75.6348 -60.1074 76.3184 -60.0586 L 71.3867 -64.9902 C 70.7031 -65.7227 70.3125 -66.748 70.3125 -67.8223 C 70.3125 -70.0195 71.9238 -71.7773 74.3164 -71.7773 C 75.4883 -71.7773 76.5625 -71.2402 77.2949 -70.4102 L 89.5508 -57.959 C 91.0645 -56.3965 91.1133 -53.5645 89.5508 -52.002 L 77.1484 -39.5508 C 76.4648 -38.8672 75.3906 -38.3789 74.3652 -38.3789 C 72.0703 -38.3789 70.3613 -40.0391 70.3613 -42.2852 C 70.3613 -43.4082 70.7031 -44.3359 71.3867 -45.0684 L 77.7344 -51.3672 C 76.8555 -51.5137 75.7324 -51.5137 74.5605 -51.5137 C 64.1602 -51.3672 56.0547 -42.8223 56.0547 -32.3242 C 56.0547 -21.3867 64.6973 -12.6465 75.5859 -12.6465 C 86.5234 -12.6465 95.166 -21.3867 95.166 -32.3242 C 95.166 -34.6191 97.0703 -36.5723 99.5117 -36.5723 C 101.807 -36.5723 103.76 -34.6191 103.76 -32.3242 C 103.76 -16.6504 91.2598 -4.05273 75.5859 -4.05273 C 60.0098 -4.05273 47.4121 -16.6504 47.4121 -32.4707 Z"/>
  </g>
  <g id="Semibold-L" transform="matrix(1 0 0 1 1967 1556)">
   <path d="M 76.2695 29.8828 C 111.914 29.8828 141.26 0.488281 141.26 -35.1074 C 141.26 -70.752 111.865 -100.146 76.2207 -100.146 C 40.5762 -100.146 11.2793 -70.752 11.2793 -35.1074 C 11.2793 0.488281 40.625 29.8828 76.2695 29.8828 Z M 47.9492 -32.4219 C 47.9492 -47.5586 59.9609 -59.668 73.9258 -60.2051 C 74.6582 -60.2539 75.4883 -60.1562 76.123 -60.1562 L 71.8262 -64.4531 C 71.1426 -65.2344 70.7031 -66.2109 70.7031 -67.4805 C 70.7031 -69.7266 72.4121 -71.6797 75 -71.6797 C 76.3184 -71.6797 77.4414 -71.0938 78.2715 -70.166 L 90.332 -57.959 C 91.9434 -56.2988 91.9922 -53.2715 90.332 -51.5137 L 78.125 -39.3555 C 77.3438 -38.5742 76.2207 -38.0371 75.0977 -38.0371 C 72.6074 -38.0371 70.752 -39.7949 70.752 -42.2852 C 70.752 -43.4082 71.0938 -44.3359 71.7285 -45.0684 L 77.2461 -50.5859 C 76.416 -50.6836 75.3906 -50.6836 74.4141 -50.6348 C 64.7949 -50.3418 57.3242 -42.1875 57.3242 -32.3242 C 57.3242 -21.7773 65.6738 -13.3301 76.2207 -13.3301 C 86.7188 -13.3301 95.1172 -21.7773 95.1172 -32.3242 C 95.1172 -34.8145 97.2168 -36.9141 99.8535 -36.9141 C 102.344 -36.9141 104.492 -34.8145 104.492 -32.3242 C 104.492 -16.6504 91.8945 -3.95508 76.2207 -3.95508 C 60.5957 -3.95508 47.9492 -16.6504 47.9492 -32.4219 Z"/>
  </g>
  <g id="Bold-L" transform="matrix(1 0 0 1 2262.9 1556)">
   <path d="M 77.0996 30.7129 C 113.184 30.7129 142.92 0.976562 142.92 -35.1074 C 142.92 -71.2402 113.135 -100.977 77.0508 -100.977 C 40.918 -100.977 11.2793 -71.2402 11.2793 -35.1074 C 11.2793 0.976562 40.9668 30.7129 77.0996 30.7129 Z M 48.6816 -32.4219 C 48.6816 -47.2656 60.2539 -59.375 73.9258 -60.2539 C 74.5605 -60.3027 75.3418 -60.2539 75.8301 -60.2539 L 72.4121 -63.7207 C 71.7285 -64.5508 71.1914 -65.5273 71.1914 -66.9434 C 71.1914 -69.3359 72.998 -71.5332 75.9766 -71.5332 C 77.3926 -71.5332 78.6621 -70.8008 79.541 -69.873 L 91.3574 -57.9102 C 93.1152 -56.1035 93.2129 -52.7832 91.3086 -50.8789 L 79.4434 -39.0137 C 78.5645 -38.1836 77.2949 -37.5977 76.0742 -37.5977 C 73.291 -37.5977 71.2402 -39.4531 71.2402 -42.2852 C 71.2402 -43.4082 71.582 -44.3848 72.168 -45.1172 L 76.6113 -49.6094 C 75.8789 -49.6094 75 -49.5117 74.1699 -49.4629 C 65.5762 -48.9746 59.0332 -41.3574 59.0332 -32.3242 C 59.0332 -22.2656 66.9922 -14.2578 77.0508 -14.2578 C 87.0605 -14.2578 95.0195 -22.2656 95.0195 -32.3242 C 95.0195 -35.1074 97.3633 -37.4512 100.244 -37.4512 C 103.076 -37.4512 105.42 -35.1074 105.42 -32.3242 C 105.42 -16.6016 92.7246 -3.85742 77.0508 -3.85742 C 61.377 -3.85742 48.6816 -16.6016 48.6816 -32.4219 Z"/>
  </g>
  <g id="Heavy-L" transform="matrix(1 0 0 1 2558.42 1556)">
   <path d="M 78.2715 31.8848 C 115.039 31.8848 145.264 1.66016 145.264 -35.1074 C 145.264 -71.9238 115.039 -102.148 78.2227 -102.148 C 41.4551 -102.148 11.2793 -71.9238 11.2793 -35.1074 C 11.2793 1.66016 41.4551 31.8848 78.2715 31.8848 Z M 49.707 -32.4219 C 49.707 -46.9238 60.7422 -58.9844 73.9746 -60.3516 C 74.4629 -60.4004 75.0488 -60.4004 75.4395 -60.4492 L 73.291 -62.6465 C 72.5586 -63.5742 71.875 -64.5508 71.875 -66.2109 C 71.875 -68.7988 73.877 -71.3379 77.3438 -71.3379 C 79.0039 -71.3379 80.3711 -70.459 81.4453 -69.3848 L 92.8223 -57.9102 C 94.8242 -55.8594 94.9219 -52.1484 92.7734 -50 L 81.2988 -38.5742 C 80.3711 -37.5977 78.9062 -36.9629 77.4414 -36.9629 C 74.3164 -36.9629 71.9727 -38.916 71.9727 -42.2852 C 71.9727 -43.4082 72.2656 -44.4824 72.8027 -45.166 L 75.6348 -48.1445 C 75.0488 -47.998 74.4141 -47.8516 73.8281 -47.7539 C 66.748 -47.0703 61.5234 -40.1367 61.5234 -32.3242 C 61.5234 -22.998 68.8965 -15.5762 78.2227 -15.5762 C 87.5488 -15.5762 94.9219 -22.9492 94.9219 -32.3242 C 94.9219 -35.498 97.5586 -38.1348 100.879 -38.1348 C 104.102 -38.1348 106.738 -35.498 106.738 -32.3242 C 106.738 -16.5527 93.9453 -3.71094 78.2227 -3.71094 C 62.5488 -3.71094 49.707 -16.5527 49.707 -32.4219 Z"/>
  </g>
  <g id="Black-L" transform="matrix(1 0 0 1 2854.08 1556)">
   <path d="M 79.2969 32.9102 C 116.748 32.9102 147.363 2.29492 147.363 -35.1074 C 147.363 -72.5586 116.699 -103.174 79.2969 -103.174 C 41.8945 -103.174 11.2793 -72.5586 11.2793 -35.1074 C 11.2793 2.29492 41.8945 32.9102 79.2969 32.9102 Z M 50.6348 -32.373 C 50.6348 -46.582 61.1816 -58.5938 74.0234 -60.4004 C 74.3652 -60.4492 74.8047 -60.498 75.0977 -60.5957 L 74.0723 -61.7188 C 73.291 -62.6953 72.5098 -63.7207 72.5098 -65.5762 C 72.5098 -68.3594 74.6582 -71.1426 78.5156 -71.1426 C 80.4199 -71.1426 81.9336 -70.1172 83.1055 -68.9453 L 94.1406 -57.8613 C 96.3379 -55.6641 96.4844 -51.5625 94.0918 -49.1699 L 83.0078 -38.1836 C 81.9336 -37.1094 80.3223 -36.377 78.7109 -36.377 C 75.2441 -36.377 72.6562 -38.4766 72.6562 -42.2363 C 72.6562 -43.4082 72.9004 -44.5312 73.3398 -45.2148 L 74.8047 -46.8262 C 74.3652 -46.6309 73.9258 -46.3867 73.5352 -46.2891 C 67.7734 -45.3125 63.7695 -39.0625 63.7695 -32.3242 C 63.7695 -23.6816 70.6055 -16.748 79.2969 -16.748 C 87.9395 -16.748 94.8242 -23.6328 94.8242 -32.3242 C 94.8242 -35.8887 97.7539 -38.7695 101.465 -38.7695 C 105.029 -38.7695 107.959 -35.8887 107.959 -32.3242 C 107.959 -16.5039 95.0195 -3.61328 79.2969 -3.61328 C 63.5742 -3.61328 50.6348 -16.5039 50.6348 -32.373 Z"/>
  </g>
 </g>
</svg>
