<?xml version="1.0" encoding="UTF-8"?>
<!--Generator: Apple Native CoreSVG 123-->
<!DOCTYPE svg
PUBLIC "-//W3C//DTD SVG 1.1//EN"
       "http://www.w3.org/Graphics/SVG/1.1/DTD/svg11.dtd">
<svg version="1.1" xmlns="http://www.w3.org/2000/svg" xmlns:xlink="http://www.w3.org/1999/xlink" width="3300" height="2200">
 <!--glyph: "uni1001FF.medium", point size: 100.000000, font version: "Version 15.0d4e20", template writer version: "2"-->
 <g id="Notes">
  <rect height="2200" id="artboard" style="fill:white;opacity:1" width="3300" x="0" y="0"/>
  <line id="" style="fill:none;stroke:black;opacity:1;stroke-width:0.5;" x1="263" x2="3036" y1="292" y2="292"/>
  <text style="stroke:none;fill:black;font-family:-apple-system,&quot;SF Pro Display&quot;,&quot;SF Pro Text&quot;,Helvetica,sans-serif;font-weight:bold;" transform="matrix(1 0 0 1 263 322)">Weight/Scale Variations</text>
  <text style="stroke:none;fill:black;font-family:-apple-system,&quot;SF Pro Display&quot;,&quot;SF Pro Text&quot;,Helvetica,sans-serif;text-anchor:middle;" transform="matrix(1 0 0 1 559.711 322)">Ultralight</text>
  <text style="stroke:none;fill:black;font-family:-apple-system,&quot;SF Pro Display&quot;,&quot;SF Pro Text&quot;,Helvetica,sans-serif;text-anchor:middle;" transform="matrix(1 0 0 1 856.422 322)">Thin</text>
  <text style="stroke:none;fill:black;font-family:-apple-system,&quot;SF Pro Display&quot;,&quot;SF Pro Text&quot;,Helvetica,sans-serif;text-anchor:middle;" transform="matrix(1 0 0 1 1153.13 322)">Light</text>
  <text style="stroke:none;fill:black;font-family:-apple-system,&quot;SF Pro Display&quot;,&quot;SF Pro Text&quot;,Helvetica,sans-serif;text-anchor:middle;" transform="matrix(1 0 0 1 1449.84 322)">Regular</text>
  <text style="stroke:none;fill:black;font-family:-apple-system,&quot;SF Pro Display&quot;,&quot;SF Pro Text&quot;,Helvetica,sans-serif;text-anchor:middle;" transform="matrix(1 0 0 1 1746.56 322)">Medium</text>
  <text style="stroke:none;fill:black;font-family:-apple-system,&quot;SF Pro Display&quot;,&quot;SF Pro Text&quot;,Helvetica,sans-serif;text-anchor:middle;" transform="matrix(1 0 0 1 2043.27 322)">Semibold</text>
  <text style="stroke:none;fill:black;font-family:-apple-system,&quot;SF Pro Display&quot;,&quot;SF Pro Text&quot;,Helvetica,sans-serif;text-anchor:middle;" transform="matrix(1 0 0 1 2339.98 322)">Bold</text>
  <text style="stroke:none;fill:black;font-family:-apple-system,&quot;SF Pro Display&quot;,&quot;SF Pro Text&quot;,Helvetica,sans-serif;text-anchor:middle;" transform="matrix(1 0 0 1 2636.69 322)">Heavy</text>
  <text style="stroke:none;fill:black;font-family:-apple-system,&quot;SF Pro Display&quot;,&quot;SF Pro Text&quot;,Helvetica,sans-serif;text-anchor:middle;" transform="matrix(1 0 0 1 2933.4 322)">Black</text>
  <line id="" style="fill:none;stroke:black;opacity:1;stroke-width:0.5;" x1="263" x2="3036" y1="1903" y2="1903"/>
  <g id="" transform="matrix(1 0 0 1 263 1933)">
   <path d="M 9.24805 0.830078 C 13.5547 0.830078 17.1387 -2.74414 17.1387 -7.05078 C 17.1387 -11.3574 13.5449 -14.9316 9.23828 -14.9316 C 4.94141 -14.9316 1.36719 -11.3574 1.36719 -7.05078 C 1.36719 -2.74414 4.95117 0.830078 9.24805 0.830078 Z M 9.24805 -0.654297 C 5.70312 -0.654297 2.87109 -3.49609 2.87109 -7.05078 C 2.87109 -10.6055 5.69336 -13.4473 9.23828 -13.4473 C 12.793 -13.4473 15.6348 -10.6055 15.6445 -7.05078 C 15.6543 -3.49609 12.8027 -0.654297 9.24805 -0.654297 Z M 9.22852 -3.42773 C 9.69727 -3.42773 9.9707 -3.74023 9.9707 -4.25781 L 9.9707 -6.31836 L 12.1973 -6.31836 C 12.6953 -6.31836 13.0371 -6.57227 13.0371 -7.04102 C 13.0371 -7.51953 12.7148 -7.7832 12.1973 -7.7832 L 9.9707 -7.7832 L 9.9707 -10.0098 C 9.9707 -10.5273 9.69727 -10.8496 9.22852 -10.8496 C 8.75977 -10.8496 8.50586 -10.5078 8.50586 -10.0098 L 8.50586 -7.7832 L 6.29883 -7.7832 C 5.78125 -7.7832 5.44922 -7.51953 5.44922 -7.04102 C 5.44922 -6.57227 5.80078 -6.31836 6.29883 -6.31836 L 8.50586 -6.31836 L 8.50586 -4.25781 C 8.50586 -3.75977 8.75977 -3.42773 9.22852 -3.42773 Z"/>
  </g>
  <g id="" transform="matrix(1 0 0 1 281.506 1933)">
   <path d="M 11.709 2.91016 C 17.1484 2.91016 21.6699 -1.60156 21.6699 -7.05078 C 21.6699 -12.4902 17.1387 -17.0117 11.6992 -17.0117 C 6.25 -17.0117 1.74805 -12.4902 1.74805 -7.05078 C 1.74805 -1.60156 6.25977 2.91016 11.709 2.91016 Z M 11.709 1.25 C 7.09961 1.25 3.41797 -2.44141 3.41797 -7.05078 C 3.41797 -11.6504 7.08984 -15.3516 11.6992 -15.3516 C 16.2988 -15.3516 20 -11.6504 20.0098 -7.05078 C 20.0195 -2.44141 16.3086 1.25 11.709 1.25 Z M 11.6797 -2.41211 C 12.207 -2.41211 12.5195 -2.77344 12.5195 -3.33984 L 12.5195 -6.23047 L 15.5762 -6.23047 C 16.123 -6.23047 16.5039 -6.51367 16.5039 -7.03125 C 16.5039 -7.55859 16.1426 -7.86133 15.5762 -7.86133 L 12.5195 -7.86133 L 12.5195 -10.9277 C 12.5195 -11.5039 12.207 -11.8555 11.6797 -11.8555 C 11.1621 -11.8555 10.8789 -11.4844 10.8789 -10.9277 L 10.8789 -7.86133 L 7.83203 -7.86133 C 7.25586 -7.86133 6.89453 -7.55859 6.89453 -7.03125 C 6.89453 -6.51367 7.28516 -6.23047 7.83203 -6.23047 L 10.8789 -6.23047 L 10.8789 -3.33984 C 10.8789 -2.79297 11.1621 -2.41211 11.6797 -2.41211 Z"/>
  </g>
  <g id="" transform="matrix(1 0 0 1 304.914 1933)">
   <path d="M 14.9707 5.67383 C 21.9336 5.67383 27.6855 -0.078125 27.6855 -7.04102 C 27.6855 -14.0039 21.9238 -19.7559 14.9609 -19.7559 C 7.99805 -19.7559 2.25586 -14.0039 2.25586 -7.04102 C 2.25586 -0.078125 8.00781 5.67383 14.9707 5.67383 Z M 14.9707 3.85742 C 8.92578 3.85742 4.08203 -1.00586 4.08203 -7.04102 C 4.08203 -13.0762 8.91602 -17.9395 14.9609 -17.9395 C 20.9961 -17.9395 25.8594 -13.0762 25.8691 -7.04102 C 25.8789 -1.00586 21.0059 3.85742 14.9707 3.85742 Z M 14.9414 -1.06445 C 15.5176 -1.06445 15.8594 -1.45508 15.8594 -2.06055 L 15.8594 -6.13281 L 20.0977 -6.13281 C 20.6934 -6.13281 21.1133 -6.46484 21.1133 -7.02148 C 21.1133 -7.59766 20.7227 -7.93945 20.0977 -7.93945 L 15.8594 -7.93945 L 15.8594 -12.1875 C 15.8594 -12.8027 15.5176 -13.1934 14.9414 -13.1934 C 14.3848 -13.1934 14.0625 -12.7832 14.0625 -12.1875 L 14.0625 -7.93945 L 9.82422 -7.93945 C 9.20898 -7.93945 8.80859 -7.59766 8.80859 -7.02148 C 8.80859 -6.46484 9.23828 -6.13281 9.82422 -6.13281 L 14.0625 -6.13281 L 14.0625 -2.06055 C 14.0625 -1.47461 14.3848 -1.06445 14.9414 -1.06445 Z"/>
  </g>
  <text style="stroke:none;fill:black;font-family:-apple-system,&quot;SF Pro Display&quot;,&quot;SF Pro Text&quot;,Helvetica,sans-serif;font-weight:bold;" transform="matrix(1 0 0 1 263 1953)">Design Variations</text>
  <text style="stroke:none;fill:black;font-family:-apple-system,&quot;SF Pro Display&quot;,&quot;SF Pro Text&quot;,Helvetica,sans-serif;" transform="matrix(1 0 0 1 263 1971)">Symbols are supported in up to nine weights and three scales.</text>
  <text style="stroke:none;fill:black;font-family:-apple-system,&quot;SF Pro Display&quot;,&quot;SF Pro Text&quot;,Helvetica,sans-serif;" transform="matrix(1 0 0 1 263 1989)">For optimal layout with text and other symbols, vertically align</text>
  <text style="stroke:none;fill:black;font-family:-apple-system,&quot;SF Pro Display&quot;,&quot;SF Pro Text&quot;,Helvetica,sans-serif;" transform="matrix(1 0 0 1 263 2007)">symbols with the adjacent text.</text>
  <rect height="14" id="" style="fill:#00AEEF;stroke:none;opacity:0.4;" width="3" x="776" y="1919"/>
  <g id="" transform="matrix(1 0 0 1 779 1933)">
   <path d="M 10.5273 0 L 12.373 0 L 7.17773 -14.0918 L 5.43945 -14.0918 L 0.244141 0 L 2.08984 0 L 3.50586 -4.0332 L 9.11133 -4.0332 Z M 6.2793 -11.9531 L 6.33789 -11.9531 L 8.59375 -5.52734 L 4.02344 -5.52734 Z"/>
  </g>
  <rect height="14" id="" style="fill:#00AEEF;stroke:none;opacity:0.4;" width="3" x="791.617" y="1919"/>
  <text style="stroke:none;fill:black;font-family:-apple-system,&quot;SF Pro Display&quot;,&quot;SF Pro Text&quot;,Helvetica,sans-serif;font-weight:bold;" transform="matrix(1 0 0 1 776 1953)">Side Bearings</text>
  <text style="stroke:none;fill:black;font-family:-apple-system,&quot;SF Pro Display&quot;,&quot;SF Pro Text&quot;,Helvetica,sans-serif;" transform="matrix(1 0 0 1 776 1971)">Horizontal padding on the left and right side of each symbol</text>
  <text style="stroke:none;fill:black;font-family:-apple-system,&quot;SF Pro Display&quot;,&quot;SF Pro Text&quot;,Helvetica,sans-serif;" transform="matrix(1 0 0 1 776 1989)">can be adjusted by modifying the width of the blue rectangles.</text>
  <text style="stroke:none;fill:black;font-family:-apple-system,&quot;SF Pro Display&quot;,&quot;SF Pro Text&quot;,Helvetica,sans-serif;" transform="matrix(1 0 0 1 776 2007)">Modifications are automatically applied proportionally to all</text>
  <text style="stroke:none;fill:black;font-family:-apple-system,&quot;SF Pro Display&quot;,&quot;SF Pro Text&quot;,Helvetica,sans-serif;" transform="matrix(1 0 0 1 776 2025)">scales and weights.</text>
  <g id="" transform="matrix(1 0 0 1 1289 1933)">
   <path d="M 2.96875 2.35352 L 3.80859 3.19336 C 4.84375 4.22852 6.12305 4.15039 7.19727 2.97852 L 16.1621 -6.82617 C 16.5527 -6.74805 16.9629 -6.8457 17.4902 -7.02148 C 18.1738 -7.25586 18.2715 -7.25586 18.3887 -7.13867 C 18.5352 -7.01172 18.4863 -6.89453 18.2422 -6.25 C 17.8809 -5.33203 17.8125 -4.79492 18.5547 -4.02344 L 19.4238 -3.13477 C 20.2734 -2.24609 21.3281 -2.26562 22.2168 -3.14453 L 25.0586 -5.97656 C 25.9473 -6.86523 25.957 -7.92969 25.0781 -8.7793 L 24.1797 -9.64844 C 23.4082 -10.4004 22.8711 -10.3516 21.9629 -9.98047 C 21.3184 -9.72656 21.2012 -9.6875 21.0645 -9.81445 C 20.9375 -9.93164 20.9473 -10.0391 21.1816 -10.7129 C 21.5332 -11.6895 21.5723 -12.2852 20.752 -13.0957 L 19.3359 -14.5117 C 15.1953 -18.6133 11.2305 -18.7402 7.65625 -15.4395 C 7.08008 -14.9023 6.99219 -14.1504 7.53906 -13.6133 L 7.79297 -13.3594 C 8.22266 -12.9297 8.86719 -12.8418 9.41406 -13.1152 C 11.0645 -13.9453 12.2559 -14.0234 13.457 -12.9785 L 13.0273 -11.416 C 12.8516 -10.8008 12.793 -10.3418 12.9199 -9.93164 L 3.18359 -1.04492 C 2.02148 0.0292969 1.93359 1.32812 2.96875 2.35352 Z M 8.96484 -14.4922 C 8.89648 -14.5703 8.86719 -14.6582 8.99414 -14.7559 C 11.709 -17.2852 15.0391 -16.8457 18.3496 -13.5254 L 19.6973 -12.168 C 20.0879 -11.7773 20.0977 -11.582 19.8828 -10.8691 C 19.6582 -10.127 19.502 -9.53125 20.1465 -8.88672 C 20.8105 -8.22266 21.2891 -8.41797 22.207 -8.63281 C 22.9004 -8.79883 23.0664 -8.79883 23.4473 -8.41797 L 24.0918 -7.77344 C 24.4043 -7.48047 24.4141 -7.32422 24.0723 -6.97266 L 21.2207 -4.13086 C 20.8887 -3.79883 20.7227 -3.79883 20.4297 -4.10156 L 19.7852 -4.75586 C 19.4141 -5.13672 19.4141 -5.30273 19.5801 -6.01562 C 19.7852 -6.88477 19.9805 -7.38281 19.3262 -8.04688 C 18.6719 -8.7207 18.0762 -8.57422 17.3438 -8.33008 C 16.5625 -8.06641 16.3281 -8.06641 15.8984 -8.49609 L 14.6094 -9.78516 C 14.1699 -10.2246 14.1309 -10.4395 14.2676 -10.9082 L 15.0293 -13.3984 C 13.3887 -15.2832 11.4941 -15.5566 9.20898 -14.4434 C 9.11133 -14.3945 9.04297 -14.4141 8.96484 -14.4922 Z M 3.96484 1.36719 C 3.52539 0.927734 3.54492 0.537109 4.14062 -0.00976562 L 13.7402 -8.81836 L 15 -7.55859 L 6.17188 2.02148 C 5.625 2.60742 5.24414 2.64648 4.79492 2.19727 Z"/>
  </g>
  <text style="stroke:none;fill:black;font-family:-apple-system,&quot;SF Pro Display&quot;,&quot;SF Pro Text&quot;,Helvetica,sans-serif;font-weight:bold;" transform="matrix(1 0 0 1 1289 1953)">Exporting</text>
  <text style="stroke:none;fill:black;font-family:-apple-system,&quot;SF Pro Display&quot;,&quot;SF Pro Text&quot;,Helvetica,sans-serif;" transform="matrix(1 0 0 1 1289 1971)">Symbols should be outlined when exporting to ensure the</text>
  <text style="stroke:none;fill:black;font-family:-apple-system,&quot;SF Pro Display&quot;,&quot;SF Pro Text&quot;,Helvetica,sans-serif;" transform="matrix(1 0 0 1 1289 1989)">design is preserved when submitting to Xcode.</text>
  <text id="template-version" style="stroke:none;fill:black;font-family:-apple-system,&quot;SF Pro Display&quot;,&quot;SF Pro Text&quot;,Helvetica,sans-serif;text-anchor:end;" transform="matrix(1 0 0 1 3036 1933)">Template v.0.1</text>
  <text style="stroke:none;fill:black;font-family:-apple-system,&quot;SF Pro Display&quot;,&quot;SF Pro Text&quot;,Helvetica,sans-serif;text-anchor:end;" transform="matrix(1 0 0 1 3036 1951)">Generated from exclamationmark.triangle.fill</text>
  <text style="stroke:none;fill:black;font-family:-apple-system,&quot;SF Pro Display&quot;,&quot;SF Pro Text&quot;,Helvetica,sans-serif;text-anchor:end;" transform="matrix(1 0 0 1 3036 1969)">Typeset at 100 points</text>
  <text style="stroke:none;fill:black;font-family:-apple-system,&quot;SF Pro Display&quot;,&quot;SF Pro Text&quot;,Helvetica,sans-serif;" transform="matrix(1 0 0 1 263 726)">Small</text>
  <text style="stroke:none;fill:black;font-family:-apple-system,&quot;SF Pro Display&quot;,&quot;SF Pro Text&quot;,Helvetica,sans-serif;" transform="matrix(1 0 0 1 263 1156)">Medium</text>
  <text style="stroke:none;fill:black;font-family:-apple-system,&quot;SF Pro Display&quot;,&quot;SF Pro Text&quot;,Helvetica,sans-serif;" transform="matrix(1 0 0 1 263 1586)">Large</text>
 </g>
 <g id="Guides">
  <g id="H-reference" style="fill:#27AAE1;stroke:none;" transform="matrix(1 0 0 1 339 696)">
   <path d="M 54.9316 0 L 57.666 0 L 30.5664 -70.459 L 28.0762 -70.459 L 0.976562 0 L 3.66211 0 L 12.9395 -24.4629 L 45.7031 -24.4629 Z M 29.1992 -67.0898 L 29.4434 -67.0898 L 44.8242 -26.709 L 13.8184 -26.709 Z"/>
  </g>
  <line id="Baseline-S" style="fill:none;stroke:#27AAE1;opacity:1;stroke-width:0.577;" x1="263" x2="3036" y1="696" y2="696"/>
  <line id="Capline-S" style="fill:none;stroke:#27AAE1;opacity:1;stroke-width:0.577;" x1="263" x2="3036" y1="625.541" y2="625.541"/>
  <g id="H-reference" style="fill:#27AAE1;stroke:none;" transform="matrix(1 0 0 1 339 1126)">
   <path d="M 54.9316 0 L 57.666 0 L 30.5664 -70.459 L 28.0762 -70.459 L 0.976562 0 L 3.66211 0 L 12.9395 -24.4629 L 45.7031 -24.4629 Z M 29.1992 -67.0898 L 29.4434 -67.0898 L 44.8242 -26.709 L 13.8184 -26.709 Z"/>
  </g>
  <line id="Baseline-M" style="fill:none;stroke:#27AAE1;opacity:1;stroke-width:0.577;" x1="263" x2="3036" y1="1126" y2="1126"/>
  <line id="Capline-M" style="fill:none;stroke:#27AAE1;opacity:1;stroke-width:0.577;" x1="263" x2="3036" y1="1055.54" y2="1055.54"/>
  <g id="H-reference" style="fill:#27AAE1;stroke:none;" transform="matrix(1 0 0 1 339 1556)">
   <path d="M 54.9316 0 L 57.666 0 L 30.5664 -70.459 L 28.0762 -70.459 L 0.976562 0 L 3.66211 0 L 12.9395 -24.4629 L 45.7031 -24.4629 Z M 29.1992 -67.0898 L 29.4434 -67.0898 L 44.8242 -26.709 L 13.8184 -26.709 Z"/>
  </g>
  <line id="Baseline-L" style="fill:none;stroke:#27AAE1;opacity:1;stroke-width:0.577;" x1="263" x2="3036" y1="1556" y2="1556"/>
  <line id="Capline-L" style="fill:none;stroke:#27AAE1;opacity:1;stroke-width:0.577;" x1="263" x2="3036" y1="1485.54" y2="1485.54"/>
  <rect height="119.336" id="left-margin" style="fill:#00AEEF;stroke:none;opacity:0.4;" width="9.96094" x="1389.59" y="1030.79"/>
  <rect height="119.336" id="right-margin" style="fill:#00AEEF;stroke:none;opacity:0.4;" width="10.0098" x="1500.09" y="1030.79"/>
 </g>
 <g id="Symbols">
  <g id="Ultralight-S" transform="matrix(1 0 0 1 513.08 696)">
   <path d="M 16.5527 -0.0488281 L 76.8066 -0.0488281 C 81.8848 -0.0488281 85.4492 -4.24805 85.4492 -8.83789 C 85.4492 -10.3027 85.1562 -11.7676 84.3262 -13.1836 L 54.1504 -67.041 C 52.5391 -69.9707 49.6094 -71.4355 46.6797 -71.4355 C 43.75 -71.4355 40.6738 -70.0195 39.1113 -67.041 L 8.88672 -13.1348 C 8.10547 -11.8164 7.8125 -10.3027 7.8125 -8.83789 C 7.8125 -4.24805 11.4258 -0.0488281 16.5527 -0.0488281 Z M 46.6797 -25.2441 C 45.752 -25.2441 45.166 -25.9766 45.166 -27.0996 L 44.8242 -48.6328 C 44.8242 -49.7559 45.5078 -50.4883 46.6797 -50.4883 C 47.8027 -50.4883 48.4863 -49.7559 48.4863 -48.6328 L 48.1934 -27.0996 C 48.1934 -25.9766 47.5586 -25.2441 46.6797 -25.2441 Z M 46.6797 -13.916 C 45.1172 -13.916 43.8965 -15.2344 43.8965 -16.6992 C 43.8965 -18.1641 45.1172 -19.4824 46.6797 -19.4824 C 48.2422 -19.4824 49.4629 -18.1641 49.4629 -16.6992 C 49.4629 -15.2344 48.2422 -13.916 46.6797 -13.916 Z"/>
  </g>
  <g id="Thin-S" transform="matrix(1 0 0 1 809.62 696)">
   <path d="M 16.6992 -0.146484 L 76.9043 -0.146484 C 82.2266 -0.146484 85.791 -4.3457 85.791 -9.08203 C 85.791 -10.5957 85.4492 -12.1094 84.6191 -13.5254 L 54.4922 -67.3828 C 52.832 -70.3125 49.8047 -71.8262 46.8262 -71.8262 C 43.8477 -71.8262 40.7227 -70.3613 39.1113 -67.3828 L 8.93555 -13.4277 C 8.1543 -12.1094 7.8125 -10.5957 7.8125 -9.08203 C 7.8125 -4.3457 11.4258 -0.146484 16.6992 -0.146484 Z M 46.8262 -25.6348 C 45.6055 -25.6348 44.8242 -26.4648 44.8242 -27.832 L 44.4336 -48.6816 C 44.4336 -50.0488 45.3613 -51.0254 46.8262 -51.0254 C 48.2422 -51.0254 49.1699 -50.0488 49.1699 -48.6328 L 48.7793 -27.832 C 48.7793 -26.4648 47.998 -25.6348 46.8262 -25.6348 Z M 46.8262 -13.5254 C 45.0684 -13.5254 43.6035 -14.9414 43.6035 -16.6504 C 43.6035 -18.4082 45.0684 -19.8242 46.8262 -19.8242 C 48.584 -19.8242 50 -18.4082 50 -16.6504 C 50 -14.9414 48.5352 -13.5254 46.8262 -13.5254 Z"/>
  </g>
  <g id="Light-S" transform="matrix(1 0 0 1 1106.04 696)">
   <path d="M 17.041 -0.341797 L 77.1484 -0.341797 C 82.7637 -0.341797 86.377 -4.49219 86.377 -9.57031 C 86.377 -11.084 85.9863 -12.6465 85.1562 -14.1113 L 55.0293 -67.9688 C 53.3203 -71.0449 50.2441 -72.6562 47.1191 -72.6562 C 43.9941 -72.6562 40.8203 -71.0449 39.1602 -67.9688 L 9.0332 -14.0625 C 8.20312 -12.6465 7.8125 -11.084 7.8125 -9.57031 C 7.8125 -4.49219 11.4258 -0.341797 17.041 -0.341797 Z M 47.1191 -26.3672 C 45.3125 -26.3672 44.2871 -27.4414 44.1895 -29.2969 L 43.7012 -48.6816 C 43.6523 -50.5859 45.0684 -51.9531 47.0703 -51.9531 C 49.0234 -51.9531 50.5371 -50.5371 50.4395 -48.6816 L 49.9512 -29.2969 C 49.9023 -27.3926 48.8281 -26.3672 47.1191 -26.3672 Z M 47.1191 -12.7441 C 45.0195 -12.7441 43.1152 -14.4531 43.1152 -16.6504 C 43.1152 -18.8477 44.9707 -20.5078 47.1191 -20.5078 C 49.2188 -20.5078 51.123 -18.8965 51.123 -16.6504 C 51.123 -14.4043 49.1699 -12.7441 47.1191 -12.7441 Z"/>
  </g>
  <g id="Regular-S" transform="matrix(1 0 0 1 1402.53 696)">
   <path d="M 17.2852 -0.488281 L 77.3438 -0.488281 C 83.2031 -0.488281 86.8164 -4.58984 86.8164 -9.96094 C 86.8164 -11.5234 86.4258 -13.0859 85.5957 -14.5508 L 55.4688 -68.4082 C 53.7598 -71.582 50.5371 -73.2422 47.3145 -73.2422 C 44.1406 -73.2422 40.918 -71.582 39.1602 -68.4082 L 9.13086 -14.5508 C 8.25195 -13.0859 7.8125 -11.5234 7.8125 -9.96094 C 7.8125 -4.58984 11.4258 -0.488281 17.2852 -0.488281 Z M 47.3145 -26.9043 C 45.0684 -26.9043 43.8477 -28.125 43.75 -30.4199 L 43.1641 -48.7305 C 43.0664 -51.0254 44.873 -52.6855 47.2656 -52.6855 C 49.6582 -52.6855 51.5137 -50.9766 51.416 -48.6816 L 50.8301 -30.4199 C 50.7324 -28.0762 49.5117 -26.9043 47.3145 -26.9043 Z M 47.3145 -12.1582 C 44.9707 -12.1582 42.6758 -14.0137 42.6758 -16.6016 C 42.6758 -19.1895 44.9219 -21.0449 47.3145 -21.0449 C 49.707 -21.0449 51.9531 -19.2383 51.9531 -16.6016 C 51.9531 -13.9648 49.6582 -12.1582 47.3145 -12.1582 Z"/>
  </g>
  <g id="Medium-S" transform="matrix(1 0 0 1 1698.78 696)">
   <path d="M 17.7734 -0.292969 L 77.7832 -0.292969 C 83.8379 -0.292969 87.7441 -4.73633 87.7441 -10.3027 C 87.7441 -11.9629 87.3047 -13.623 86.4258 -15.1855 L 56.3965 -68.9453 C 54.4922 -72.3145 51.1719 -74.0234 47.8027 -74.0234 C 44.3848 -74.0234 41.0156 -72.3145 39.1602 -68.9453 L 9.17969 -15.1855 C 8.25195 -13.623 7.8125 -11.9629 7.8125 -10.3027 C 7.8125 -4.73633 11.7188 -0.292969 17.7734 -0.292969 Z M 47.8027 -27.0508 C 45.3125 -27.0508 43.8965 -28.418 43.7988 -30.9082 L 43.2129 -47.6562 C 43.0664 -50.2441 45.0195 -52.0996 47.7539 -52.0996 C 50.4395 -52.0996 52.4414 -50.1953 52.3438 -47.6562 L 51.709 -30.9082 C 51.6113 -28.3691 50.1953 -27.0508 47.8027 -27.0508 Z M 47.8027 -12.1582 C 45.0684 -12.1582 42.7734 -14.0625 42.7734 -16.7969 C 42.7734 -19.5801 45.0195 -21.4355 47.8027 -21.4355 C 50.5371 -21.4355 52.7832 -19.5801 52.7832 -16.7969 C 52.7832 -14.0137 50.5371 -12.1582 47.8027 -12.1582 Z"/>
  </g>
  <g id="Semibold-S" transform="matrix(1 0 0 1 1995.15 696)">
   <path d="M 18.1641 -0.195312 L 78.0762 -0.195312 C 84.3262 -0.195312 88.4277 -4.88281 88.4277 -10.5469 C 88.4277 -12.2559 87.9883 -14.0137 87.0605 -15.625 L 57.0801 -69.3848 C 55.127 -72.8516 51.6602 -74.6094 48.1445 -74.6094 C 44.6289 -74.6094 41.0645 -72.8516 39.1602 -69.3848 L 9.17969 -15.625 C 8.25195 -14.0137 7.8125 -12.2559 7.8125 -10.5469 C 7.8125 -4.88281 11.9141 -0.195312 18.1641 -0.195312 Z M 48.1445 -27.1484 C 45.459 -27.1484 43.9453 -28.6133 43.8477 -31.2988 L 43.2129 -46.875 C 43.0664 -49.6582 45.166 -51.6113 48.0957 -51.6113 C 51.0742 -51.6113 53.1738 -49.6094 53.0273 -46.8262 L 52.3926 -31.2988 C 52.2461 -28.5645 50.7812 -27.1484 48.1445 -27.1484 Z M 48.1445 -12.1582 C 45.1172 -12.1582 42.8223 -14.0625 42.8223 -16.9434 C 42.8223 -19.873 45.0684 -21.7285 48.1445 -21.7285 C 51.1719 -21.7285 53.418 -19.873 53.418 -16.9434 C 53.418 -14.0137 51.1719 -12.1582 48.1445 -12.1582 Z"/>
  </g>
  <g id="Bold-S" transform="matrix(1 0 0 1 2291.39 696)">
   <path d="M 18.7012 -0.0488281 L 78.5156 -0.0488281 C 84.9609 -0.0488281 89.3555 -5.07812 89.3555 -10.9375 C 89.3555 -12.7441 88.916 -14.5508 87.9395 -16.2598 L 57.959 -69.9219 C 55.9082 -73.584 52.2949 -75.3906 48.584 -75.3906 C 44.9219 -75.3906 41.1621 -73.584 39.209 -69.9219 L 9.22852 -16.2109 C 8.25195 -14.5508 7.8125 -12.7441 7.8125 -10.9375 C 7.8125 -5.07812 12.207 -0.0488281 18.7012 -0.0488281 Z M 48.6328 -27.2949 C 45.7031 -27.2949 44.043 -28.8574 43.8965 -31.7871 L 43.2617 -45.8008 C 43.0664 -48.877 45.3125 -51.0254 48.584 -51.0254 C 51.8555 -51.0254 54.1016 -48.877 53.9062 -45.8008 L 53.2715 -31.8359 C 53.125 -28.8574 51.4648 -27.2949 48.6328 -27.2949 Z M 48.6328 -12.1582 C 45.166 -12.1582 42.9199 -14.0625 42.9199 -17.1875 C 42.9199 -20.2148 45.166 -22.1191 48.6328 -22.1191 C 51.9531 -22.1191 54.2969 -20.2148 54.2969 -17.1875 C 54.2969 -14.0625 52.002 -12.1582 48.6328 -12.1582 Z"/>
  </g>
  <g id="Heavy-S" transform="matrix(1 0 0 1 2587.45 696)">
   <path d="M 19.4336 0.195312 L 79.1016 0.195312 C 85.8398 0.195312 90.6738 -5.37109 90.6738 -11.4258 C 90.6738 -13.3789 90.2344 -15.332 89.1602 -17.1387 L 59.2773 -70.7031 C 57.0312 -74.6094 53.1738 -76.5137 49.2676 -76.5137 C 45.3125 -76.5137 41.3086 -74.6094 39.209 -70.7031 L 9.32617 -17.0898 C 8.25195 -15.3809 7.8125 -13.3789 7.8125 -11.4258 C 7.8125 -5.37109 12.5977 0.195312 19.4336 0.195312 Z M 49.3164 -27.4902 C 46.0449 -27.4902 44.1406 -29.248 43.9453 -32.4707 L 43.2617 -44.2383 C 43.0664 -47.7539 45.5566 -50.1465 49.2676 -50.1465 C 53.0273 -50.1465 55.4199 -47.7539 55.2246 -44.2383 L 54.541 -32.5684 C 54.3945 -29.248 52.5391 -27.4902 49.3164 -27.4902 Z M 49.3164 -12.1094 C 45.2637 -12.1094 43.0176 -14.0625 43.0176 -17.4805 C 43.0176 -20.8008 45.2637 -22.7051 49.3164 -22.7051 C 53.1738 -22.7051 55.5176 -20.752 55.5176 -17.4805 C 55.5176 -14.0625 53.2715 -12.1094 49.3164 -12.1094 Z"/>
  </g>
  <g id="Black-S" transform="matrix(1 0 0 1 2883.57 696)">
   <path d="M 20.0684 0.390625 L 79.6387 0.390625 C 86.6699 0.390625 91.8457 -5.56641 91.8457 -11.8652 C 91.8457 -13.9648 91.4062 -16.0156 90.2832 -17.9688 L 60.4492 -71.4355 C 58.0566 -75.5371 54.0039 -77.5391 49.8535 -77.5391 C 45.7031 -77.5391 41.4062 -75.5371 39.209 -71.4355 L 9.375 -17.8711 C 8.25195 -16.0645 7.8125 -13.9648 7.8125 -11.8652 C 7.8125 -5.56641 12.9883 0.390625 20.0684 0.390625 Z M 49.9023 -27.6855 C 46.3379 -27.6855 44.2383 -29.5898 44.043 -33.1055 L 43.3105 -42.8711 C 43.1152 -46.7773 45.752 -49.3164 49.8535 -49.3164 C 54.0527 -49.3164 56.6406 -46.7773 56.3965 -42.8711 L 55.7129 -33.252 C 55.5176 -29.5898 53.4668 -27.6855 49.9023 -27.6855 Z M 49.9023 -12.1094 C 45.3613 -12.1094 43.1152 -14.1113 43.1152 -17.7246 C 43.1152 -21.2891 45.3613 -23.1934 49.9023 -23.1934 C 54.248 -23.1934 56.5918 -21.2402 56.5918 -17.7246 C 56.5918 -14.1113 54.3945 -12.1094 49.9023 -12.1094 Z"/>
  </g>
  <g id="Ultralight-M" transform="matrix(1 0 0 1 500.238 1126)">
   <path d="M 21.0449 9.66797 L 97.9492 9.66797 C 104.443 9.66797 108.984 4.3457 108.984 -1.46484 C 108.984 -3.32031 108.594 -5.17578 107.568 -6.98242 L 69.043 -75.7324 C 66.9922 -79.3945 63.2324 -81.2988 59.5215 -81.2988 C 55.8594 -81.2988 51.9043 -79.4922 49.9023 -75.7324 L 11.3281 -6.88477 C 10.3516 -5.27344 9.96094 -3.32031 9.96094 -1.46484 C 9.96094 4.3457 14.5996 9.66797 21.0449 9.66797 Z M 59.5215 -22.3145 C 58.4961 -22.3145 57.7637 -23.2422 57.7637 -24.5117 L 57.373 -52.3438 C 57.373 -53.6621 58.1543 -54.541 59.5215 -54.541 C 60.8398 -54.541 61.6211 -53.6621 61.6211 -52.3438 L 61.2793 -24.5117 C 61.2793 -23.2422 60.5469 -22.3145 59.5215 -22.3145 Z M 59.5215 -8.20312 C 57.5684 -8.20312 56.1035 -9.81445 56.1035 -11.5723 C 56.1035 -13.3789 57.5684 -14.9902 59.5215 -14.9902 C 61.4258 -14.9902 62.8906 -13.3789 62.8906 -11.5723 C 62.8906 -9.81445 61.4258 -8.20312 59.5215 -8.20312 Z"/>
  </g>
  <g id="Thin-M" transform="matrix(1 0 0 1 796.779 1126)">
   <path d="M 21.2402 9.57031 L 98.0957 9.57031 C 104.785 9.57031 109.326 4.24805 109.326 -1.75781 C 109.326 -3.61328 108.936 -5.51758 107.861 -7.32422 L 69.3848 -76.0742 C 67.2852 -79.834 63.4766 -81.7383 59.668 -81.7383 C 55.9082 -81.7383 51.9531 -79.8828 49.9512 -76.0742 L 11.377 -7.22656 C 10.4004 -5.56641 9.96094 -3.61328 9.96094 -1.75781 C 9.96094 4.24805 14.5996 9.57031 21.2402 9.57031 Z M 59.668 -22.7539 C 58.3008 -22.7539 57.4219 -23.7793 57.373 -25.3906 L 56.9336 -52.3438 C 56.9336 -54.0039 58.0078 -55.0781 59.668 -55.0781 C 61.3281 -55.0781 62.4023 -54.0039 62.4023 -52.3438 L 61.9629 -25.3906 C 61.9141 -23.7793 61.0352 -22.7539 59.668 -22.7539 Z M 59.668 -7.71484 C 57.5684 -7.71484 55.8105 -9.47266 55.8105 -11.5723 C 55.8105 -13.623 57.5684 -15.3809 59.668 -15.3809 C 61.8164 -15.3809 63.5254 -13.623 63.5254 -11.5723 C 63.5254 -9.47266 61.8164 -7.71484 59.668 -7.71484 Z"/>
  </g>
  <g id="Light-M" transform="matrix(1 0 0 1 1093.15 1126)">
   <path d="M 21.6309 9.375 L 98.3887 9.375 C 105.42 9.375 110.01 4.10156 110.01 -2.29492 C 110.01 -4.19922 109.521 -6.20117 108.496 -8.00781 L 70.0195 -76.7578 C 67.8711 -80.6641 63.916 -82.6172 60.0098 -82.6172 C 56.1035 -82.6172 52.0996 -80.6641 49.9512 -76.7578 L 11.5234 -7.95898 C 10.4492 -6.20117 9.96094 -4.19922 9.96094 -2.29492 C 9.96094 4.10156 14.5996 9.375 21.6309 9.375 Z M 60.0098 -23.584 C 57.959 -23.584 56.7383 -24.8535 56.6895 -27.0508 L 56.1035 -52.3926 C 56.0547 -54.5898 57.666 -56.2012 59.9609 -56.2012 C 62.2559 -56.2012 63.916 -54.5898 63.8672 -52.3926 L 63.2812 -27.0508 C 63.1836 -24.8535 62.0117 -23.584 60.0098 -23.584 Z M 60.0098 -6.88477 C 57.4707 -6.88477 55.2246 -8.88672 55.2246 -11.5234 C 55.2246 -14.1113 57.4707 -16.1621 60.0098 -16.1621 C 62.5488 -16.1621 64.7949 -14.1602 64.7949 -11.5234 C 64.7949 -8.88672 62.5 -6.88477 60.0098 -6.88477 Z"/>
  </g>
  <g id="Regular-M" transform="matrix(1 0 0 1 1389.59 1126)">
   <path d="M 21.875 9.22852 L 98.584 9.22852 C 105.908 9.22852 110.498 3.95508 110.498 -2.68555 C 110.498 -4.6875 110.01 -6.68945 108.936 -8.54492 L 70.5078 -77.2949 C 68.3105 -81.25 64.3066 -83.3008 60.2539 -83.3008 C 56.25 -83.3008 52.1484 -81.25 49.9512 -77.2949 L 11.5723 -8.49609 C 10.498 -6.64062 9.96094 -4.6875 9.96094 -2.68555 C 9.96094 3.95508 14.5996 9.22852 21.875 9.22852 Z M 60.2539 -24.2188 C 57.666 -24.2188 56.25 -25.6836 56.1523 -28.3203 L 55.4688 -52.4414 C 55.3711 -55.0781 57.4219 -57.0312 60.2051 -57.0312 C 62.9395 -57.0312 65.0879 -55.0293 64.9902 -52.3926 L 64.2578 -28.3203 C 64.1602 -25.6348 62.7441 -24.2188 60.2539 -24.2188 Z M 60.2539 -6.20117 C 57.4219 -6.20117 54.7852 -8.44727 54.7852 -11.4746 C 54.7852 -14.502 57.373 -16.748 60.2539 -16.748 C 63.1348 -16.748 65.7227 -14.5508 65.7227 -11.4746 C 65.7227 -8.39844 63.0859 -6.20117 60.2539 -6.20117 Z"/>
  </g>
  <g id="Medium-M" transform="matrix(1 0 0 1 1685.81 1126)">
   <path d="M 22.4609 9.375 L 99.0723 9.375 C 106.592 9.375 111.523 3.75977 111.523 -3.125 C 111.523 -5.17578 110.986 -7.27539 109.863 -9.22852 L 71.4844 -77.8809 C 69.1406 -82.0801 64.9902 -84.1797 60.7422 -84.1797 C 56.543 -84.1797 52.2461 -82.0801 50 -77.8809 L 11.6211 -9.17969 C 10.498 -7.27539 9.96094 -5.17578 9.96094 -3.125 C 9.96094 3.75977 14.8926 9.375 22.4609 9.375 Z M 60.7422 -24.4141 C 57.8613 -24.4141 56.25 -26.0254 56.1523 -28.9551 L 55.4199 -51.3672 C 55.3223 -54.3457 57.5684 -56.4941 60.6934 -56.4941 C 63.8184 -56.4941 66.1621 -54.2969 66.0156 -51.3184 L 65.2832 -29.0039 C 65.1367 -26.0254 63.5254 -24.4141 60.7422 -24.4141 Z M 60.7422 -6.10352 C 57.5195 -6.10352 54.7852 -8.39844 54.7852 -11.6699 C 54.7852 -14.9414 57.4707 -17.2363 60.7422 -17.2363 C 64.0137 -17.2363 66.6992 -14.9902 66.6992 -11.6699 C 66.6992 -8.34961 64.0137 -6.10352 60.7422 -6.10352 Z"/>
  </g>
  <g id="Semibold-M" transform="matrix(1 0 0 1 1982.16 1126)">
   <path d="M 22.8516 9.47266 L 99.4141 9.47266 C 107.129 9.47266 112.256 3.61328 112.256 -3.41797 C 112.256 -5.56641 111.719 -7.71484 110.547 -9.76562 L 72.2168 -78.3691 C 69.8242 -82.666 65.4785 -84.8633 61.1328 -84.8633 C 56.7871 -84.8633 52.3438 -82.666 50 -78.3691 L 11.6699 -9.7168 C 10.498 -7.71484 9.96094 -5.56641 9.96094 -3.41797 C 9.96094 3.61328 15.0879 9.47266 22.8516 9.47266 Z M 61.1328 -24.6094 C 58.0566 -24.6094 56.2988 -26.3184 56.1523 -29.4434 L 55.4199 -50.5371 C 55.2734 -53.8086 57.666 -56.1035 61.084 -56.1035 C 64.502 -56.1035 66.9922 -53.7598 66.8457 -50.4883 L 66.0645 -29.4922 C 65.918 -26.2695 64.1602 -24.6094 61.1328 -24.6094 Z M 61.1328 -6.05469 C 57.5684 -6.05469 54.834 -8.39844 54.834 -11.8164 C 54.834 -15.2832 57.5195 -17.5781 61.1328 -17.5781 C 64.6973 -17.5781 67.4316 -15.2832 67.4316 -11.8164 C 67.4316 -8.34961 64.6973 -6.05469 61.1328 -6.05469 Z"/>
  </g>
  <g id="Bold-M" transform="matrix(1 0 0 1 2278.36 1126)">
   <path d="M 23.4375 9.61914 L 99.8535 9.61914 C 107.861 9.61914 113.232 3.41797 113.232 -3.80859 C 113.232 -6.05469 112.695 -8.30078 111.475 -10.4492 L 73.1934 -79.0039 C 70.6543 -83.4961 66.1621 -85.7422 61.6211 -85.7422 C 57.0801 -85.7422 52.4414 -83.4961 50 -79.0039 L 11.7676 -10.4004 C 10.498 -8.34961 9.96094 -6.05469 9.96094 -3.80859 C 9.96094 3.41797 15.3809 9.61914 23.4375 9.61914 Z M 61.6699 -24.8047 C 58.252 -24.8047 56.2988 -26.709 56.1035 -30.127 L 55.3711 -49.4629 C 55.1758 -53.0762 57.8125 -55.5664 61.6211 -55.5664 C 65.4297 -55.5664 68.0664 -53.0273 67.8711 -49.4141 L 67.0898 -30.1758 C 66.8945 -26.6602 64.9902 -24.8047 61.6699 -24.8047 Z M 61.6699 -5.95703 C 57.6172 -5.95703 54.834 -8.34961 54.834 -12.0605 C 54.834 -15.7227 57.5684 -18.0664 61.6699 -18.0664 C 65.625 -18.0664 68.4082 -15.7227 68.4082 -12.0605 C 68.4082 -8.30078 65.625 -5.95703 61.6699 -5.95703 Z"/>
  </g>
  <g id="Heavy-M" transform="matrix(1 0 0 1 2574.36 1126)">
   <path d="M 24.2188 9.81445 L 100.488 9.81445 C 108.887 9.81445 114.697 3.125 114.697 -4.44336 C 114.697 -6.78711 114.16 -9.17969 112.842 -11.4258 L 74.6582 -79.8828 C 71.9238 -84.668 67.1875 -87.0117 62.3535 -87.0117 C 57.5195 -87.0117 52.5879 -84.668 50.0488 -79.8828 L 11.8164 -11.377 C 10.5469 -9.22852 9.96094 -6.78711 9.96094 -4.44336 C 9.96094 3.125 15.8203 9.81445 24.2188 9.81445 Z M 62.4023 -25.1465 C 58.5449 -25.1465 56.3477 -27.1973 56.1035 -31.0547 L 55.2734 -47.8516 C 55.0781 -52.002 58.0078 -54.7852 62.3535 -54.7852 C 66.748 -54.7852 69.6289 -52.002 69.4336 -47.8516 L 68.6035 -31.1523 C 68.3594 -27.1973 66.2109 -25.1465 62.4023 -25.1465 Z M 62.4023 -5.81055 C 57.7148 -5.81055 54.8828 -8.25195 54.8828 -12.3535 C 54.8828 -16.3574 57.7148 -18.75 62.4023 -18.75 C 66.9434 -18.75 69.8242 -16.3086 69.8242 -12.3535 C 69.8242 -8.25195 66.9922 -5.81055 62.4023 -5.81055 Z"/>
  </g>
  <g id="Black-M" transform="matrix(1 0 0 1 2870.41 1126)">
   <path d="M 24.9512 10.0098 L 101.074 10.0098 C 109.766 10.0098 115.967 2.88086 115.967 -4.93164 C 115.967 -7.4707 115.43 -9.96094 114.062 -12.3535 L 75.9277 -80.7129 C 73.0469 -85.6934 68.0664 -88.1348 62.9883 -88.1348 C 57.959 -88.1348 52.7344 -85.6934 50.0488 -80.7129 L 11.9141 -12.2559 C 10.5469 -10.0098 9.96094 -7.4707 9.96094 -4.93164 C 9.96094 2.88086 16.1621 10.0098 24.9512 10.0098 Z M 63.0859 -25.4395 C 58.7891 -25.4395 56.3477 -27.6855 56.1035 -31.8848 L 55.2246 -46.4844 C 54.9805 -51.0254 58.1543 -54.1016 62.9883 -54.1016 C 67.9199 -54.1016 71.0449 -51.0254 70.8008 -46.4844 L 69.9219 -32.0312 C 69.6777 -27.6855 67.2852 -25.4395 63.0859 -25.4395 Z M 63.0859 -5.71289 C 57.7637 -5.71289 54.9316 -8.20312 54.9316 -12.5977 C 54.9316 -16.9434 57.7637 -19.3359 63.0859 -19.3359 C 68.1152 -19.3359 71.0938 -16.8457 71.0938 -12.5977 C 71.0938 -8.20312 68.2129 -5.71289 63.0859 -5.71289 Z"/>
  </g>
  <g id="Ultralight-L" transform="matrix(1 0 0 1 483.051 1556)">
   <path d="M 27.0996 22.7539 L 126.318 22.7539 C 134.619 22.7539 140.479 15.8203 140.479 8.44727 C 140.479 6.05469 139.99 3.66211 138.623 1.36719 L 88.916 -87.3535 C 86.2793 -92.041 81.4941 -94.4336 76.709 -94.4336 C 72.0215 -94.4336 66.9434 -92.1387 64.4043 -87.3535 L 14.5996 1.51367 C 13.3301 3.56445 12.8906 6.05469 12.8906 8.44727 C 12.8906 15.8203 18.7988 22.7539 27.0996 22.7539 Z M 76.709 -18.4082 C 75.5371 -18.4082 74.6582 -19.5312 74.6582 -21.0449 L 74.2188 -57.2754 C 74.2188 -58.8867 75.1465 -59.9121 76.709 -59.9121 C 78.3203 -59.9121 79.1992 -58.8867 79.1992 -57.2754 L 78.7598 -21.0449 C 78.7598 -19.5312 77.8809 -18.4082 76.709 -18.4082 Z M 76.709 -0.537109 C 74.3164 -0.537109 72.5586 -2.53906 72.5586 -4.73633 C 72.5586 -6.88477 74.3164 -8.93555 76.709 -8.93555 C 79.1016 -8.93555 80.8594 -6.88477 80.8594 -4.73633 C 80.8594 -2.53906 79.1016 -0.537109 76.709 -0.537109 Z"/>
  </g>
  <g id="Thin-L" transform="matrix(1 0 0 1 779.567 1556)">
   <path d="M 27.2949 22.6562 L 126.514 22.6562 C 134.961 22.6562 140.869 15.7715 140.869 8.1543 C 140.869 5.71289 140.332 3.32031 138.965 0.976562 L 89.3066 -87.7441 C 86.6211 -92.5293 81.7383 -94.9707 76.9043 -94.9707 C 72.1191 -94.9707 67.041 -92.5781 64.4043 -87.7441 L 14.6484 1.12305 C 13.3789 3.22266 12.8906 5.71289 12.8906 8.1543 C 12.8906 15.7715 18.7988 22.6562 27.2949 22.6562 Z M 76.9043 -18.8477 C 75.3418 -18.8477 74.2676 -20.166 74.2676 -22.0215 L 73.7305 -57.3242 C 73.7305 -59.2773 74.9512 -60.5469 76.9043 -60.5469 C 78.8574 -60.5469 80.0781 -59.2285 80.0293 -57.3242 L 79.541 -22.0215 C 79.4922 -20.1172 78.4668 -18.8477 76.9043 -18.8477 Z M 76.9043 -0.0488281 C 74.2676 -0.0488281 72.2168 -2.19727 72.2168 -4.6875 C 72.2168 -7.17773 74.2676 -9.375 76.9043 -9.375 C 79.4922 -9.375 81.5918 -7.17773 81.5918 -4.6875 C 81.5918 -2.19727 79.4922 -0.0488281 76.9043 -0.0488281 Z"/>
  </g>
  <g id="Light-L" transform="matrix(1 0 0 1 1075.89 1556)">
   <path d="M 27.6855 22.4121 L 126.807 22.4121 C 135.693 22.4121 141.602 15.5762 141.602 7.56836 C 141.602 5.07812 141.016 2.58789 139.648 0.195312 L 90.0391 -88.5254 C 87.3047 -93.4082 82.2754 -95.9473 77.2461 -95.9473 C 72.3145 -95.9473 67.1387 -93.457 64.4531 -88.5254 L 14.7949 0.292969 C 13.4277 2.53906 12.8906 5.07812 12.8906 7.56836 C 12.8906 15.5762 18.7988 22.4121 27.6855 22.4121 Z M 77.2461 -19.7754 C 74.9512 -19.7754 73.5352 -21.3379 73.4863 -23.877 L 72.8027 -57.373 C 72.7539 -59.9609 74.5605 -61.7676 77.2461 -61.7676 C 79.8828 -61.7676 81.7383 -59.9121 81.6895 -57.3242 L 81.0059 -23.877 C 80.9082 -21.2891 79.541 -19.7754 77.2461 -19.7754 Z M 77.2461 0.927734 C 74.2188 0.927734 71.5332 -1.5625 71.5332 -4.63867 C 71.5332 -7.76367 74.1699 -10.2539 77.2461 -10.2539 C 80.3223 -10.2539 83.0078 -7.76367 83.0078 -4.63867 C 83.0078 -1.51367 80.3223 0.927734 77.2461 0.927734 Z"/>
  </g>
  <g id="Regular-L" transform="matrix(1 0 0 1 1372.33 1556)">
   <path d="M 28.0273 22.2656 L 127.051 22.2656 C 136.279 22.2656 142.188 15.4297 142.188 7.08008 C 142.188 4.58984 141.553 2.00195 140.186 -0.390625 L 90.5762 -89.0625 C 87.793 -94.0918 82.666 -96.7285 77.5391 -96.7285 C 72.4609 -96.7285 67.2363 -94.1406 64.4531 -89.0625 L 14.8926 -0.292969 C 13.4766 2.05078 12.8906 4.58984 12.8906 7.08008 C 12.8906 15.4297 18.7988 22.2656 28.0273 22.2656 Z M 77.5391 -20.5078 C 74.6582 -20.5078 72.998 -22.2656 72.9004 -25.293 L 72.1191 -57.4219 C 72.0215 -60.4492 74.2676 -62.6465 77.4902 -62.6465 C 80.6641 -62.6465 83.0078 -60.4004 82.9102 -57.373 L 82.0801 -25.293 C 81.9824 -22.2168 80.3223 -20.5078 77.5391 -20.5078 Z M 77.5391 1.70898 C 74.1699 1.70898 71.0449 -1.02539 71.0449 -4.58984 C 71.0449 -8.1543 74.1211 -10.8887 77.5391 -10.8887 C 80.957 -10.8887 84.0332 -8.25195 84.0332 -4.58984 C 84.0332 -0.976562 80.9082 1.70898 77.5391 1.70898 Z"/>
  </g>
  <g id="Medium-L" transform="matrix(1 0 0 1 1668.53 1556)">
   <path d="M 28.5645 22.3633 L 127.49 22.3633 C 137.012 22.3633 143.213 15.2344 143.213 6.64062 C 143.213 4.00391 142.529 1.36719 141.113 -1.12305 L 91.5527 -89.7461 C 88.6719 -94.9707 83.3496 -97.6562 78.0273 -97.6562 C 72.7539 -97.6562 67.334 -95.0195 64.502 -89.7461 L 14.9414 -1.02539 C 13.5254 1.36719 12.8906 4.00391 12.8906 6.64062 C 12.8906 15.2344 19.0918 22.3633 28.5645 22.3633 Z M 78.0762 -20.8496 C 74.7559 -20.8496 72.9004 -22.7539 72.7539 -26.123 L 71.9238 -56.4453 C 71.8262 -59.9121 74.3652 -62.3535 77.9785 -62.3535 C 81.5918 -62.3535 84.2285 -59.8633 84.1309 -56.3965 L 83.252 -26.123 C 83.1055 -22.7051 81.25 -20.8496 78.0762 -20.8496 Z M 78.0762 1.9043 C 74.2188 1.9043 70.9961 -0.927734 70.9961 -4.78516 C 70.9961 -8.64258 74.1699 -11.4746 78.0762 -11.4746 C 81.9336 -11.4746 85.1074 -8.69141 85.1074 -4.78516 C 85.1074 -0.878906 81.8848 1.9043 78.0762 1.9043 Z"/>
  </g>
  <g id="Semibold-L" transform="matrix(1 0 0 1 1964.85 1556)">
   <path d="M 29.0039 22.4609 L 127.881 22.4609 C 137.549 22.4609 143.945 15.0879 143.945 6.29883 C 143.945 3.61328 143.311 0.878906 141.846 -1.66016 L 92.334 -90.2344 C 89.3066 -95.6543 83.8867 -98.3887 78.418 -98.3887 C 72.998 -98.3887 67.4316 -95.6543 64.502 -90.2344 L 14.9902 -1.61133 C 13.5254 0.878906 12.8906 3.61328 12.8906 6.29883 C 12.8906 15.0879 19.2871 22.4609 29.0039 22.4609 Z M 78.4668 -21.0938 C 74.8535 -21.0938 72.8516 -23.1445 72.7051 -26.7578 L 71.8262 -55.6641 C 71.6309 -59.4727 74.4141 -62.1094 78.3691 -62.1094 C 82.3242 -62.1094 85.1562 -59.4238 85.0098 -55.6152 L 84.082 -26.8066 C 83.9355 -23.0957 81.9336 -21.0938 78.4668 -21.0938 Z M 78.4668 2.05078 C 74.2188 2.05078 70.9473 -0.830078 70.9473 -4.93164 C 70.9473 -9.0332 74.2188 -11.8652 78.4668 -11.8652 C 82.6172 -11.8652 85.9375 -9.0332 85.9375 -4.93164 C 85.9375 -0.78125 82.6172 2.05078 78.4668 2.05078 Z"/>
  </g>
  <g id="Bold-L" transform="matrix(1 0 0 1 2261.05 1556)">
   <path d="M 29.5898 22.5586 L 128.32 22.5586 C 138.33 22.5586 144.971 14.8926 144.971 5.81055 C 144.971 3.02734 144.287 0.244141 142.773 -2.39258 L 93.3105 -90.918 C 90.1855 -96.4844 84.6191 -99.3164 78.9551 -99.3164 C 73.291 -99.3164 67.5293 -96.5332 64.502 -90.918 L 15.0879 -2.34375 C 13.5254 0.244141 12.8906 3.02734 12.8906 5.81055 C 12.8906 14.8926 19.5312 22.5586 29.5898 22.5586 Z M 78.9551 -21.3867 C 75 -21.3867 72.7539 -23.6328 72.5586 -27.6367 L 71.6309 -54.6875 C 71.4355 -58.8867 74.5117 -61.8164 78.9062 -61.8164 C 83.3008 -61.8164 86.4258 -58.8379 86.2305 -54.6387 L 85.2539 -27.6855 C 85.0586 -23.584 82.8125 -21.3867 78.9551 -21.3867 Z M 78.9551 2.29492 C 74.2676 2.29492 70.8496 -0.683594 70.8496 -5.12695 C 70.8496 -9.52148 74.2676 -12.4512 78.9551 -12.4512 C 83.5938 -12.4512 87.0117 -9.52148 87.0117 -5.12695 C 87.0117 -0.634766 83.5938 2.29492 78.9551 2.29492 Z"/>
  </g>
  <g id="Heavy-L" transform="matrix(1 0 0 1 2557.03 1556)">
   <path d="M 30.3711 22.6562 L 128.955 22.6562 C 139.404 22.6562 146.436 14.5508 146.436 5.17578 C 146.436 2.24609 145.752 -0.732422 144.141 -3.4668 L 94.7754 -91.8945 C 91.4551 -97.7539 85.5957 -100.684 79.6875 -100.684 C 73.7793 -100.684 67.7246 -97.7539 64.5508 -91.8945 L 15.1855 -3.41797 C 13.5742 -0.732422 12.8906 2.24609 12.8906 5.17578 C 12.8906 14.5508 19.9219 22.6562 30.3711 22.6562 Z M 79.7363 -21.875 C 75.1953 -21.875 72.6562 -24.3652 72.4121 -28.8574 L 71.3867 -53.2715 C 71.1426 -58.0566 74.6094 -61.377 79.6387 -61.377 C 84.7168 -61.377 88.1836 -58.0078 87.9395 -53.2227 L 86.9141 -28.9551 C 86.6699 -24.3164 84.1309 -21.875 79.7363 -21.875 Z M 79.7363 2.58789 C 74.3652 2.58789 70.752 -0.488281 70.752 -5.37109 C 70.752 -10.2051 74.3164 -13.2324 79.7363 -13.2324 C 84.9609 -13.2324 88.623 -10.1562 88.623 -5.37109 C 88.623 -0.488281 85.0098 2.58789 79.7363 2.58789 Z"/>
  </g>
  <g id="Black-L" transform="matrix(1 0 0 1 2853.08 1556)">
   <path d="M 31.1035 22.8027 L 129.59 22.8027 C 140.332 22.8027 147.754 14.3066 147.754 4.54102 C 147.754 1.51367 147.021 -1.5625 145.361 -4.44336 L 96.0938 -92.7734 C 92.5781 -98.877 86.5234 -101.904 80.3223 -101.904 C 74.1699 -101.904 67.8711 -98.877 64.5508 -92.7734 L 15.2832 -4.3457 C 13.5742 -1.5625 12.8906 1.51367 12.8906 4.54102 C 12.8906 14.3066 20.2637 22.8027 31.1035 22.8027 Z M 80.4199 -22.3145 C 75.3906 -22.3145 72.5098 -25 72.2656 -29.9805 L 71.1426 -51.9531 C 70.8984 -57.2754 74.707 -60.9375 80.3223 -60.9375 C 85.9863 -60.9375 89.7949 -57.2754 89.502 -51.9531 L 88.3789 -30.0781 C 88.1348 -24.9512 85.3516 -22.3145 80.4199 -22.3145 Z M 80.4199 2.88086 C 74.4141 2.88086 70.6543 -0.341797 70.6543 -5.61523 C 70.6543 -10.8398 74.4141 -13.9648 80.4199 -13.9648 C 86.1816 -13.9648 89.9902 -10.791 89.9902 -5.61523 C 89.9902 -0.292969 86.2793 2.88086 80.4199 2.88086 Z"/>
  </g>
 </g>
</svg>
