<?xml version="1.0" encoding="UTF-8"?>
<!--Generator: Apple Native CoreSVG 123-->
<!DOCTYPE svg
PUBLIC "-//W3C//DTD SVG 1.1//EN"
       "http://www.w3.org/Graphics/SVG/1.1/DTD/svg11.dtd">
<svg version="1.1" xmlns="http://www.w3.org/2000/svg" xmlns:xlink="http://www.w3.org/1999/xlink" width="3300" height="2200">
 <!--glyph: "uni10005F.medium", point size: 100.000000, font version: "Version 15.0d4e20", template writer version: "2"-->
 <g id="Notes">
  <rect height="2200" id="artboard" style="fill:white;opacity:1" width="3300" x="0" y="0"/>
  <line id="" style="fill:none;stroke:black;opacity:1;stroke-width:0.5;" x1="263" x2="3036" y1="292" y2="292"/>
  <text style="stroke:none;fill:black;font-family:-apple-system,&quot;SF Pro Display&quot;,&quot;SF Pro Text&quot;,Helvetica,sans-serif;font-weight:bold;" transform="matrix(1 0 0 1 263 322)">Weight/Scale Variations</text>
  <text style="stroke:none;fill:black;font-family:-apple-system,&quot;SF Pro Display&quot;,&quot;SF Pro Text&quot;,Helvetica,sans-serif;text-anchor:middle;" transform="matrix(1 0 0 1 559.711 322)">Ultralight</text>
  <text style="stroke:none;fill:black;font-family:-apple-system,&quot;SF Pro Display&quot;,&quot;SF Pro Text&quot;,Helvetica,sans-serif;text-anchor:middle;" transform="matrix(1 0 0 1 856.422 322)">Thin</text>
  <text style="stroke:none;fill:black;font-family:-apple-system,&quot;SF Pro Display&quot;,&quot;SF Pro Text&quot;,Helvetica,sans-serif;text-anchor:middle;" transform="matrix(1 0 0 1 1153.13 322)">Light</text>
  <text style="stroke:none;fill:black;font-family:-apple-system,&quot;SF Pro Display&quot;,&quot;SF Pro Text&quot;,Helvetica,sans-serif;text-anchor:middle;" transform="matrix(1 0 0 1 1449.84 322)">Regular</text>
  <text style="stroke:none;fill:black;font-family:-apple-system,&quot;SF Pro Display&quot;,&quot;SF Pro Text&quot;,Helvetica,sans-serif;text-anchor:middle;" transform="matrix(1 0 0 1 1746.56 322)">Medium</text>
  <text style="stroke:none;fill:black;font-family:-apple-system,&quot;SF Pro Display&quot;,&quot;SF Pro Text&quot;,Helvetica,sans-serif;text-anchor:middle;" transform="matrix(1 0 0 1 2043.27 322)">Semibold</text>
  <text style="stroke:none;fill:black;font-family:-apple-system,&quot;SF Pro Display&quot;,&quot;SF Pro Text&quot;,Helvetica,sans-serif;text-anchor:middle;" transform="matrix(1 0 0 1 2339.98 322)">Bold</text>
  <text style="stroke:none;fill:black;font-family:-apple-system,&quot;SF Pro Display&quot;,&quot;SF Pro Text&quot;,Helvetica,sans-serif;text-anchor:middle;" transform="matrix(1 0 0 1 2636.69 322)">Heavy</text>
  <text style="stroke:none;fill:black;font-family:-apple-system,&quot;SF Pro Display&quot;,&quot;SF Pro Text&quot;,Helvetica,sans-serif;text-anchor:middle;" transform="matrix(1 0 0 1 2933.4 322)">Black</text>
  <line id="" style="fill:none;stroke:black;opacity:1;stroke-width:0.5;" x1="263" x2="3036" y1="1903" y2="1903"/>
  <g id="" transform="matrix(1 0 0 1 263 1933)">
   <path d="M 9.24805 0.830078 C 13.5547 0.830078 17.1387 -2.74414 17.1387 -7.05078 C 17.1387 -11.3574 13.5449 -14.9316 9.23828 -14.9316 C 4.94141 -14.9316 1.36719 -11.3574 1.36719 -7.05078 C 1.36719 -2.74414 4.95117 0.830078 9.24805 0.830078 Z M 9.24805 -0.654297 C 5.70312 -0.654297 2.87109 -3.49609 2.87109 -7.05078 C 2.87109 -10.6055 5.69336 -13.4473 9.23828 -13.4473 C 12.793 -13.4473 15.6348 -10.6055 15.6445 -7.05078 C 15.6543 -3.49609 12.8027 -0.654297 9.24805 -0.654297 Z M 9.22852 -3.42773 C 9.69727 -3.42773 9.9707 -3.74023 9.9707 -4.25781 L 9.9707 -6.31836 L 12.1973 -6.31836 C 12.6953 -6.31836 13.0371 -6.57227 13.0371 -7.04102 C 13.0371 -7.51953 12.7148 -7.7832 12.1973 -7.7832 L 9.9707 -7.7832 L 9.9707 -10.0098 C 9.9707 -10.5273 9.69727 -10.8496 9.22852 -10.8496 C 8.75977 -10.8496 8.50586 -10.5078 8.50586 -10.0098 L 8.50586 -7.7832 L 6.29883 -7.7832 C 5.78125 -7.7832 5.44922 -7.51953 5.44922 -7.04102 C 5.44922 -6.57227 5.80078 -6.31836 6.29883 -6.31836 L 8.50586 -6.31836 L 8.50586 -4.25781 C 8.50586 -3.75977 8.75977 -3.42773 9.22852 -3.42773 Z"/>
  </g>
  <g id="" transform="matrix(1 0 0 1 281.506 1933)">
   <path d="M 11.709 2.91016 C 17.1484 2.91016 21.6699 -1.60156 21.6699 -7.05078 C 21.6699 -12.4902 17.1387 -17.0117 11.6992 -17.0117 C 6.25 -17.0117 1.74805 -12.4902 1.74805 -7.05078 C 1.74805 -1.60156 6.25977 2.91016 11.709 2.91016 Z M 11.709 1.25 C 7.09961 1.25 3.41797 -2.44141 3.41797 -7.05078 C 3.41797 -11.6504 7.08984 -15.3516 11.6992 -15.3516 C 16.2988 -15.3516 20 -11.6504 20.0098 -7.05078 C 20.0195 -2.44141 16.3086 1.25 11.709 1.25 Z M 11.6797 -2.41211 C 12.207 -2.41211 12.5195 -2.77344 12.5195 -3.33984 L 12.5195 -6.23047 L 15.5762 -6.23047 C 16.123 -6.23047 16.5039 -6.51367 16.5039 -7.03125 C 16.5039 -7.55859 16.1426 -7.86133 15.5762 -7.86133 L 12.5195 -7.86133 L 12.5195 -10.9277 C 12.5195 -11.5039 12.207 -11.8555 11.6797 -11.8555 C 11.1621 -11.8555 10.8789 -11.4844 10.8789 -10.9277 L 10.8789 -7.86133 L 7.83203 -7.86133 C 7.25586 -7.86133 6.89453 -7.55859 6.89453 -7.03125 C 6.89453 -6.51367 7.28516 -6.23047 7.83203 -6.23047 L 10.8789 -6.23047 L 10.8789 -3.33984 C 10.8789 -2.79297 11.1621 -2.41211 11.6797 -2.41211 Z"/>
  </g>
  <g id="" transform="matrix(1 0 0 1 304.914 1933)">
   <path d="M 14.9707 5.67383 C 21.9336 5.67383 27.6855 -0.078125 27.6855 -7.04102 C 27.6855 -14.0039 21.9238 -19.7559 14.9609 -19.7559 C 7.99805 -19.7559 2.25586 -14.0039 2.25586 -7.04102 C 2.25586 -0.078125 8.00781 5.67383 14.9707 5.67383 Z M 14.9707 3.85742 C 8.92578 3.85742 4.08203 -1.00586 4.08203 -7.04102 C 4.08203 -13.0762 8.91602 -17.9395 14.9609 -17.9395 C 20.9961 -17.9395 25.8594 -13.0762 25.8691 -7.04102 C 25.8789 -1.00586 21.0059 3.85742 14.9707 3.85742 Z M 14.9414 -1.06445 C 15.5176 -1.06445 15.8594 -1.45508 15.8594 -2.06055 L 15.8594 -6.13281 L 20.0977 -6.13281 C 20.6934 -6.13281 21.1133 -6.46484 21.1133 -7.02148 C 21.1133 -7.59766 20.7227 -7.93945 20.0977 -7.93945 L 15.8594 -7.93945 L 15.8594 -12.1875 C 15.8594 -12.8027 15.5176 -13.1934 14.9414 -13.1934 C 14.3848 -13.1934 14.0625 -12.7832 14.0625 -12.1875 L 14.0625 -7.93945 L 9.82422 -7.93945 C 9.20898 -7.93945 8.80859 -7.59766 8.80859 -7.02148 C 8.80859 -6.46484 9.23828 -6.13281 9.82422 -6.13281 L 14.0625 -6.13281 L 14.0625 -2.06055 C 14.0625 -1.47461 14.3848 -1.06445 14.9414 -1.06445 Z"/>
  </g>
  <text style="stroke:none;fill:black;font-family:-apple-system,&quot;SF Pro Display&quot;,&quot;SF Pro Text&quot;,Helvetica,sans-serif;font-weight:bold;" transform="matrix(1 0 0 1 263 1953)">Design Variations</text>
  <text style="stroke:none;fill:black;font-family:-apple-system,&quot;SF Pro Display&quot;,&quot;SF Pro Text&quot;,Helvetica,sans-serif;" transform="matrix(1 0 0 1 263 1971)">Symbols are supported in up to nine weights and three scales.</text>
  <text style="stroke:none;fill:black;font-family:-apple-system,&quot;SF Pro Display&quot;,&quot;SF Pro Text&quot;,Helvetica,sans-serif;" transform="matrix(1 0 0 1 263 1989)">For optimal layout with text and other symbols, vertically align</text>
  <text style="stroke:none;fill:black;font-family:-apple-system,&quot;SF Pro Display&quot;,&quot;SF Pro Text&quot;,Helvetica,sans-serif;" transform="matrix(1 0 0 1 263 2007)">symbols with the adjacent text.</text>
  <rect height="14" id="" style="fill:#00AEEF;stroke:none;opacity:0.4;" width="3" x="776" y="1919"/>
  <g id="" transform="matrix(1 0 0 1 779 1933)">
   <path d="M 10.5273 0 L 12.373 0 L 7.17773 -14.0918 L 5.43945 -14.0918 L 0.244141 0 L 2.08984 0 L 3.50586 -4.0332 L 9.11133 -4.0332 Z M 6.2793 -11.9531 L 6.33789 -11.9531 L 8.59375 -5.52734 L 4.02344 -5.52734 Z"/>
  </g>
  <rect height="14" id="" style="fill:#00AEEF;stroke:none;opacity:0.4;" width="3" x="791.617" y="1919"/>
  <text style="stroke:none;fill:black;font-family:-apple-system,&quot;SF Pro Display&quot;,&quot;SF Pro Text&quot;,Helvetica,sans-serif;font-weight:bold;" transform="matrix(1 0 0 1 776 1953)">Side Bearings</text>
  <text style="stroke:none;fill:black;font-family:-apple-system,&quot;SF Pro Display&quot;,&quot;SF Pro Text&quot;,Helvetica,sans-serif;" transform="matrix(1 0 0 1 776 1971)">Horizontal padding on the left and right side of each symbol</text>
  <text style="stroke:none;fill:black;font-family:-apple-system,&quot;SF Pro Display&quot;,&quot;SF Pro Text&quot;,Helvetica,sans-serif;" transform="matrix(1 0 0 1 776 1989)">can be adjusted by modifying the width of the blue rectangles.</text>
  <text style="stroke:none;fill:black;font-family:-apple-system,&quot;SF Pro Display&quot;,&quot;SF Pro Text&quot;,Helvetica,sans-serif;" transform="matrix(1 0 0 1 776 2007)">Modifications are automatically applied proportionally to all</text>
  <text style="stroke:none;fill:black;font-family:-apple-system,&quot;SF Pro Display&quot;,&quot;SF Pro Text&quot;,Helvetica,sans-serif;" transform="matrix(1 0 0 1 776 2025)">scales and weights.</text>
  <g id="" transform="matrix(1 0 0 1 1289 1933)">
   <path d="M 2.96875 2.35352 L 3.80859 3.19336 C 4.84375 4.22852 6.12305 4.15039 7.19727 2.97852 L 16.1621 -6.82617 C 16.5527 -6.74805 16.9629 -6.8457 17.4902 -7.02148 C 18.1738 -7.25586 18.2715 -7.25586 18.3887 -7.13867 C 18.5352 -7.01172 18.4863 -6.89453 18.2422 -6.25 C 17.8809 -5.33203 17.8125 -4.79492 18.5547 -4.02344 L 19.4238 -3.13477 C 20.2734 -2.24609 21.3281 -2.26562 22.2168 -3.14453 L 25.0586 -5.97656 C 25.9473 -6.86523 25.957 -7.92969 25.0781 -8.7793 L 24.1797 -9.64844 C 23.4082 -10.4004 22.8711 -10.3516 21.9629 -9.98047 C 21.3184 -9.72656 21.2012 -9.6875 21.0645 -9.81445 C 20.9375 -9.93164 20.9473 -10.0391 21.1816 -10.7129 C 21.5332 -11.6895 21.5723 -12.2852 20.752 -13.0957 L 19.3359 -14.5117 C 15.1953 -18.6133 11.2305 -18.7402 7.65625 -15.4395 C 7.08008 -14.9023 6.99219 -14.1504 7.53906 -13.6133 L 7.79297 -13.3594 C 8.22266 -12.9297 8.86719 -12.8418 9.41406 -13.1152 C 11.0645 -13.9453 12.2559 -14.0234 13.457 -12.9785 L 13.0273 -11.416 C 12.8516 -10.8008 12.793 -10.3418 12.9199 -9.93164 L 3.18359 -1.04492 C 2.02148 0.0292969 1.93359 1.32812 2.96875 2.35352 Z M 8.96484 -14.4922 C 8.89648 -14.5703 8.86719 -14.6582 8.99414 -14.7559 C 11.709 -17.2852 15.0391 -16.8457 18.3496 -13.5254 L 19.6973 -12.168 C 20.0879 -11.7773 20.0977 -11.582 19.8828 -10.8691 C 19.6582 -10.127 19.502 -9.53125 20.1465 -8.88672 C 20.8105 -8.22266 21.2891 -8.41797 22.207 -8.63281 C 22.9004 -8.79883 23.0664 -8.79883 23.4473 -8.41797 L 24.0918 -7.77344 C 24.4043 -7.48047 24.4141 -7.32422 24.0723 -6.97266 L 21.2207 -4.13086 C 20.8887 -3.79883 20.7227 -3.79883 20.4297 -4.10156 L 19.7852 -4.75586 C 19.4141 -5.13672 19.4141 -5.30273 19.5801 -6.01562 C 19.7852 -6.88477 19.9805 -7.38281 19.3262 -8.04688 C 18.6719 -8.7207 18.0762 -8.57422 17.3438 -8.33008 C 16.5625 -8.06641 16.3281 -8.06641 15.8984 -8.49609 L 14.6094 -9.78516 C 14.1699 -10.2246 14.1309 -10.4395 14.2676 -10.9082 L 15.0293 -13.3984 C 13.3887 -15.2832 11.4941 -15.5566 9.20898 -14.4434 C 9.11133 -14.3945 9.04297 -14.4141 8.96484 -14.4922 Z M 3.96484 1.36719 C 3.52539 0.927734 3.54492 0.537109 4.14062 -0.00976562 L 13.7402 -8.81836 L 15 -7.55859 L 6.17188 2.02148 C 5.625 2.60742 5.24414 2.64648 4.79492 2.19727 Z"/>
  </g>
  <text style="stroke:none;fill:black;font-family:-apple-system,&quot;SF Pro Display&quot;,&quot;SF Pro Text&quot;,Helvetica,sans-serif;font-weight:bold;" transform="matrix(1 0 0 1 1289 1953)">Exporting</text>
  <text style="stroke:none;fill:black;font-family:-apple-system,&quot;SF Pro Display&quot;,&quot;SF Pro Text&quot;,Helvetica,sans-serif;" transform="matrix(1 0 0 1 1289 1971)">Symbols should be outlined when exporting to ensure the</text>
  <text style="stroke:none;fill:black;font-family:-apple-system,&quot;SF Pro Display&quot;,&quot;SF Pro Text&quot;,Helvetica,sans-serif;" transform="matrix(1 0 0 1 1289 1989)">design is preserved when submitting to Xcode.</text>
  <text id="template-version" style="stroke:none;fill:black;font-family:-apple-system,&quot;SF Pro Display&quot;,&quot;SF Pro Text&quot;,Helvetica,sans-serif;text-anchor:end;" transform="matrix(1 0 0 1 3036 1933)">Template v.0.1</text>
  <text style="stroke:none;fill:black;font-family:-apple-system,&quot;SF Pro Display&quot;,&quot;SF Pro Text&quot;,Helvetica,sans-serif;text-anchor:end;" transform="matrix(1 0 0 1 3036 1951)">Generated from exclamationmark.circle.fill</text>
  <text style="stroke:none;fill:black;font-family:-apple-system,&quot;SF Pro Display&quot;,&quot;SF Pro Text&quot;,Helvetica,sans-serif;text-anchor:end;" transform="matrix(1 0 0 1 3036 1969)">Typeset at 100 points</text>
  <text style="stroke:none;fill:black;font-family:-apple-system,&quot;SF Pro Display&quot;,&quot;SF Pro Text&quot;,Helvetica,sans-serif;" transform="matrix(1 0 0 1 263 726)">Small</text>
  <text style="stroke:none;fill:black;font-family:-apple-system,&quot;SF Pro Display&quot;,&quot;SF Pro Text&quot;,Helvetica,sans-serif;" transform="matrix(1 0 0 1 263 1156)">Medium</text>
  <text style="stroke:none;fill:black;font-family:-apple-system,&quot;SF Pro Display&quot;,&quot;SF Pro Text&quot;,Helvetica,sans-serif;" transform="matrix(1 0 0 1 263 1586)">Large</text>
 </g>
 <g id="Guides">
  <g id="H-reference" style="fill:#27AAE1;stroke:none;" transform="matrix(1 0 0 1 339 696)">
   <path d="M 54.9316 0 L 57.666 0 L 30.5664 -70.459 L 28.0762 -70.459 L 0.976562 0 L 3.66211 0 L 12.9395 -24.4629 L 45.7031 -24.4629 Z M 29.1992 -67.0898 L 29.4434 -67.0898 L 44.8242 -26.709 L 13.8184 -26.709 Z"/>
  </g>
  <line id="Baseline-S" style="fill:none;stroke:#27AAE1;opacity:1;stroke-width:0.577;" x1="263" x2="3036" y1="696" y2="696"/>
  <line id="Capline-S" style="fill:none;stroke:#27AAE1;opacity:1;stroke-width:0.577;" x1="263" x2="3036" y1="625.541" y2="625.541"/>
  <g id="H-reference" style="fill:#27AAE1;stroke:none;" transform="matrix(1 0 0 1 339 1126)">
   <path d="M 54.9316 0 L 57.666 0 L 30.5664 -70.459 L 28.0762 -70.459 L 0.976562 0 L 3.66211 0 L 12.9395 -24.4629 L 45.7031 -24.4629 Z M 29.1992 -67.0898 L 29.4434 -67.0898 L 44.8242 -26.709 L 13.8184 -26.709 Z"/>
  </g>
  <line id="Baseline-M" style="fill:none;stroke:#27AAE1;opacity:1;stroke-width:0.577;" x1="263" x2="3036" y1="1126" y2="1126"/>
  <line id="Capline-M" style="fill:none;stroke:#27AAE1;opacity:1;stroke-width:0.577;" x1="263" x2="3036" y1="1055.54" y2="1055.54"/>
  <g id="H-reference" style="fill:#27AAE1;stroke:none;" transform="matrix(1 0 0 1 339 1556)">
   <path d="M 54.9316 0 L 57.666 0 L 30.5664 -70.459 L 28.0762 -70.459 L 0.976562 0 L 3.66211 0 L 12.9395 -24.4629 L 45.7031 -24.4629 Z M 29.1992 -67.0898 L 29.4434 -67.0898 L 44.8242 -26.709 L 13.8184 -26.709 Z"/>
  </g>
  <line id="Baseline-L" style="fill:none;stroke:#27AAE1;opacity:1;stroke-width:0.577;" x1="263" x2="3036" y1="1556" y2="1556"/>
  <line id="Capline-L" style="fill:none;stroke:#27AAE1;opacity:1;stroke-width:0.577;" x1="263" x2="3036" y1="1485.54" y2="1485.54"/>
  <rect height="119.336" id="left-margin" style="fill:#00AEEF;stroke:none;opacity:0.4;" width="8.74023" x="1391.32" y="1030.79"/>
  <rect height="119.336" id="right-margin" style="fill:#00AEEF;stroke:none;opacity:0.4;" width="8.69141" x="1499.67" y="1030.79"/>
 </g>
 <g id="Symbols">
  <g id="Ultralight-S" transform="matrix(1 0 0 1 515.644 696)">
   <path d="M 44.043 2.05078 C 64.502 2.05078 81.2988 -14.6973 81.2988 -35.1562 C 81.2988 -55.6152 64.502 -72.3633 44.043 -72.3633 C 23.584 -72.3633 6.83594 -55.6152 6.83594 -35.1562 C 6.83594 -14.6973 23.584 2.05078 44.043 2.05078 Z M 44.043 -28.1738 C 43.1641 -28.1738 42.5293 -28.9062 42.5293 -30.0293 L 42.2363 -51.5625 C 42.2363 -52.6855 42.9199 -53.418 44.043 -53.418 C 45.2148 -53.418 45.8984 -52.6855 45.8984 -51.5625 L 45.5566 -30.0293 C 45.5566 -28.9062 44.9707 -28.1738 44.043 -28.1738 Z M 44.043 -16.8457 C 42.4805 -16.8457 41.2598 -18.1641 41.2598 -19.6289 C 41.2598 -21.0938 42.4805 -22.4121 44.043 -22.4121 C 45.6055 -22.4121 46.8262 -21.0938 46.8262 -19.6289 C 46.8262 -18.1641 45.6055 -16.8457 44.043 -16.8457 Z"/>
  </g>
  <g id="Thin-S" transform="matrix(1 0 0 1 811.867 696)">
   <path d="M 44.5801 2.53906 C 65.2832 2.53906 82.2754 -14.4531 82.2754 -35.2051 C 82.2754 -55.9082 65.2344 -72.9004 44.5312 -72.9004 C 23.8281 -72.9004 6.83594 -55.9082 6.83594 -35.2051 C 6.83594 -14.4531 23.877 2.53906 44.5801 2.53906 Z M 44.5312 -28.5645 C 43.3594 -28.5645 42.5781 -29.3945 42.5781 -30.7617 L 42.1875 -51.6113 C 42.1387 -52.9785 43.1152 -53.9551 44.5312 -53.9551 C 45.9473 -53.9551 46.9238 -52.9785 46.875 -51.5625 L 46.5332 -30.7617 C 46.4844 -29.3945 45.752 -28.5645 44.5312 -28.5645 Z M 44.5312 -16.4551 C 42.8223 -16.4551 41.3574 -17.8711 41.3574 -19.5801 C 41.3574 -21.3379 42.8223 -22.7539 44.5312 -22.7539 C 46.2891 -22.7539 47.7539 -21.3379 47.7539 -19.5801 C 47.7539 -17.8711 46.2891 -16.4551 44.5312 -16.4551 Z"/>
  </g>
  <g id="Light-S" transform="matrix(1 0 0 1 1107.6 696)">
   <path d="M 45.5078 3.4668 C 66.6992 3.4668 84.2285 -14.0625 84.2285 -35.2051 C 84.2285 -56.3965 66.6504 -73.9258 45.5078 -73.9258 C 24.3164 -73.9258 6.83594 -56.3965 6.83594 -35.2051 C 6.83594 -14.0625 24.3652 3.4668 45.5078 3.4668 Z M 45.5078 -29.2969 C 43.7012 -29.2969 42.6758 -30.3711 42.5781 -32.2266 L 42.0898 -51.6113 C 42.041 -53.5156 43.457 -54.8828 45.459 -54.8828 C 47.4121 -54.8828 48.9258 -53.4668 48.8281 -51.6113 L 48.3398 -32.2266 C 48.291 -30.3223 47.2168 -29.2969 45.5078 -29.2969 Z M 45.5078 -15.6738 C 43.4082 -15.6738 41.5039 -17.3828 41.5039 -19.5801 C 41.5039 -21.7773 43.3594 -23.4375 45.5078 -23.4375 C 47.6074 -23.4375 49.5117 -21.8262 49.5117 -19.5801 C 49.5117 -17.334 47.5586 -15.6738 45.5078 -15.6738 Z"/>
  </g>
  <g id="Regular-S" transform="matrix(1 0 0 1 1403.58 696)">
   <path d="M 46.2402 4.15039 C 67.7734 4.15039 85.6934 -13.7207 85.6934 -35.2539 C 85.6934 -56.7871 67.7246 -74.6582 46.1914 -74.6582 C 24.707 -74.6582 6.83594 -56.7871 6.83594 -35.2539 C 6.83594 -13.7207 24.7559 4.15039 46.2402 4.15039 Z M 46.1914 -29.834 C 43.9453 -29.834 42.7246 -31.0547 42.627 -33.3496 L 42.041 -51.6602 C 41.9434 -53.9551 43.75 -55.6152 46.1426 -55.6152 C 48.5352 -55.6152 50.4395 -53.9062 50.3418 -51.6113 L 49.707 -33.3496 C 49.6094 -31.0059 48.3887 -29.834 46.1914 -29.834 Z M 46.1914 -15.0879 C 43.8477 -15.0879 41.6016 -16.9434 41.6016 -19.5312 C 41.6016 -22.1191 43.7988 -23.9746 46.1914 -23.9746 C 48.584 -23.9746 50.8301 -22.168 50.8301 -19.5312 C 50.8301 -16.8945 48.5352 -15.0879 46.1914 -15.0879 Z"/>
  </g>
  <g id="Medium-S" transform="matrix(1 0 0 1 1699.7 696)">
   <path d="M 46.8262 4.78516 C 68.75 4.78516 86.8652 -13.3301 86.8652 -35.2539 C 86.8652 -57.1289 68.7012 -75.2441 46.8262 -75.2441 C 24.9023 -75.2441 6.83594 -57.1289 6.83594 -35.2539 C 6.83594 -13.3301 24.9512 4.78516 46.8262 4.78516 Z M 46.8262 -30.0781 C 44.3359 -30.0781 42.9199 -31.4453 42.8223 -33.9355 L 42.2363 -50.7324 C 42.0898 -53.2715 44.043 -55.127 46.7773 -55.127 C 49.4629 -55.127 51.4648 -53.2227 51.3672 -50.6836 L 50.7324 -33.9844 C 50.6348 -31.3965 49.2188 -30.0781 46.8262 -30.0781 Z M 46.8262 -15.1855 C 44.0918 -15.1855 41.7969 -17.0898 41.7969 -19.873 C 41.7969 -22.6074 44.043 -24.4629 46.8262 -24.4629 C 49.5605 -24.4629 51.8066 -22.6074 51.8066 -19.873 C 51.8066 -17.041 49.5605 -15.1855 46.8262 -15.1855 Z"/>
  </g>
  <g id="Semibold-S" transform="matrix(1 0 0 1 1995.98 696)">
   <path d="M 47.3145 5.22461 C 69.4824 5.22461 87.7441 -13.0371 87.7441 -35.2539 C 87.7441 -57.4219 69.4336 -75.6836 47.2656 -75.6836 C 25.0977 -75.6836 6.83594 -57.4219 6.83594 -35.2539 C 6.83594 -13.0371 25.0977 5.22461 47.3145 5.22461 Z M 47.2656 -30.2734 C 44.5801 -30.2734 43.1152 -31.7383 42.9688 -34.4238 L 42.334 -50 C 42.1875 -52.7832 44.2871 -54.7852 47.2168 -54.7852 C 50.1953 -54.7852 52.2949 -52.7344 52.1484 -49.9512 L 51.5137 -34.4238 C 51.3672 -31.6895 49.9023 -30.2734 47.2656 -30.2734 Z M 47.2656 -15.2832 C 44.2383 -15.2832 41.9434 -17.1875 41.9434 -20.0684 C 41.9434 -22.998 44.1895 -24.8535 47.2656 -24.8535 C 50.293 -24.8535 52.5391 -22.998 52.5391 -20.0684 C 52.5391 -17.1387 50.293 -15.2832 47.2656 -15.2832 Z"/>
  </g>
  <g id="Bold-S" transform="matrix(1 0 0 1 2292.1 696)">
   <path d="M 47.9004 5.81055 C 70.4102 5.81055 88.916 -12.6465 88.916 -35.2051 C 88.916 -57.7637 70.4102 -76.2695 47.8516 -76.2695 C 25.293 -76.2695 6.83594 -57.7637 6.83594 -35.2051 C 6.83594 -12.6465 25.3418 5.81055 47.9004 5.81055 Z M 47.9004 -30.5176 C 44.9707 -30.5176 43.3105 -32.1289 43.1641 -35.0098 L 42.5293 -49.0234 C 42.334 -52.1484 44.5801 -54.248 47.8516 -54.248 C 51.123 -54.248 53.3691 -52.0996 53.2227 -49.0234 L 52.5391 -35.0586 C 52.3926 -32.0801 50.7812 -30.5176 47.9004 -30.5176 Z M 47.9004 -15.3809 C 44.4336 -15.3809 42.1875 -17.2852 42.1875 -20.4102 C 42.1875 -23.4863 44.4336 -25.3906 47.9004 -25.3906 C 51.2695 -25.3906 53.5645 -23.4863 53.5645 -20.4102 C 53.5645 -17.2852 51.3184 -15.3809 47.9004 -15.3809 Z"/>
  </g>
  <g id="Heavy-S" transform="matrix(1 0 0 1 2587.96 696)">
   <path d="M 48.7305 6.68945 C 71.8262 6.68945 90.625 -12.1094 90.625 -35.2051 C 90.625 -58.3008 71.8262 -77.0996 48.7305 -77.0996 C 25.6348 -77.0996 6.83594 -58.3008 6.83594 -35.2051 C 6.83594 -12.1094 25.6348 6.68945 48.7305 6.68945 Z M 48.7793 -30.9082 C 45.5078 -30.9082 43.6035 -32.666 43.457 -35.8887 L 42.7734 -47.6562 C 42.5781 -51.1719 45.0195 -53.5156 48.7305 -53.5156 C 52.4902 -53.5156 54.9316 -51.1719 54.7363 -47.6562 L 54.0527 -35.9863 C 53.8574 -32.666 52.002 -30.9082 48.7793 -30.9082 Z M 48.7793 -15.5273 C 44.7266 -15.5273 42.4805 -17.4805 42.4805 -20.8496 C 42.4805 -24.2188 44.7266 -26.123 48.7793 -26.123 C 52.6367 -26.123 54.9805 -24.1699 54.9805 -20.8496 C 54.9805 -17.4805 52.7344 -15.5273 48.7793 -15.5273 Z"/>
  </g>
  <g id="Black-S" transform="matrix(1 0 0 1 2883.89 696)">
   <path d="M 49.5117 7.4707 C 73.0957 7.4707 92.1875 -11.6211 92.1875 -35.2051 C 92.1875 -58.7891 73.0957 -77.8809 49.5117 -77.8809 C 25.9277 -77.8809 6.83594 -58.7891 6.83594 -35.2051 C 6.83594 -11.6211 25.9277 7.4707 49.5117 7.4707 Z M 49.5605 -31.25 C 45.9961 -31.25 43.8965 -33.1543 43.7012 -36.6699 L 42.9688 -46.4355 C 42.7734 -50.3418 45.4102 -52.8809 49.5117 -52.8809 C 53.7109 -52.8809 56.2988 -50.3418 56.0547 -46.4355 L 55.3711 -36.7676 C 55.1758 -33.1543 53.125 -31.25 49.5605 -31.25 Z M 49.5605 -15.6738 C 45.0195 -15.6738 42.7734 -17.627 42.7734 -21.2891 C 42.7734 -24.8535 45.0195 -26.7578 49.5605 -26.7578 C 53.9062 -26.7578 56.25 -24.7559 56.25 -21.2891 C 56.25 -17.6758 54.0527 -15.6738 49.5605 -15.6738 Z"/>
  </g>
  <g id="Ultralight-M" transform="matrix(1 0 0 1 503.656 1126)">
   <path d="M 56.0547 12.207 C 82.0801 12.207 103.369 -9.08203 103.369 -35.1562 C 103.369 -61.1816 82.0801 -82.4707 56.0547 -82.4707 C 30.0293 -82.4707 8.74023 -61.1816 8.74023 -35.1562 C 8.74023 -9.08203 30.0293 12.207 56.0547 12.207 Z M 56.0547 -26.0742 C 55.0293 -26.0742 54.2969 -27.002 54.2969 -28.2715 L 53.9062 -56.0547 C 53.9062 -57.4219 54.6875 -58.252 56.0547 -58.252 C 57.373 -58.252 58.2031 -57.4219 58.2031 -56.0547 L 57.8125 -28.2715 C 57.8125 -27.002 57.0801 -26.0742 56.0547 -26.0742 Z M 56.0547 -11.9141 C 54.1504 -11.9141 52.6367 -13.5254 52.6367 -15.332 C 52.6367 -17.0898 54.1504 -18.7012 56.0547 -18.7012 C 57.959 -18.7012 59.4238 -17.0898 59.4238 -15.332 C 59.4238 -13.5254 57.959 -11.9141 56.0547 -11.9141 Z"/>
  </g>
  <g id="Thin-M" transform="matrix(1 0 0 1 799.806 1126)">
   <path d="M 56.5918 12.7441 C 82.9102 12.7441 104.492 -8.83789 104.492 -35.1562 C 104.492 -61.4746 82.9102 -83.0566 56.5918 -83.0566 C 30.3223 -83.0566 8.74023 -61.4746 8.74023 -35.1562 C 8.74023 -8.83789 30.3223 12.7441 56.5918 12.7441 Z M 56.5918 -26.5137 C 55.2246 -26.5137 54.3457 -27.5391 54.2969 -29.1504 L 53.8574 -56.1035 C 53.8574 -57.7148 54.9316 -58.8379 56.5918 -58.8379 C 58.252 -58.8379 59.3262 -57.7148 59.3262 -56.1035 L 58.8867 -29.1504 C 58.8379 -27.5391 57.959 -26.5137 56.5918 -26.5137 Z M 56.5918 -11.4746 C 54.4922 -11.4746 52.7344 -13.2324 52.7344 -15.2832 C 52.7344 -17.3828 54.4922 -19.0918 56.5918 -19.0918 C 58.7402 -19.0918 60.4492 -17.3828 60.4492 -15.2832 C 60.4492 -13.2324 58.6914 -11.4746 56.5918 -11.4746 Z"/>
  </g>
  <g id="Light-M" transform="matrix(1 0 0 1 1095.42 1126)">
   <path d="M 57.7148 13.7695 C 84.5215 13.7695 106.689 -8.39844 106.689 -35.2051 C 106.689 -62.0117 84.4727 -84.1797 57.666 -84.1797 C 30.8594 -84.1797 8.74023 -62.0117 8.74023 -35.2051 C 8.74023 -8.39844 30.8594 13.7695 57.7148 13.7695 Z M 57.666 -27.3438 C 55.6152 -27.3438 54.3945 -28.6133 54.3457 -30.8105 L 53.7598 -56.1523 C 53.7109 -58.3496 55.3223 -59.9121 57.6172 -59.9121 C 59.9121 -59.9121 61.5723 -58.3008 61.5234 -56.1035 L 60.9375 -30.8105 C 60.8398 -28.5645 59.668 -27.3438 57.666 -27.3438 Z M 57.666 -10.5957 C 55.1758 -10.5957 52.8809 -12.6465 52.8809 -15.2344 C 52.8809 -17.8711 55.127 -19.9219 57.666 -19.9219 C 60.2051 -19.9219 62.4512 -17.9199 62.4512 -15.2344 C 62.4512 -12.5977 60.2051 -10.5957 57.666 -10.5957 Z"/>
  </g>
  <g id="Regular-M" transform="matrix(1 0 0 1 1391.32 1126)">
   <path d="M 58.5449 14.5508 C 85.7422 14.5508 108.35 -8.00781 108.35 -35.2539 C 108.35 -62.4512 85.6934 -85.0586 58.4961 -85.0586 C 31.25 -85.0586 8.74023 -62.4512 8.74023 -35.2539 C 8.74023 -8.00781 31.2988 14.5508 58.5449 14.5508 Z M 58.4961 -27.9297 C 55.9082 -27.9297 54.4922 -29.4434 54.3945 -32.0312 L 53.7109 -56.1523 C 53.6133 -58.8379 55.6641 -60.7422 58.4473 -60.7422 C 61.1816 -60.7422 63.2812 -58.7891 63.1836 -56.1035 L 62.5 -32.0312 C 62.4023 -29.3945 60.9375 -27.9297 58.4961 -27.9297 Z M 58.4961 -9.96094 C 55.6641 -9.96094 53.0273 -12.207 53.0273 -15.2344 C 53.0273 -18.2617 55.6152 -20.5078 58.4961 -20.5078 C 61.3281 -20.5078 63.9648 -18.3105 63.9648 -15.2344 C 63.9648 -12.1582 61.2793 -9.96094 58.4961 -9.96094 Z"/>
  </g>
  <g id="Medium-M" transform="matrix(1 0 0 1 1687.33 1126)">
   <path d="M 59.2285 15.2832 C 86.8652 15.2832 109.717 -7.56836 109.717 -35.2051 C 109.717 -62.8906 86.8164 -85.7422 59.1797 -85.7422 C 31.543 -85.7422 8.74023 -62.8906 8.74023 -35.2051 C 8.74023 -7.56836 31.5918 15.2832 59.2285 15.2832 Z M 59.1797 -28.2715 C 56.2988 -28.2715 54.6875 -29.8828 54.5898 -32.8125 L 53.8574 -55.2246 C 53.7598 -58.2031 56.0059 -60.3516 59.1309 -60.3516 C 62.2559 -60.3516 64.5996 -58.1543 64.4531 -55.1758 L 63.7207 -32.8125 C 63.5742 -29.8828 61.9629 -28.2715 59.1797 -28.2715 Z M 59.1797 -9.96094 C 55.957 -9.96094 53.2227 -12.2559 53.2227 -15.5273 C 53.2227 -18.7988 55.9082 -21.0938 59.1797 -21.0938 C 62.4512 -21.0938 65.1367 -18.8477 65.1367 -15.5273 C 65.1367 -12.207 62.4512 -9.96094 59.1797 -9.96094 Z"/>
  </g>
  <g id="Semibold-M" transform="matrix(1 0 0 1 1983.5 1126)">
   <path d="M 59.7656 15.8203 C 87.7441 15.8203 110.791 -7.22656 110.791 -35.2051 C 110.791 -63.1836 87.6953 -86.2793 59.7168 -86.2793 C 31.7383 -86.2793 8.74023 -63.1836 8.74023 -35.2051 C 8.74023 -7.22656 31.7871 15.8203 59.7656 15.8203 Z M 59.7656 -28.5645 C 56.6406 -28.5645 54.8828 -30.2734 54.7363 -33.3984 L 54.0039 -54.4922 C 53.8574 -57.7148 56.25 -60.0586 59.7168 -60.0586 C 63.1348 -60.0586 65.5762 -57.7148 65.4297 -54.4434 L 64.6484 -33.4473 C 64.502 -30.2246 62.793 -28.5645 59.7656 -28.5645 Z M 59.7656 -10.0098 C 56.1523 -10.0098 53.418 -12.3047 53.418 -15.7715 C 53.418 -19.2383 56.1035 -21.5332 59.7656 -21.5332 C 63.2812 -21.5332 66.0156 -19.2383 66.0156 -15.7715 C 66.0156 -12.3047 63.3301 -10.0098 59.7656 -10.0098 Z"/>
  </g>
  <g id="Bold-M" transform="matrix(1 0 0 1 2279.5 1126)">
   <path d="M 60.4492 16.5039 C 88.8672 16.5039 112.207 -6.78711 112.207 -35.2051 C 112.207 -63.623 88.8672 -86.9629 60.4492 -86.9629 C 32.0312 -86.9629 8.74023 -63.623 8.74023 -35.2051 C 8.74023 -6.78711 32.0801 16.5039 60.4492 16.5039 Z M 60.498 -28.8574 C 57.0312 -28.8574 55.127 -30.7617 54.9316 -34.1797 L 54.1504 -53.5156 C 54.0039 -57.1289 56.5918 -59.6191 60.4004 -59.6191 C 64.2578 -59.6191 66.8457 -57.0801 66.6992 -53.4668 L 65.918 -34.2285 C 65.7227 -30.7129 63.8184 -28.8574 60.498 -28.8574 Z M 60.498 -10.0098 C 56.4453 -10.0098 53.6621 -12.4023 53.6621 -16.1133 C 53.6621 -19.7754 56.3965 -22.1191 60.498 -22.1191 C 64.4043 -22.1191 67.2363 -19.7754 67.2363 -16.1133 C 67.2363 -12.3535 64.4531 -10.0098 60.498 -10.0098 Z"/>
  </g>
  <g id="Heavy-M" transform="matrix(1 0 0 1 2575.19 1126)">
   <path d="M 61.4746 17.5781 C 90.5273 17.5781 114.258 -6.15234 114.258 -35.2051 C 114.258 -64.2578 90.5273 -87.9883 61.4746 -87.9883 C 32.4219 -87.9883 8.74023 -64.2578 8.74023 -35.2051 C 8.74023 -6.15234 32.4707 17.5781 61.4746 17.5781 Z M 61.5234 -29.3945 C 57.666 -29.3945 55.4688 -31.4453 55.2246 -35.2539 L 54.3945 -52.0996 C 54.1992 -56.25 57.1289 -59.0332 61.4746 -59.0332 C 65.8691 -59.0332 68.75 -56.2012 68.5547 -52.0996 L 67.7246 -35.3516 C 67.4805 -31.4453 65.332 -29.3945 61.5234 -29.3945 Z M 61.5234 -10.0586 C 56.8359 -10.0586 54.0039 -12.5 54.0039 -16.5527 C 54.0039 -20.6055 56.8359 -22.9492 61.5234 -22.9492 C 66.0645 -22.9492 68.9453 -20.5566 68.9453 -16.5527 C 68.9453 -12.5 66.1133 -10.0586 61.5234 -10.0586 Z"/>
  </g>
  <g id="Black-M" transform="matrix(1 0 0 1 2871 1126)">
   <path d="M 62.4023 18.457 C 91.9922 18.457 116.064 -5.61523 116.064 -35.2051 C 116.064 -64.7949 91.9922 -88.8672 62.4023 -88.8672 C 32.8125 -88.8672 8.74023 -64.7949 8.74023 -35.2051 C 8.74023 -5.61523 32.8125 18.457 62.4023 18.457 Z M 62.4512 -29.7852 C 58.2031 -29.7852 55.7617 -32.0801 55.5176 -36.2793 L 54.6387 -50.8301 C 54.3457 -55.4199 57.5684 -58.4961 62.4023 -58.4961 C 67.2852 -58.4961 70.459 -55.4199 70.166 -50.8301 L 69.3359 -36.377 C 69.043 -32.0801 66.6504 -29.7852 62.4512 -29.7852 Z M 62.4512 -10.1074 C 57.1777 -10.1074 54.2969 -12.5977 54.2969 -16.9922 C 54.2969 -21.2891 57.1777 -23.7305 62.4512 -23.7305 C 67.4805 -23.7305 70.5078 -21.2402 70.5078 -16.9922 C 70.5078 -12.5977 67.627 -10.1074 62.4512 -10.1074 Z"/>
  </g>
  <g id="Ultralight-L" transform="matrix(1 0 0 1 487.641 1556)">
   <path d="M 72.0703 25.7324 C 105.566 25.7324 132.91 -1.61133 132.91 -35.1074 C 132.91 -68.5547 105.566 -95.8984 72.0703 -95.8984 C 38.623 -95.8984 11.2793 -68.5547 11.2793 -35.1074 C 11.2793 -1.61133 38.623 25.7324 72.0703 25.7324 Z M 72.0703 -23.2422 C 70.8984 -23.2422 70.0195 -24.3652 70.0195 -25.8789 L 69.5801 -62.1094 C 69.5801 -63.7207 70.5078 -64.7461 72.0703 -64.7461 C 73.6816 -64.7461 74.5605 -63.7207 74.5605 -62.1094 L 74.1211 -25.8789 C 74.1699 -24.3652 73.291 -23.2422 72.0703 -23.2422 Z M 72.0703 -5.37109 C 69.6777 -5.37109 67.9199 -7.37305 67.9199 -9.57031 C 67.9199 -11.7188 69.7266 -13.7207 72.0703 -13.7207 C 74.4629 -13.7207 76.2695 -11.7188 76.2695 -9.57031 C 76.2695 -7.37305 74.4629 -5.37109 72.0703 -5.37109 Z"/>
  </g>
  <g id="Thin-L" transform="matrix(1 0 0 1 783.717 1556)">
   <path d="M 72.7051 26.3184 C 106.494 26.3184 134.131 -1.36719 134.131 -35.1074 C 134.131 -68.8965 106.445 -96.582 72.7051 -96.582 C 38.916 -96.582 11.2793 -68.8965 11.2793 -35.1074 C 11.2793 -1.36719 38.916 26.3184 72.7051 26.3184 Z M 72.7051 -23.6816 C 71.1426 -23.6816 70.0684 -24.9512 70.0684 -26.8555 L 69.5312 -62.1582 C 69.5312 -64.0625 70.752 -65.332 72.7051 -65.332 C 74.6582 -65.332 75.8789 -64.0625 75.8301 -62.1582 L 75.3418 -26.8555 C 75.293 -24.9512 74.2676 -23.6816 72.7051 -23.6816 Z M 72.7051 -4.83398 C 70.0684 -4.83398 68.0176 -7.03125 68.0176 -9.52148 C 68.0176 -12.0117 70.0684 -14.209 72.7051 -14.209 C 75.293 -14.209 77.3926 -12.0117 77.3926 -9.52148 C 77.3926 -7.03125 75.293 -4.83398 72.7051 -4.83398 Z"/>
  </g>
  <g id="Light-L" transform="matrix(1 0 0 1 1079.21 1556)">
   <path d="M 73.9258 27.4902 C 108.301 27.4902 136.572 -0.830078 136.572 -35.1562 C 136.572 -69.5312 108.252 -97.8516 73.877 -97.8516 C 39.5508 -97.8516 11.2793 -69.5312 11.2793 -35.1562 C 11.2793 -0.830078 39.5508 27.4902 73.9258 27.4902 Z M 73.877 -24.6094 C 71.582 -24.6094 70.166 -26.1719 70.1172 -28.7109 L 69.4336 -62.207 C 69.3848 -64.7461 71.1914 -66.5527 73.877 -66.5527 C 76.5137 -66.5527 78.3691 -64.7461 78.3203 -62.1582 L 77.6367 -28.7109 C 77.5391 -26.123 76.1719 -24.6094 73.877 -24.6094 Z M 73.877 -3.85742 C 70.8496 -3.85742 68.1641 -6.34766 68.1641 -9.47266 C 68.1641 -12.5977 70.8008 -15.0879 73.877 -15.0879 C 76.9531 -15.0879 79.6387 -12.5977 79.6387 -9.47266 C 79.6387 -6.34766 76.9531 -3.85742 73.877 -3.85742 Z"/>
  </g>
  <g id="Regular-L" transform="matrix(1 0 0 1 1374.99 1556)">
   <path d="M 74.8535 28.3691 C 109.668 28.3691 138.428 -0.390625 138.428 -35.2051 C 138.428 -70.0195 109.619 -98.7793 74.8047 -98.7793 C 39.9902 -98.7793 11.2793 -70.0195 11.2793 -35.2051 C 11.2793 -0.390625 40.0391 28.3691 74.8535 28.3691 Z M 74.8047 -25.3418 C 71.9238 -25.3418 70.2637 -27.0508 70.166 -30.0781 L 69.3848 -62.207 C 69.2871 -65.2832 71.5332 -67.4805 74.7559 -67.4805 C 77.8809 -67.4805 80.2734 -65.2344 80.1758 -62.1582 L 79.3457 -30.0781 C 79.248 -27.002 77.5879 -25.3418 74.8047 -25.3418 Z M 74.8047 -3.125 C 71.4355 -3.125 68.3105 -5.85938 68.3105 -9.42383 C 68.3105 -12.9883 71.3867 -15.7227 74.8047 -15.7227 C 78.2227 -15.7227 81.2988 -13.0371 81.2988 -9.42383 C 81.2988 -5.81055 78.1738 -3.125 74.8047 -3.125 Z"/>
  </g>
  <g id="Medium-L" transform="matrix(1 0 0 1 1670.9 1556)">
   <path d="M 75.6348 29.1992 C 110.938 29.1992 140.039 0.0488281 140.039 -35.2051 C 140.039 -70.459 110.889 -99.6094 75.5859 -99.6094 C 40.332 -99.6094 11.2793 -70.459 11.2793 -35.2051 C 11.2793 0.0488281 40.3809 29.1992 75.6348 29.1992 Z M 75.6348 -25.7812 C 72.3145 -25.7812 70.459 -27.6855 70.3125 -31.0547 L 69.4824 -61.377 C 69.3848 -64.7949 71.9238 -67.2852 75.5859 -67.2852 C 79.1504 -67.2852 81.7871 -64.7949 81.6895 -61.3281 L 80.8105 -31.0547 C 80.6641 -27.6367 78.8086 -25.7812 75.6348 -25.7812 Z M 75.6348 -3.02734 C 71.7773 -3.02734 68.5547 -5.85938 68.5547 -9.7168 C 68.5547 -13.5742 71.7285 -16.4062 75.6348 -16.4062 C 79.4922 -16.4062 82.666 -13.623 82.666 -9.7168 C 82.666 -5.81055 79.4434 -3.02734 75.6348 -3.02734 Z"/>
  </g>
  <g id="Semibold-L" transform="matrix(1 0 0 1 1967 1556)">
   <path d="M 76.2695 29.7852 C 111.914 29.7852 141.26 0.439453 141.26 -35.2051 C 141.26 -70.8496 111.865 -100.244 76.2207 -100.244 C 40.5762 -100.244 11.2793 -70.8496 11.2793 -35.2051 C 11.2793 0.439453 40.625 29.7852 76.2695 29.7852 Z M 76.2695 -26.0742 C 72.6562 -26.0742 70.6543 -28.125 70.459 -31.7871 L 69.6289 -60.6934 C 69.4336 -64.4531 72.2168 -67.1387 76.1719 -67.1387 C 80.127 -67.1387 82.959 -64.4043 82.8125 -60.6445 L 81.8848 -31.8359 C 81.7383 -28.0762 79.7363 -26.0742 76.2695 -26.0742 Z M 76.2695 -2.92969 C 72.0215 -2.92969 68.7012 -5.81055 68.7012 -9.96094 C 68.7012 -14.0137 72.0215 -16.8945 76.2695 -16.8945 C 80.4199 -16.8945 83.7402 -14.0625 83.7402 -9.96094 C 83.7402 -5.76172 80.4199 -2.92969 76.2695 -2.92969 Z"/>
  </g>
  <g id="Bold-L" transform="matrix(1 0 0 1 2262.9 1556)">
   <path d="M 77.0996 30.6152 C 113.184 30.6152 142.92 0.878906 142.92 -35.2051 C 142.92 -71.3379 113.135 -101.025 77.0508 -101.025 C 40.918 -101.025 11.2793 -71.3379 11.2793 -35.2051 C 11.2793 0.878906 40.9668 30.6152 77.0996 30.6152 Z M 77.0996 -26.5137 C 73.0957 -26.5137 70.8496 -28.7598 70.6543 -32.7148 L 69.7266 -59.8145 C 69.5312 -64.0137 72.6074 -66.9434 77.002 -66.9434 C 81.3965 -66.9434 84.5215 -63.9648 84.3262 -59.7656 L 83.3496 -32.8125 C 83.1543 -28.7109 80.957 -26.5137 77.0996 -26.5137 Z M 77.0996 -2.83203 C 72.4121 -2.83203 68.9453 -5.81055 68.9453 -10.2051 C 68.9453 -14.5996 72.3633 -17.5293 77.0996 -17.5293 C 81.6895 -17.5293 85.1562 -14.5996 85.1562 -10.2051 C 85.1562 -5.76172 81.6895 -2.83203 77.0996 -2.83203 Z"/>
  </g>
  <g id="Heavy-L" transform="matrix(1 0 0 1 2558.42 1556)">
   <path d="M 78.2715 31.7871 C 115.039 31.7871 145.264 1.61133 145.264 -35.2051 C 145.264 -72.0215 115.039 -102.197 78.2227 -102.197 C 41.4551 -102.197 11.2793 -72.0215 11.2793 -35.2051 C 11.2793 1.61133 41.4551 31.7871 78.2715 31.7871 Z M 78.2715 -27.1484 C 73.7305 -27.1484 71.1914 -29.6387 70.9473 -34.1309 L 69.9219 -58.5449 C 69.7266 -63.3301 73.1445 -66.6504 78.2227 -66.6504 C 83.252 -66.6504 86.7188 -63.2812 86.5234 -58.4961 L 85.4492 -34.2285 C 85.2051 -29.5898 82.7148 -27.1484 78.2715 -27.1484 Z M 78.2715 -2.68555 C 72.9004 -2.68555 69.3359 -5.76172 69.3359 -10.6445 C 69.3359 -15.4785 72.9004 -18.5059 78.2715 -18.5059 C 83.4961 -18.5059 87.1582 -15.4297 87.1582 -10.6445 C 87.1582 -5.71289 83.5449 -2.68555 78.2715 -2.68555 Z"/>
  </g>
  <g id="Black-L" transform="matrix(1 0 0 1 2854.08 1556)">
   <path d="M 79.2969 32.8613 C 116.748 32.8613 147.363 2.19727 147.363 -35.2051 C 147.363 -72.6074 116.699 -103.271 79.2969 -103.271 C 41.8945 -103.271 11.2793 -72.6074 11.2793 -35.2051 C 11.2793 2.19727 41.8945 32.8613 79.2969 32.8613 Z M 79.3457 -27.7344 C 74.3164 -27.7344 71.4844 -30.4199 71.1914 -35.3516 L 70.1172 -57.373 C 69.8242 -62.6953 73.6328 -66.3574 79.2969 -66.3574 C 84.9121 -66.3574 88.7207 -62.6953 88.4766 -57.373 L 87.3535 -35.498 C 87.0605 -30.3711 84.2773 -27.7344 79.3457 -27.7344 Z M 79.3457 -2.53906 C 73.3887 -2.53906 69.6289 -5.71289 69.6289 -10.9863 C 69.6289 -16.2109 73.3398 -19.3848 79.3457 -19.3848 C 85.1074 -19.3848 88.9648 -16.2109 88.9648 -10.9863 C 88.9648 -5.71289 85.2051 -2.53906 79.3457 -2.53906 Z"/>
  </g>
 </g>
</svg>
